<?xml version="1.0" encoding="UTF-8"?>
<svg width="160px" height="150px" viewBox="0 0 160 150" version="1.1" xmlns="http://www.w3.org/2000/svg" xmlns:xlink="http://www.w3.org/1999/xlink">
    <!-- Generator: Sketch 51.3 (57544) - http://www.bohemiancoding.com/sketch -->
    <title>np_house_498503_FFFFFF</title>
    <desc>Created with Sketch.</desc>
    <defs></defs>
    <g id="MAIN" stroke="none" stroke-width="1" fill="none" fill-rule="evenodd">
        <g id="FCE_LANDING" transform="translate(-719.000000, -1615.000000)" fill="#003359" fill-rule="nonzero">
            <g id="SECTION_Main" transform="translate(0.000000, 1220.000000)">
                <g id="WellRow" transform="translate(200.000000, 395.000000)">
                    <g id="Well" transform="translate(420.000000, 0.000000)">
                        <g id="np_house_498503_FFFFFF" transform="translate(99.000000, 0.000000)">
                            <path d="M131.8725,93.75 C147.39975,93.75 159.9975,81.15225 159.9975,65.625 C159.9975,52.6464375 151.14975,41.821875 139.18125,38.58375 C140.484956,35.3390625 141.24675,31.83075 141.24675,28.1248125 C141.24675,12.5975625 128.649,-0.0001875 113.12175,-0.0001875 C97.5945,-0.0001875 84.99675,12.5975625 84.99675,28.1248125 C84.99675,31.8309375 85.7511375,35.3465625 87.06225,38.58375 C79.796625,40.5466875 73.7101875,45.33675 70.0335,51.6868125 L75.3435,55.004625 C78.156,50.038875 82.87275,46.193625 88.6955625,44.6188125 L95.4924375,42.7731 L92.8704375,36.2471625 C91.793775,33.595725 91.2591,30.86385 91.2591,28.1246625 C91.2591,16.0616625 101.0736,6.2471625 113.1366,6.2471625 C125.1996,6.2471625 135.0141,16.0616625 135.0141,28.1246625 C135.0141,30.86385 134.479425,33.603225 133.402781,36.2471625 L130.780781,42.7731 L137.577656,44.6188125 C147.106406,47.1969375 153.771469,55.8395625 153.771469,65.6244375 C153.771469,77.6874375 143.956969,87.5019375 131.893969,87.5019375 C126.569344,87.5019375 121.398281,85.4805 117.333469,81.8109375 L115.648894,80.2948313 L110.023894,89.3036438 L110.001921,143.751769 L91.2519206,143.751769 L91.2519206,87.0630187 L100.443733,92.7978938 L107.064733,82.2071438 L53.7509831,48.8752687 L0.444733125,82.1996437 L7.06573313,92.7903937 L16.2502331,87.0628312 L16.2502331,143.751581 L3.74773313,143.751581 L3.74773313,149.999081 L153.747733,149.999081 L153.747733,143.751581 L116.247733,143.751581 L116.247733,88.8122063 C120.722796,91.8663938 126.040296,93.7487063 131.870233,93.7487063 L131.8725,93.75 Z M60,143.7525 L47.4975,143.7525 L47.4975,118.755 L60,118.755 L60,143.7525 Z M84.9975,143.7525 L66.2475,143.7525 L66.2475,112.5 L41.25,112.5 L41.25,143.7525 L22.5,143.7525 L22.5,83.16 L53.7525,63.62625 L85.005,83.16 L84.9975,143.7525 Z" id="Shape"></path>
                        </g>
                    </g>
                </g>
            </g>
        </g>
    </g>
</svg>