<?xml version="1.0" encoding="UTF-8"?>
<svg width="86px" height="75px" viewBox="0 0 86 75" version="1.1" xmlns="http://www.w3.org/2000/svg" xmlns:xlink="http://www.w3.org/1999/xlink">
    <!-- Generator: Sketch 51.3 (57544) - http://www.bohemiancoding.com/sketch -->
    <title>np_tractor_792349_000000</title>
    <desc>Created with Sketch.</desc>
    <defs></defs>
    <g id="MAIN" stroke="none" stroke-width="1" fill="none" fill-rule="evenodd">
        <g id="FCE_LANDING" transform="translate(-206.000000, -1069.000000)" fill="#C1D59F" fill-rule="nonzero">
            <g id="Group-3" transform="translate(0.000000, 993.000000)">
                <g id="Group-5" transform="translate(0.000000, 1.000000)">
                    <g id="Group" transform="translate(200.000000, 75.000000)">
                        <g id="np_tractor_792349_000000" transform="translate(6.000000, 0.000000)">
                            <path d="M42.5971154,54.2288462 C42.5971154,53.2673077 42.4994615,52.4034615 42.4055577,51.4419231 L39.42325,50.9611538 L41.9247885,49.3273077 C41.4440192,47.5019231 40.7717115,45.7703846 39.8101731,44.2303846 L36.9255577,44.8088077 L38.5594038,42.3072692 C37.4063269,40.8649615 36.1555577,39.5203462 34.6155577,38.3634231 L32.1140192,39.9972692 L32.6924423,37.1126538 C31.1524423,36.1511154 29.42475,35.4788077 27.5955192,34.9980385 L26.0592692,37.4995769 L25.4808462,34.6149615 C24.6169615,34.5173077 23.6554615,34.4234038 22.6939231,34.4234038 C21.7323846,34.4234038 20.8685385,34.5210577 19.907,34.6149615 L19.4224712,37.4995769 L17.788625,34.9980385 C15.9632404,35.4788077 14.2317019,36.1511154 12.6917019,37.1126538 L13.270125,39.9972692 L10.7685865,38.3634231 C9.32627885,39.5165 7.98166346,40.7672692 6.82474038,42.3072692 L8.45858654,44.8088077 L5.57397115,44.2303846 C4.61243269,45.7703846 3.940125,47.4980769 3.45935577,49.3273077 L5.96089423,50.9611538 L2.97858654,51.5395769 C2.88468654,52.4034615 2.88468654,53.3649615 2.88468654,54.2289038 C2.88468654,55.1904423 2.98234038,56.0542885 3.07624423,57.0158269 L6.05855192,57.59425 L3.55701346,59.2280962 C4.03778269,61.0534808 4.71009038,62.7850192 5.67162885,64.3250192 L8.55624423,63.7465962 L6.92239808,66.2481346 C8.075475,67.6904423 9.32624423,69.0350577 10.8662442,70.1919808 L13.3677827,68.5581346 L12.7893596,71.44275 C14.3293596,72.4042885 16.0570519,73.0765962 17.8862827,73.5573654 L19.5201288,71.0558269 L20.0985519,74.0381346 C20.9624365,74.1357885 21.9239365,74.2296923 22.885475,74.2296923 C23.8470135,74.2296923 24.7108596,74.1320385 25.6723981,74.0381346 L26.2508212,71.0558269 L27.8846673,73.5573654 C29.7100519,73.0765962 31.4415904,72.4042885 32.9815904,71.44275 L32.4031673,68.5581346 L34.9047058,70.1919808 C36.3470135,69.0389038 37.6916288,67.7881346 38.8485519,66.2481346 L37.2147058,63.7465962 L40.0993212,64.3250192 C41.0608596,62.7850192 41.7331673,61.0573269 42.2139365,59.2280962 L39.4232635,57.59425 L42.4055712,57.0158269 C42.4994721,56.1519423 42.5971288,55.1904423 42.5971288,54.2289038 L42.5971154,54.2288462 Z M22.6942308,66.7288462 C15.5803846,66.7288462 9.71346154,60.9596154 9.71346154,53.7480769 C9.71346154,46.6342308 15.4826923,40.7673077 22.6942308,40.7673077 C29.8080769,40.7673077 35.675,46.5365385 35.675,53.7480769 C35.675,60.8656731 29.9057692,66.7288462 22.6942308,66.7288462 Z" id="Shape"></path>
                            <path d="M28.7480769,54.2288462 C28.7480769,57.5754808 26.03625,60.2873077 22.6933654,60.2873077 C19.3467308,60.2873077 16.6349038,57.5754808 16.6349038,54.2288462 C16.6349038,50.8859615 19.3467308,48.1741346 22.6933654,48.1741346 C26.03625,48.1741346 28.7480769,50.8859615 28.7480769,54.2288462" id="Shape"></path>
                            <path d="M79.1355769,51.2509615 L85.6748077,31.0586538 L65.8651923,31.0586538 L65.8651923,15.5759615 L59.1344231,15.5759615 L59.1344231,31.0586538 L49.0382692,31.0586538 L40.8651923,0.868269231 L9.61519231,0.864513462 L9.61519231,27.7875904 L0.578269231,32.9783596 L4.32673077,38.8452827 C4.61594231,38.653725 4.90515385,38.4621673 5.19061538,38.2668596 C9.51753846,33.5568596 15.7675385,30.5745519 22.6896538,30.5745519 C35.8617692,30.5745519 46.5367692,41.2495519 46.5367692,54.4216673 C46.5367692,55.2855519 46.4391154,56.2470519 46.3452115,57.1147442 L51.4421346,57.1147442 L51.6336923,51.2478212 L60.096,51.2478212 C57.6921538,53.553975 56.1521538,56.8255135 56.1521538,60.4801288 C56.1521538,67.5001288 61.8236923,73.2695519 68.9415769,73.2695519 C75.9615769,73.2695519 81.731,67.5980135 81.731,60.4801288 C81.731,56.8255135 80.191,53.5578212 77.7871538,51.2478212 L79.1355769,51.2509615 Z M15.6740385,23.7490385 L15.6740385,7.59423077 L36.2490385,7.59423077 L40.4782692,23.7490385 L15.6740385,23.7490385 Z M68.8480769,69.2307692 C64.3296154,69.2307692 60.675,65.5761538 60.675,61.0576923 C60.675,56.5392308 64.3296154,52.8846154 68.8480769,52.8846154 C73.3665385,52.8846154 77.0211538,56.5392308 77.0211538,61.0576923 C77.0211538,65.5761538 73.3665385,69.2307692 68.8480769,69.2307692 Z" id="Shape"></path>
                        </g>
                    </g>
                </g>
            </g>
        </g>
    </g>
</svg>