<?xml version="1.0" encoding="UTF-8"?>
<svg width="155px" height="150px" viewBox="0 0 155 150" version="1.1" xmlns="http://www.w3.org/2000/svg" xmlns:xlink="http://www.w3.org/1999/xlink">
    <!-- Generator: Sketch 51.3 (57544) - http://www.bohemiancoding.com/sketch -->
    <title>np_signed_1551098_000000</title>
    <desc>Created with Sketch.</desc>
    <defs></defs>
    <g id="MAIN" stroke="none" stroke-width="1" fill="none" fill-rule="evenodd">
        <g id="FCE_LANDING" transform="translate(-723.000000, -5114.000000)" fill="#003359" fill-rule="nonzero">
            <g id="WellRow" transform="translate(200.000000, 5113.000000)">
                <g id="Well" transform="translate(420.000000, 1.000000)">
                    <g id="np_signed_1551098_000000" transform="translate(103.000000, 0.000000)">
                        <path d="M84.3314491,89.4080164 C82.4586845,88.8118397 80.4593525,89.8476259 79.8632066,91.7144399 C78.5142857,95.9478931 73.6666495,98.7420863 70.7218397,99.6152621 C70.7639938,99.2539363 70.8121696,98.8865982 70.8483006,98.5975437 C71.0229358,97.3208941 71.1975709,96.0020658 71.0289635,94.7675334 C70.8844363,93.7317472 70.2882595,92.8104419 69.4030128,92.25037 C68.5177816,91.6903289 67.4278844,91.5518294 66.4281413,91.864964 C63.7965894,92.6959918 62.0380591,95.0084892 60.4904229,97.0559198 C60.1290971,97.5316495 59.6352996,98.1880576 59.17161,98.7239568 C59.1354789,97.7423741 59.201721,96.5138849 59.2438751,95.7853135 C59.304094,94.7615827 59.3462482,93.8222097 59.3101156,93.0934841 C59.2498967,91.8108068 58.491128,90.6606475 57.3409995,90.0885509 C56.1908094,89.5164697 54.8178237,89.6067934 53.7579573,90.3294296 C52.2043088,91.3832682 50.469982,92.9549692 48.4646377,94.7676105 C45.0863232,97.8207965 38.799427,103.511547 35.9870427,102.722698 C35.3426901,102.542035 34.7043654,101.825427 34.1263027,100.669255 C39.8653058,96.40574 45.9835483,88.2038386 46.3990159,81.5731603 C46.5977467,78.3695118 45.5438926,75.6536331 43.3398176,73.7084121 C42.8821403,73.298926 42.3220992,73.0219116 41.7198792,72.8954522 C38.1248124,72.1366804 34.6441341,73.3350617 31.9341136,76.2677544 C27.1646377,81.4226362 25.2798484,91.3648767 25.869982,97.5252055 C20.0828803,100.891495 14.4584198,102.987179 14.39213,103.011228 C12.549427,103.691716 11.6039491,105.733119 12.2904342,107.575822 C12.9709224,109.418525 15.0123253,110.364003 16.8550283,109.68353 C17.1320427,109.581156 22.2988104,107.666161 28.0860663,104.450488 C29.5915545,107.160355 31.5847816,108.876644 34.0538464,109.569142 C34.8607939,109.79798 35.6737847,109.906372 36.4926953,109.906372 C41.9606809,109.906372 47.543055,105.179137 52.2696737,100.921634 C52.5225925,102.306691 53.0344579,103.619476 54.0040005,104.691367 C55.0939748,105.901788 56.5754291,106.588335 58.2855524,106.672662 C60.7606295,106.781058 62.6093448,105.480308 64.1147405,103.866444 C64.3435791,104.366269 64.6507014,104.841999 65.0601876,105.287636 C65.8370272,106.136732 67.2642472,107.124327 69.6247816,107.009938 C74.0268885,106.799168 83.8547405,102.607831 86.6366007,93.8820863 C87.2387898,92.0031552 86.203019,90.0039774 84.3301773,89.4078314 L84.3314491,89.4080164 Z M33.0601233,92.1179291 C33.5599486,88.0831449 34.9811408,83.4642857 37.1671634,81.097739 C37.9319476,80.2727235 38.5943679,79.929481 39.1725077,79.8150617 C39.2809039,80.1281963 39.3471429,80.5497379 39.3110134,81.1218345 C39.1122826,84.289409 36.2820308,88.7576516 33.0601912,92.1179291 L33.0601233,92.1179291 Z" id="Shape"></path>
                        <path d="M105.107914,113.466598 C105.595699,113.695437 106.101536,113.797801 106.60739,113.797801 C107.950283,113.797801 109.232929,113.039029 109.835242,111.738345 L131.803381,64.5261151 C132.628397,62.7436896 131.857579,60.6299692 130.075067,59.7988798 C128.292641,58.967852 126.172909,59.7386608 125.347831,61.5211819 L103.379692,108.739579 C102.554676,110.528171 103.325494,112.641737 105.108006,113.466814 L105.107914,113.466598 Z" id="Shape"></path>
                        <path d="M4.32379239,149.628469 L89.7035457,149.628469 C89.8059188,149.628469 89.8842086,149.580293 89.9865725,149.568248 C90.1672354,149.598358 90.3478983,149.628469 90.5285457,149.628469 C91.2391418,149.628469 91.9497379,149.417698 92.551927,148.996156 L114.188618,134.019589 C114.345185,133.911193 114.465632,133.772682 114.598119,133.646223 C114.682426,133.561916 114.778782,133.501696 114.851038,133.411372 C115.067821,133.158453 115.254512,132.875411 115.386999,132.574317 C115.386999,132.568295 115.393021,132.568295 115.393021,132.562272 L149.441325,57.7626829 C149.567786,57.58202 149.706299,57.4013571 149.802651,57.1906017 C149.862871,57.0520961 149.856848,56.9015473 149.899002,56.75702 L152.855837,50.2714085 C154.37338,46.8388289 154.469763,43.0149851 153.114783,39.5161156 C151.759835,36.011388 149.116119,33.2412441 145.677681,31.7236696 L140.179634,29.290833 C138.379017,28.4959409 136.470179,28.0924671 134.506921,28.0924671 C128.930559,28.0924671 123.872183,31.3804424 121.637908,36.4449851 L106.727476,69.2044918 L106.733497,23.9069584 C106.733497,23.8286732 106.691343,23.7624311 106.685322,23.6841475 C106.661234,23.3589573 106.601015,23.039795 106.492619,22.7326727 C106.450465,22.6182549 106.420355,22.503834 106.366158,22.3894147 C106.185495,22.0040087 105.956672,21.6426829 105.637494,21.3355761 L84.5002893,1.06630576 C84.193167,0.777251285 83.8438967,0.566480473 83.4765586,0.403885406 C83.3681624,0.355709661 83.2537477,0.325600206 83.1393284,0.289467626 C82.8502739,0.199137718 82.5612194,0.138918808 82.2601249,0.12084481 C82.1818397,0.114823227 82.1155976,0.0786906475 82.0433417,0.0786906475 L4.32391727,0.0786906475 C2.36081346,0.0786906475 0.76492446,1.66841316 0.76492446,3.63768345 L0.76492446,146.076018 C0.76492446,148.03311 2.36081346,149.628999 4.32391727,149.628999 L4.32379239,149.628469 Z M93.3587359,139.78258 L91.7087359,125.956064 L104.90889,131.785252 L93.3587359,139.78258 Z M128.14702,39.3596608 C129.646495,35.9633094 133.886023,34.2891059 137.312436,35.8066804 L142.804471,38.239517 C144.508736,38.992261 145.809404,40.3592497 146.477852,42.0935766 C147.146285,43.8218911 147.104137,45.7068345 146.363434,47.3748715 L144.683373,51.0602775 L126.478337,43.0088386 L128.14702,39.3596608 Z M123.534173,49.488592 L141.743834,57.527852 L110.381038,126.419938 L99.2223022,121.493988 L92.1706064,118.380678 L123.534173,49.488592 Z M85.5963515,11.9716341 L89.1914183,15.4162384 L94.3281089,20.3421891 L88.8240493,20.3421891 C87.0416238,20.3421891 85.5961973,18.8969168 85.5961973,17.1205036 L85.5963515,11.9716341 Z M7.88278212,7.19013361 L78.4848407,7.19013361 L78.4848407,17.1263618 C78.4848407,22.8231244 83.1217369,27.4660329 88.8245118,27.4660329 L99.6158787,27.4660329 L99.6219003,84.8375642 L84.2056619,118.705498 C84.1996403,118.71152 84.2056619,118.723565 84.1996403,118.735608 C84.0310175,119.108974 83.9527338,119.512448 83.9226259,119.927961 C83.9166043,120.036356 83.9166043,120.132705 83.9166043,120.241096 C83.9166043,120.361535 83.898538,120.488003 83.9105827,120.608434 L86.5240976,142.516451 L7.88278212,142.516451 L7.88278212,7.19013361 Z" id="Shape"></path>
                        <path d="M28.0390545,45.061665 L56.4080164,45.061665 C58.3711202,45.061665 59.9670092,43.4719424 59.9670092,41.5026721 C59.9670092,39.5395683 58.3772867,37.9436793 56.4080164,37.9436793 L28.0390545,37.9436793 C26.0759507,37.9436793 24.4800617,39.5334018 24.4800617,41.5026721 C24.4800617,43.465776 26.0697842,45.061665 28.0390545,45.061665 Z" id="Shape"></path>
                        <path d="M28.0390545,58.3412127 L38.7160329,58.3412127 C40.6791367,58.3412127 42.2750257,56.7514902 42.2750257,54.7822199 C42.2750257,52.8191161 40.6853032,51.2232271 38.7160329,51.2232271 L28.0390545,51.2232271 C26.0759507,51.2232271 24.4800617,52.8129496 24.4800617,54.7822199 C24.4800617,56.7514902 26.0697842,58.3412127 28.0390545,58.3412127 Z" id="Shape"></path>
                    </g>
                </g>
            </g>
        </g>
    </g>
</svg>