<?xml version="1.0" encoding="UTF-8"?>
<svg width="162px" height="150px" viewBox="0 0 162 150" version="1.1" xmlns="http://www.w3.org/2000/svg" xmlns:xlink="http://www.w3.org/1999/xlink">
    <!-- Generator: Sketch 51.3 (57544) - http://www.bohemiancoding.com/sketch -->
    <title>np_meeting_1480064_000000</title>
    <desc>Created with Sketch.</desc>
    <defs></defs>
    <g id="MAIN" stroke="none" stroke-width="1" fill="none" fill-rule="evenodd">
        <g id="FCE_LANDING" transform="translate(-299.000000, -5114.000000)" fill="#003359" fill-rule="nonzero">
            <g id="WellRow" transform="translate(200.000000, 5113.000000)">
                <g id="Well" transform="translate(0.000000, 1.000000)">
                    <g id="np_meeting_1480064_000000" transform="translate(99.000000, 0.000000)">
                        <path d="M161.155926,46.6070196 C159.63882,33.4655351 152.747814,21.2002301 142.256617,12.9683544 C132.007768,4.91754891 119.243959,1.35742232 105.838895,3.03642117 C96.5811853,4.38495397 88.6180667,7.73613349 82.1582278,12.9885501 C79.7105869,11.1410817 76.0291139,8.47094361 73.7837745,7.22364787 C66.1848677,3.0027618 57.6417722,0.770886076 49.0795167,0.770886076 C34.2388377,0.770886076 20.470771,7.2976985 11.3136939,18.6655926 C1.2198504,31.0855581 -1.65914845,46.2162255 2.75057537,63.6397008 C5.34649022,73.9356732 11.4486766,84.2513234 19.5398734,92.0810127 C19.5533596,96.7199655 21.5288838,101.190276 25.0284235,104.460587 C27.6176064,106.874396 30.8675489,108.411853 34.137687,108.809551 C34.6366398,112.416801 36.3762946,115.902877 38.8306674,118.16168 C41.2648446,120.568757 44.5821059,122.079114 48.1220368,122.436594 C48.674931,126.138262 50.5629459,129.927618 53.0779056,132.240449 C55.3501726,134.33061 59.4429804,136.83901 63.8863636,137.519965 C65.5248331,143.399482 68.4781933,146.777675 73.353107,148.409379 C74.2768585,148.719545 76.1782509,149.238728 78.5247411,149.238728 C82.2264097,149.238728 85.6449942,147.944137 88.4903337,145.415713 C88.7735213,145.132526 89.2927043,144.647054 89.9669793,144.013239 C95.1992002,139.111398 100.310247,134.047647 102.818475,129.819856 C104.342313,130.271617 106.001099,130.514344 107.619166,130.514344 C110.586024,130.514344 113.25599,129.705224 115.103458,128.275736 C118.717612,125.686554 120.686427,121.76912 120.679695,117.305368 C124.415196,117.258171 128.514735,115.653418 130.921812,113.286784 C133.551387,110.690869 135.041548,106.63172 134.886542,102.842365 C139.350121,102.687283 143.18004,101.04202 145.998452,98.06187 C149.990109,93.8544476 149.484356,88.6693498 148.924747,86.2082451 C158.364563,74.8738377 162.82141,60.4924799 161.155875,46.6092808 L161.155926,46.6070196 Z M58.1409666,90.2054085 C58.8556847,89.8210702 60.9459148,88.8164154 63.0968354,88.8164154 C64.4993096,88.8164154 65.6050633,89.2411968 66.4883199,90.117756 C69.2730725,92.8755811 68.8550058,96.6041772 68.4976985,98.2156847 L50.0903337,115.583924 C47.6224971,115.67832 45.2625432,114.808516 43.5971807,113.163383 C42.0463636,111.740679 40.9743383,109.164994 40.9203107,106.8387 L58.1409666,90.2054085 Z M42.8350978,76.3087457 C43.5498159,75.8097929 45.2760069,74.9534638 47.224626,74.9534638 C49.1732451,74.9534638 50.8724396,75.8097756 52.2749137,77.4887917 C55.2552359,81.0758458 53.8729229,84.285397 53.3469908,85.2294131 L35.9977388,101.984879 C33.8602819,102.018594 31.5476237,101.101588 29.7338147,99.40916 C27.6705811,97.4874684 26.497336,94.8713579 26.4569448,92.1608285 L42.8350978,76.3087457 Z M73.2372842,103.232796 C73.8104085,103.131656 74.6532394,103.030512 75.6241657,103.030512 C78.2943038,103.030512 80.2967779,103.799171 81.5711738,105.309511 C83.0141082,107.015403 83.169183,110.002491 82.8185731,112.396105 L65.2466513,130.701628 C62.5428539,130.38473 59.4411853,128.705886 57.7419908,127.141502 C56.1911738,125.712066 54.9639701,122.832929 54.8831876,120.547198 L73.2372842,103.232796 Z M70.4457998,135.254085 L88.1920598,116.779402 C88.6775316,116.516444 89.2371749,116.381582 89.8642405,116.381582 C92.0353567,116.381582 94.3008918,117.918901 95.1504891,118.95057 C96.8024396,120.973412 97.3485328,123.987394 97.4969793,125.03912 C97.1396203,126.353941 94.9752877,129.83981 85.2454833,138.955978 C84.4700748,139.677445 83.8767204,140.237089 83.7418757,140.385414 C82.2854603,141.673257 80.5323245,142.327301 78.5298504,142.327301 C77.1138953,142.327301 75.9675949,141.996904 75.5427963,141.848579 C73.3243843,141.106881 71.5915305,139.677463 70.4453855,135.254275 L70.4457998,135.254085 Z M86.5472382,77.4082854 C85.2661277,76.0934638 82.9938435,76.0597526 81.6655926,77.3476018 C80.3035788,78.6759045 80.2765995,80.8673372 81.6049091,82.2292474 L113.362101,114.775277 C114.130761,117.310605 113.901514,120.621135 110.961756,122.724932 C109.646934,123.743068 106.349731,123.823988 104.144955,122.947446 C103.720174,120.715571 102.735732,117.317354 100.49041,114.572993 C98.4137123,112.037665 94.3276364,109.475582 89.8640575,109.462119 C89.7561749,106.731394 89.061687,103.481451 86.8433441,100.851704 C84.2272336,97.7567675 80.350191,96.1183326 75.6437468,96.1183326 C75.684202,93.050496 74.9425098,88.7621185 71.3419056,85.2087238 C68.6313763,82.525122 65.0914453,81.4530276 61.0322969,82.0464684 C61.0120685,79.4505535 60.2434074,76.2679298 57.5800529,73.0787468 C54.1076133,68.9117158 50.0215374,68.035191 47.2098573,68.035191 C44.1081887,68.035191 40.8447825,69.1207664 38.4713648,70.9480219 C38.3634822,71.0289338 38.2623487,71.116588 38.1881772,71.1974983 L23.0846099,85.822412 C16.5105017,79.0392704 11.5680967,70.4288562 9.4375443,61.9605017 C5.5403061,46.5467503 7.90695742,33.8091784 16.672412,23.020916 C24.520916,13.2778205 36.3346674,7.68811968 49.0768999,7.68811968 C56.4667733,7.68811968 63.8500875,9.61654315 70.4238504,13.2643567 C72.1768999,14.2420495 75.0829988,16.3389252 77.0181542,17.7819632 L51.2143567,43.0541151 C50.7221358,43.4654154 46.42713,47.2211461 46.3865662,52.5814453 C46.3663377,55.8246559 47.8497307,58.7644143 50.8097537,61.313206 C54.6396732,64.6171761 59.3932405,66.3634937 64.5512382,66.3634937 C70.7545754,66.3634937 76.8969804,63.8214338 81.8469804,59.2028493 C85.4474983,55.851756 93.9567618,47.5245984 98.521664,43.0406513 L142.078626,87.3260368 C142.334852,88.2565201 142.941687,91.2434707 140.972838,93.3136087 C139.320887,95.0666582 137.028304,95.9499148 134.169501,95.9499148 C133.272728,95.9499148 132.463609,95.8555167 131.843206,95.7611116 L101.042285,64.690916 C99.7476939,63.3828435 97.4821588,63.3693625 96.1606398,64.6706876 C95.5065949,65.3179833 95.142504,66.1877934 95.1357549,67.1048648 C95.1290109,68.0286162 95.4863648,68.8984781 96.1336605,69.5525058 L127.412717,101.107742 C128.639886,103.103484 127.722884,106.731102 126.057435,108.369537 C125.039299,109.367442 122.679414,110.405843 120.48793,110.405843 C119.557446,110.405843 118.768557,110.210308 118.269518,109.88666 L86.5472382,77.4082854 Z M106.768757,9.88066743 C108.582566,9.65142117 110.423303,9.53678941 112.23038,9.53678941 C121.703855,9.53678941 130.610127,12.5978941 137.994476,18.3966283 C147.049885,25.5034177 152.996893,36.0824741 154.298216,47.416191 C155.66023,58.7842578 152.221519,70.651519 144.831473,80.2660184 L101.017319,35.7234407 C100.363274,35.0693959 99.5002129,34.7053049 98.5764097,34.6985558 L98.5629235,34.6985558 C97.6459212,34.6985558 96.7896784,35.0491657 96.1287463,35.7032106 C96.0141214,35.8178354 82.056882,49.5660414 77.1345,54.1450978 C73.4732227,57.5636824 69.002912,59.4448101 64.5458924,59.4448101 C61.0599891,59.4448101 57.8639016,58.2850633 55.3151099,56.0802532 C53.9665771,54.9137745 53.2855357,53.7606904 53.2855357,52.641473 C53.2922779,50.8884235 54.8498337,49.047687 55.8410593,48.1711623 L84.6517612,19.9732336 C90.4302998,14.5723705 97.8876646,11.1739816 106.766836,9.8793901 L106.768757,9.88066743 Z" id="Shape"></path>
                    </g>
                </g>
            </g>
        </g>
    </g>
</svg>