<?xml version="1.0" encoding="UTF-8"?>
<svg width="167px" height="150px" viewBox="0 0 167 150" version="1.1" xmlns="http://www.w3.org/2000/svg" xmlns:xlink="http://www.w3.org/1999/xlink">
    <!-- Generator: Sketch 51.3 (57544) - http://www.bohemiancoding.com/sketch -->
    <title>np_hammer_1342424_000000</title>
    <desc>Created with Sketch.</desc>
    <defs></defs>
    <g id="MAIN" stroke="none" stroke-width="1" fill="none" fill-rule="evenodd">
        <g id="FCE_LANDING" transform="translate(-1137.000000, -1615.000000)" fill="#003359" fill-rule="nonzero">
            <g id="SECTION_Main" transform="translate(0.000000, 1220.000000)">
                <g id="WellRow" transform="translate(200.000000, 395.000000)">
                    <g id="Well" transform="translate(840.000000, 0.000000)">
                        <g id="np_hammer_1342424_000000" transform="translate(97.000000, 0.000000)">
                            <path d="M162.226667,48.0866667 C160.175833,46.0163333 158.131667,43.946 156.048333,41.9343333 C154.928533,40.8536 153.860833,40.0528333 152.773667,39.5125 C148.802333,37.5073333 145.7555,38.4382833 143.756667,39.72735 C143.626458,39.655735 143.5223,39.59714 143.5223,39.59714 C144.231933,38.47084 144.661617,37.42264 144.8374,36.4069733 C145.384267,33.34714 144.4012,30.4434733 141.881733,27.75464 C140.748917,26.5437067 139.564067,25.3783067 138.379067,24.2129733 L137.513183,23.3601067 C136.028817,21.8952567 134.52485,20.44344 133.027517,18.9981067 C131.211183,17.2467733 129.394683,15.49544 127.62385,13.7181067 C108.29385,-5.61189333 78.5021833,1.34827333 72.1805167,4.10877333 C71.2820833,4.50590667 69.1921833,5.41737333 69.27685,7.56577333 C69.354975,9.71427333 71.0866833,10.78194 78.3980167,15.2936067 C83.4631833,18.4251067 89.7781833,22.33794 92.8120167,25.2611067 C92.8315483,25.2806383 92.85108,25.30017 92.87712,25.3197 C92.8641,25.3392317 92.85108,25.3522533 92.8380583,25.3652733 C89.9995583,28.7897733 88.3978917,33.93294 91.6140917,37.1556067 L93.1831083,38.7246233 L56.9781083,74.93629 C54.575775,72.74229 50.6499417,72.6771233 48.2411083,74.864675 C22.4344417,98.2313417 7.732775,112.456342 4.52444167,115.933008 C-0.866225,121.779342 -1.09405833,128.615342 3.925475,134.221342 C4.609075,134.976542 7.076475,137.515675 9.61564167,140.048175 C12.1481417,142.574175 14.6808083,145.054675 15.468475,145.764342 C18.1508083,148.166675 21.054475,149.384175 24.0948083,149.384175 C28.267975,149.384175 31.6403083,147.079508 33.7563083,145.139342 C36.666475,142.437508 51.0413083,127.677675 74.797975,101.427675 C76.9138083,99.0970083 76.9268083,95.6855083 75.1039583,93.2310083 L111.380625,56.947675 L112.213958,57.7810083 C112.279063,57.8396017 112.337657,57.898195 112.396258,57.9437683 C112.454852,58.0153833 112.513445,58.0739767 112.565525,58.1325683 C116.178858,61.7459017 121.465192,61.4204017 125.729525,57.5922017 C121.849358,62.1168683 122.018525,67.5597017 126.165725,71.7588683 C128.561558,74.1807017 130.963892,76.583035 133.392225,78.9788683 C135.501558,81.0622017 138.034225,82.0973683 140.560225,82.0973683 C143.118892,82.0973683 145.664392,81.042685 147.793225,78.9137017 C152.916892,73.816035 158.040558,68.6923683 163.144725,63.5687017 C167.383058,59.2978683 167.396058,53.3278683 163.164257,49.057035 L162.226667,48.0866667 Z M70.67,97.7083333 C47.03,123.828333 32.8183333,138.425 29.9733333,141.068333 C27.6361667,143.210333 23.1765,145.2155 19.166,141.634733 C18.4173,140.951133 15.9758333,138.5684 13.528,136.1139 C11.0735,133.672567 8.70383333,131.237567 8.03966667,130.5084 C6.89383333,129.22585 3.39766667,125.326067 8.58653333,119.701067 C11.2362,116.8234 25.3315333,103.0799 52.5832,78.7377333 C52.72643,78.7377333 53.0063833,78.770285 53.24075,79.0176833 L70.63075,96.4076833 C71.00835,96.76575 71.0213833,97.3321667 70.6698133,97.7097667 L70.67,97.7083333 Z M71.2819833,89.1796667 L60.9434833,78.8411667 L97.09015,42.6828333 L107.43515,53.0278333 L71.2819833,89.1796667 Z M159.231983,59.648 C154.134317,64.7716667 149.02365,69.8823333 143.899983,74.98 C141.83615,77.0308333 139.381817,77.0503333 137.317983,75.0125517 C134.90915,72.6427183 132.519817,70.246885 130.143483,67.8445517 C128.03415,65.6960517 127.968983,63.5282183 129.9677,61.190885 C132.044533,58.7690517 132.1552,55.591885 130.2216,53.4630517 C129.1539,52.297685 127.6761,51.7052183 126.1786,51.7052183 C124.83095,51.7052183 123.470267,52.186985 122.3896,53.157035 C121.282833,54.153135 118.496433,56.1973683 116.510767,54.192185 C116.445663,54.1335917 116.387068,54.0749967 116.321967,54.029425 C116.276393,53.95781 116.211288,53.8992167 116.159205,53.840625 L95.5475383,33.2289583 C95.1048383,32.7927583 95.56056,30.7744583 97.1100383,28.925625 C99.447205,26.106625 99.3170383,23.8149583 96.6738383,21.2627917 C93.2103383,17.9294583 86.6151717,13.8539583 81.3288383,10.572625 C80.085355,9.81090833 78.7246717,8.97105833 77.5201717,8.19629167 C86.3353383,5.81995833 108.756838,2.69495833 123.698505,17.6494583 C125.495338,19.4462917 127.337838,21.217125 129.180338,22.9944583 C130.664722,24.4267583 132.155672,25.8524583 133.620505,27.2977917 L134.486388,28.1571583 C135.625705,29.2769583 136.758555,30.3901583 137.839222,31.5491583 C139.492872,33.3134917 139.538388,34.485325 139.382188,35.422825 C139.349637,35.5986083 139.23896,35.982725 138.828805,36.6467917 C137.988955,37.981425 137.012472,40.6637917 139.883488,43.5347917 C142.676488,46.3212917 145.137322,45.5464583 146.738988,44.4136917 C147.481172,43.8863417 148.431655,43.5347917 150.293655,44.4592633 C150.860055,44.74573 151.478555,45.2144633 152.188155,45.91108 C154.251988,47.8967467 156.270155,49.94108 158.288488,51.9722467 L159.252022,52.9422967 C161.315855,55.05813 161.309355,57.55813 159.23249,59.6479633 L159.231983,59.648 Z" id="Shape"></path>
                        </g>
                    </g>
                </g>
            </g>
        </g>
    </g>
</svg>