<?xml version="1.0" encoding="UTF-8"?>
<svg width="36px" height="36px" viewBox="0 0 36 36" version="1.1" xmlns="http://www.w3.org/2000/svg" xmlns:xlink="http://www.w3.org/1999/xlink">
    <!-- Generator: Sketch 51.3 (57544) - http://www.bohemiancoding.com/sketch -->
    <title>np_checkmark_1379252_000000</title>
    <desc>Created with Sketch.</desc>
    <defs></defs>
    <g id="MAIN" stroke="none" stroke-width="1" fill="none" fill-rule="evenodd">
        <g id="FCE_LANDING" transform="translate(-200.000000, -3110.000000)" fill="#003359" fill-rule="nonzero">
            <g id="SECTION_Main" transform="translate(0.000000, 2642.000000)">
                <g id="Group-11" transform="translate(200.000000, 468.000000)">
                    <g id="Group-10">
                        <g id="np_checkmark_1379252_000000">
                            <path d="M34.4273684,10.8004737 L31.8276474,11.9421474 C33.7519895,16.3348105 33.4744579,21.3807789 31.0782789,25.5345158 C28.6821,29.6903368 24.4523842,32.4564632 19.6857,32.9912526 C14.9194895,33.5241474 10.1840684,31.7589158 6.92938421,28.2359368 C3.67280526,24.7147579 2.2869,19.8540947 3.19357895,15.1447263 C4.10025789,10.4356421 7.19213684,6.43698947 11.5237895,4.37598947 C15.8535474,2.31470526 20.907,2.43312632 25.1327368,4.69979526 L26.4779053,2.19443211 L26.4779053,2.19258189 C21.4596947,-0.497802316 15.4609579,-0.640286526 10.3172211,1.80586137 C5.17537895,4.252014 1.50243158,8.99828242 0.425273684,14.5896508 C-0.653447368,20.1814929 0.991468421,25.9523877 4.85497895,30.1359666 C8.71844211,34.3195456 14.3395579,36.4179666 20.0000842,35.7870193 C25.6601368,35.1560719 30.6821368,31.8717351 33.5294526,26.9404929 C36.3771,22.0075456 36.7101474,16.0163877 34.4268474,10.8001772 L34.4273684,10.8004737 Z" id="Shape"></path>
                            <polygon id="Shape" points="9.96584211 12.7563158 8.00081053 14.8120105 17.3987053 23.7973263 34.3997053 4.8888 32.2866474 2.98852105 17.2471737 19.7152579"></polygon>
                        </g>
                    </g>
                </g>
            </g>
        </g>
    </g>
</svg>