<?xml version="1.0" encoding="UTF-8"?>
<svg width="88px" height="150px" viewBox="0 0 88 150" version="1.1" xmlns="http://www.w3.org/2000/svg" xmlns:xlink="http://www.w3.org/1999/xlink">
    <!-- Generator: Sketch 51.3 (57544) - http://www.bohemiancoding.com/sketch -->
    <title>np_grow_1608473_000000</title>
    <desc>Created with Sketch.</desc>
    <defs></defs>
    <g id="MAIN" stroke="none" stroke-width="1" fill="none" fill-rule="evenodd">
        <g id="FCE_LANDING" transform="translate(-1176.000000, -5113.000000)" fill="#003359" fill-rule="nonzero">
            <g id="WellRow" transform="translate(200.000000, 5113.000000)">
                <g id="Well" transform="translate(840.000000, 0.000000)">
                    <g id="np_grow_1608473_000000" transform="translate(136.000000, 0.000000)">
                        <path d="M48.534375,113.585937 L48.534375,90.625 L51.244375,90.625 C71.1725,90.625 87.438125,74.365625 87.438125,54.43125 L87.438125,46.9360937 C87.438125,44.2260937 85.3629687,42.1509375 82.6529687,42.1509375 L75.1578125,42.1509375 C64.6353125,42.1509375 55.2296875,46.6126562 48.534375,53.7903125 L48.534375,36.8903125 C48.534375,16.9621875 32.26875,0.7028125 12.340625,0.7028125 L4.84546875,0.7028125 C2.13546875,0.7028125 0.0603125,2.77796875 0.0603125,5.48796875 L0.0603125,12.983125 C0.0603125,32.91125 16.3196875,49.176875 36.2540625,49.176875 L38.9640625,49.1707719 L38.9640625,89.1910844 C38.4879844,88.7150062 38.1645,88.2328344 37.6884219,87.9154437 C30.8342031,81.061225 21.9040469,77.3929437 12.3399844,77.5516937 L4.84482812,77.5516937 C2.13482812,77.5516937 0.059671875,79.62685 0.059671875,82.33685 L0.059671875,89.8320062 C0.059671875,109.760131 16.3190469,126.025756 36.2534219,126.025756 L38.9634219,126.019653 L38.9634219,139.892934 L12.3399844,139.892934 C9.62998437,139.892934 7.55482813,141.968091 7.55482813,144.678091 C7.55482813,147.388091 9.62998437,149.463247 12.3399844,149.463247 L75.1571719,149.463247 C77.8671719,149.463247 79.9423281,147.388091 79.9423281,144.678091 C79.9423281,141.968091 77.8671719,139.892934 75.1571719,139.892934 L48.5337344,139.892934 L48.534375,113.585937 Z" id="Shape"></path>
                    </g>
                </g>
            </g>
        </g>
    </g>
</svg>