<?xml version="1.0" encoding="UTF-8"?>
<svg width="174px" height="149px" viewBox="0 0 174 149" version="1.1" xmlns="http://www.w3.org/2000/svg" xmlns:xlink="http://www.w3.org/1999/xlink">
    <!-- Generator: Sketch 51.3 (57544) - http://www.bohemiancoding.com/sketch -->
    <title>np_land_498504_FFFFFF</title>
    <desc>Created with Sketch.</desc>
    <defs></defs>
    <g id="MAIN" stroke="none" stroke-width="1" fill="none" fill-rule="evenodd">
        <g id="FCE_LANDING" transform="translate(-293.000000, -1616.000000)" fill="#003359" fill-rule="nonzero">
            <g id="SECTION_Main" transform="translate(0.000000, 1220.000000)">
                <g id="WellRow" transform="translate(200.000000, 395.000000)">
                    <g id="Well">
                        <g id="np_land_498504_FFFFFF" transform="translate(93.000000, 0.000000)">
                            <polygon id="Shape" points="136.422222 88.2740741 111.725926 88.2740741 111.725926 94.4444444 132.927778 94.4444444 162.557407 143.82963 11.5166667 143.82963 41.1462963 94.4444444 93.2074074 94.4444444 93.2074074 88.2740741 37.6518519 88.2740741 0.614814815 150 173.459259 150"></polygon>
                            <path d="M105.555556,119.133333 L105.555556,69.3 C109.461852,73.3581481 114.901667,75.9261111 120.985185,75.9261111 C132.913704,75.9261111 142.592593,66.2544444 142.592593,54.3187037 C142.592593,42.6868519 133.383889,33.2761111 121.868519,32.8057407 C123.235704,29.9627778 124.074815,26.8161111 124.074815,23.4524074 C124.074815,11.5238889 114.403148,1.845 102.467407,1.845 C90.5388889,1.845 80.86,11.5166667 80.86,23.4524074 C80.86,26.8161111 81.6991296,29.9627778 83.0662963,32.8057407 C71.5574074,33.2759444 62.3422222,42.6942593 62.3422222,54.3187037 C62.3422222,66.2472222 72.0138889,75.9261111 83.9496296,75.9261111 C90.0333333,75.9261111 95.4731481,73.3653704 99.3792593,69.3 L99.3864944,119.133333 L105.555556,119.133333 Z M97.1644444,62.1388889 C94.3214815,66.9059259 89.3881481,69.7561111 83.9483333,69.7561111 C75.4340741,69.7561111 68.5187037,62.8333333 68.5187037,54.3264815 C68.5187037,46.0583333 75.0218519,39.3162963 83.3190741,38.9835185 L92.7085185,38.6001296 L88.6287037,30.1293889 C87.5725741,27.937537 87.0372593,25.6879074 87.0372593,23.4597593 C87.0372593,14.9455 93.960037,8.03012963 102.466889,8.03012963 C110.981148,8.03012963 117.896519,14.9529074 117.896519,23.4597593 C117.896519,25.6877222 117.361222,27.937537 116.305093,30.1293889 L112.225278,38.6001296 L121.614722,38.9835185 C129.919167,39.3235 136.415093,46.0653704 136.415093,54.3264815 C136.415093,62.8407407 129.492315,69.7561111 120.985463,69.7561111 C115.545648,69.7561111 110.61213,66.9059259 107.769352,62.1388889 L102.466944,53.2051852 L97.1644444,62.1388889 Z" id="Shape"></path>
                        </g>
                    </g>
                </g>
            </g>
        </g>
    </g>
</svg>