<?xml version="1.0" encoding="UTF-8"?>
<svg width="75px" height="75px" viewBox="0 0 75 75" version="1.1" xmlns="http://www.w3.org/2000/svg" xmlns:xlink="http://www.w3.org/1999/xlink">
    <!-- Generator: Sketch 51.3 (57544) - http://www.bohemiancoding.com/sketch -->
    <title>np_sign-post_1716963_FFFFFF</title>
    <desc>Created with Sketch.</desc>
    <defs></defs>
    <g id="MAIN" stroke="none" stroke-width="1" fill="none" fill-rule="evenodd">
        <g id="FCE_LANDING" transform="translate(-1031.000000, -1065.000000)" fill="#C1D59F" fill-rule="nonzero">
            <g id="Group-3" transform="translate(0.000000, 993.000000)">
                <g id="Group-7" transform="translate(800.000000, 0.000000)">
                    <g id="Group" transform="translate(222.000000, 72.000000)">
                        <g id="np_sign-post_1716963_FFFFFF" transform="translate(9.000000, 0.000000)">
                            <path d="M75,37.6995 C75,16.98975 58.20975,0.1995 37.5,0.1995 C16.79025,0.1995 0,16.98975 0,37.6995 C0,56.55525 13.91625,72.15525 32.03325,74.80125 L32.03325,13.18425 L42.96375,13.18425 L42.96375,17.14815 L61.1865,17.14815 L68.59275,24.071025 L61.1865,30.9939 L42.96675,30.9939 L42.96675,74.8014 C61.08375,72.155925 75,56.5524 75,37.69965 L75,37.6995 Z M29.124,47.133 L13.8105,47.133 L6.40425,40.210125 L13.8105,33.28725 L29.124,33.28725 L29.124,47.133 Z" id="Shape"></path>
                        </g>
                    </g>
                </g>
            </g>
        </g>
    </g>
</svg>