<?xml version="1.0" encoding="UTF-8"?>
<svg width="71px" height="56px" viewBox="0 0 71 56" version="1.1" xmlns="http://www.w3.org/2000/svg" xmlns:xlink="http://www.w3.org/1999/xlink">
    <!-- Generator: Sketch 51.3 (57544) - http://www.bohemiancoding.com/sketch -->
    <title>np_thought-bubble_755849_000000</title>
    <desc>Created with Sketch.</desc>
    <defs></defs>
    <g id="MAIN" stroke="none" stroke-width="1" fill="none" fill-rule="evenodd">
        <g id="FCE_LANDING" transform="translate(-345.000000, -3696.000000)" fill="#C1D59F" fill-rule="nonzero">
            <g id="SECTION_Main" transform="translate(0.000000, 2642.000000)">
                <g id="TestimonialRow" transform="translate(200.000000, 1054.000000)">
                    <g id="Group-12">
                        <g id="np_thought-bubble_755849_000000" transform="translate(145.000000, 0.000000)">
                            <path d="M70.91,23.809 C70.91,36.739 55.148,47.231 35.699,47.231 C28.9646,47.273969 22.297,45.9107 16.121,43.231 C15.44522,43.68412 14.6952,44.02006 13.9101,44.231 C10.6601,45.10209 7.4609,43.69975 6.7695,41.1021 C6.47653,39.9263 6.691375,38.6802 7.35934,37.6724 C3.05074,33.8208 0.49994,29.0005 0.49994,23.8094 C0.49994,10.8794 16.26194,0.3874 35.71094,0.3874 C55.15994,0.391306 70.90994,10.8794 70.90994,23.8094 L70.91,23.809 Z M20.39,48.321 C20.39,46.8601 18.5697,45.6804 16.3197,45.6804 C14.0697,45.6804 12.2494,46.8601 12.2494,48.321 C12.2494,49.7819 14.0697,51.0007 16.3197,51.0007 C18.5697,51.0007 20.39,49.7819 20.39,48.321 Z M20.39,51.4616 C18.7806,51.4616 17.4681,52.39129 17.4681,53.5319 C17.4681,54.67251 18.7767,55.6022 20.39,55.6022 C21.9994,55.6022 23.3119,54.67251 23.3119,53.5319 C23.307994,52.3913 21.9994,51.4616 20.4096,51.4616 L20.39,51.4616 Z" id="Shape"></path>
                        </g>
                    </g>
                </g>
            </g>
        </g>
    </g>
</svg>