<?xml version="1.0" encoding="UTF-8"?>
<svg width="317px" height="84px" viewBox="0 0 317 84" version="1.1" xmlns="http://www.w3.org/2000/svg" xmlns:xlink="http://www.w3.org/1999/xlink">
    <!-- Generator: Sketch 51.3 (57544) - http://www.bohemiancoding.com/sketch -->
    <title>Farm Credit Express - Green &amp; Black</title>
    <desc>Created with Sketch.</desc>
    <defs>
        <polygon id="path-1" points="0.528 0.722 121.345 0.722 121.345 26.94 0.528 26.94"></polygon>
    </defs>
    <g id="Farm-Credit-Express---Green-&amp;-Black" stroke="none" stroke-width="1" fill="none" fill-rule="evenodd">
        <path d="M78.825,36.46 C78.825,40.084 78.825,42.907 79.012,44.491 C79.132,45.589 79.353,46.417 80.485,46.565 C81.01,46.645 81.84,46.722 82.37,46.722 C82.859,46.722 83.012,46.832 83.012,47.023 C83.012,47.285 82.751,47.396 82.182,47.396 C79.807,47.396 77.433,47.285 76.448,47.285 C75.471,47.285 73.093,47.396 71.661,47.396 C71.135,47.396 70.868,47.322 70.868,47.023 C70.868,46.832 71.02,46.722 71.434,46.722 C72.004,46.722 72.455,46.645 72.793,46.565 C73.547,46.417 73.737,45.589 73.888,44.491 C74.077,42.907 74.077,40.084 74.077,36.46 L74.077,29.825 C74.077,24.094 74.077,23.039 74.003,21.834 C73.924,20.552 73.621,19.949 72.376,19.684 C72.076,19.608 71.434,19.57 70.906,19.57 C70.529,19.57 70.266,19.495 70.266,19.273 C70.266,18.965 70.569,18.895 71.135,18.895 C72.115,18.895 73.207,18.93 74.186,18.93 C75.17,18.965 76.038,19.004 76.562,19.004 C77.995,19.004 85.65,19.004 86.517,18.965 C87.233,18.93 87.687,18.93 88.061,18.817 C88.292,18.74 88.476,18.588 88.67,18.588 C88.819,18.588 88.929,18.74 88.929,18.93 C88.929,19.191 88.742,19.645 88.629,20.625 C88.594,21.003 88.516,23.228 88.442,23.679 C88.403,23.98 88.327,24.21 88.061,24.21 C87.801,24.21 87.724,24.021 87.687,23.603 C87.687,23.303 87.687,22.701 87.459,22.171 C87.197,21.647 86.405,21.079 84.971,21.042 L79.165,20.927 C78.937,20.927 78.825,21.042 78.825,21.456 L78.825,30.882 C78.825,31.105 78.864,31.222 79.088,31.222 L83.915,31.184 C84.559,31.184 85.085,31.184 85.615,31.148 C86.332,31.105 86.856,30.957 87.233,30.468 C87.425,30.24 87.497,30.09 87.724,30.09 C87.874,30.09 87.952,30.201 87.952,30.43 C87.952,30.656 87.764,31.596 87.647,32.767 C87.574,33.523 87.497,35.253 87.497,35.52 C87.497,35.857 87.497,36.234 87.118,36.234 C86.895,36.234 86.822,35.974 86.822,35.711 C86.822,35.442 86.748,34.989 86.595,34.538 C86.405,34.012 85.841,33.337 84.671,33.182 C83.728,33.073 79.729,33.073 79.088,33.073 C78.9,33.073 78.825,33.139 78.825,33.413 L78.825,36.46" id="Fill-1" fill="#1A1919"></path>
        <path d="M100.771,37.554 C100.921,37.554 100.96,37.479 100.921,37.365 L97.79,29.225 C97.754,29.109 97.713,28.921 97.643,28.921 C97.527,28.921 97.491,29.109 97.454,29.225 L94.246,37.329 C94.171,37.479 94.246,37.554 94.359,37.554 L100.771,37.554 Z M93.683,39.329 C93.495,39.329 93.459,39.366 93.382,39.554 L91.606,43.852 C91.267,44.646 91.119,45.436 91.119,45.813 C91.119,46.377 91.419,46.721 92.438,46.721 L92.93,46.721 C93.342,46.721 93.417,46.869 93.417,47.061 C93.417,47.323 93.231,47.396 92.892,47.396 C91.794,47.396 90.25,47.285 89.197,47.285 C88.856,47.285 87.088,47.396 85.348,47.396 C84.936,47.396 84.747,47.323 84.747,47.061 C84.747,46.869 84.858,46.721 85.125,46.721 C85.423,46.721 85.801,46.684 86.103,46.684 C87.613,46.452 88.177,45.473 88.856,43.852 L97.527,23.679 C97.905,22.773 98.167,22.401 98.507,22.401 C98.999,22.401 99.152,22.701 99.495,23.414 C100.279,25.192 105.822,38.308 107.933,43.174 C109.216,46.08 110.163,46.493 110.763,46.604 C111.251,46.684 111.629,46.721 112.008,46.721 C112.307,46.721 112.459,46.832 112.459,47.061 C112.459,47.323 112.269,47.396 111.024,47.396 C109.856,47.396 107.444,47.396 104.654,47.323 C104.049,47.285 103.676,47.285 103.676,47.061 C103.676,46.869 103.75,46.754 104.087,46.721 C104.312,46.684 104.542,46.377 104.39,46.001 L101.828,39.554 C101.751,39.366 101.639,39.329 101.485,39.329 L93.683,39.329 Z" id="Fill-2" fill="#1A1919"></path>
        <path d="M119.549,34.918 C119.549,35.253 119.625,35.367 119.851,35.482 C120.566,35.711 121.549,35.784 122.374,35.784 C123.695,35.784 124.149,35.674 124.716,35.253 C125.731,34.538 126.864,33.139 126.864,30.505 C126.864,25.979 123.772,24.812 121.813,24.812 C120.985,24.812 120.189,24.849 119.851,24.922 C119.625,25 119.549,25.114 119.549,25.379 L119.549,34.918 Z M115.323,32.426 C115.323,27.565 115.323,26.659 115.289,25.643 C115.212,24.548 114.911,24.21 113.857,23.909 C113.594,23.832 113.026,23.791 112.536,23.791 C112.195,23.791 111.969,23.679 111.969,23.453 C111.969,23.228 112.234,23.154 112.725,23.154 C114.458,23.154 116.57,23.228 117.25,23.228 C118.379,23.228 121.399,23.154 122.415,23.154 C124.525,23.154 126.938,23.341 128.707,24.509 C129.653,25.148 131.05,26.773 131.05,28.921 C131.05,31.296 129.691,33.413 126.449,36.01 C129.39,39.629 131.726,42.531 133.724,44.533 C135.572,46.377 136.743,46.531 137.268,46.645 C137.611,46.722 137.8,46.722 138.065,46.722 C138.326,46.722 138.478,46.908 138.478,47.061 C138.478,47.322 138.253,47.396 137.838,47.396 L134.667,47.396 C132.82,47.396 131.916,47.208 131.05,46.754 C129.618,46.039 128.373,44.533 126.524,42.044 C125.203,40.306 123.807,38.159 123.395,37.668 C123.205,37.479 123.019,37.44 122.789,37.44 L119.811,37.364 C119.66,37.364 119.549,37.44 119.549,37.63 L119.549,38.084 C119.549,41.061 119.586,43.55 119.739,44.906 C119.851,45.853 120,46.453 121.017,46.604 C121.51,46.685 122.227,46.722 122.639,46.722 C122.904,46.722 123.057,46.908 123.057,47.061 C123.057,47.285 122.789,47.396 122.374,47.396 C120.454,47.396 117.701,47.285 117.21,47.285 C116.57,47.285 114.458,47.396 113.138,47.396 C112.725,47.396 112.499,47.285 112.499,47.061 C112.499,46.908 112.611,46.722 113.026,46.722 C113.517,46.722 113.894,46.685 114.195,46.604 C114.872,46.453 115.062,45.853 115.172,44.906 C115.323,43.55 115.323,41.023 115.323,38.084 L115.323,32.426 Z" id="Fill-3" fill="#1A1919"></path>
        <path d="M142.435,23.266 C142.513,22.734 142.814,22.438 143.078,22.438 C143.415,22.438 143.644,22.585 144.093,23.453 L152.996,41.326 L161.893,23.228 C162.157,22.702 162.455,22.438 162.761,22.438 C163.024,22.438 163.402,22.773 163.511,23.453 L166.53,43.249 C166.835,45.247 167.13,46.118 168.151,46.416 C169.095,46.684 169.621,46.721 170.033,46.721 C170.335,46.721 170.563,46.832 170.563,47.021 C170.563,47.286 170.188,47.396 169.696,47.396 C168.868,47.396 164.155,47.247 162.833,47.169 C162.046,47.133 161.853,46.983 161.853,46.793 C161.853,46.645 162.006,46.531 162.23,46.452 C162.418,46.377 162.495,46.001 162.384,45.097 L160.534,31.222 L160.422,31.222 L153.295,45.551 C152.54,47.061 152.353,47.361 151.975,47.361 C151.561,47.361 151.181,46.721 150.657,45.739 C149.863,44.267 147.225,39.366 146.847,38.46 C146.584,37.859 144.623,33.822 143.529,31.596 L143.415,31.596 L141.831,44.119 C141.757,44.68 141.721,45.097 141.721,45.623 C141.721,46.228 142.174,46.452 142.736,46.565 C143.303,46.684 143.602,46.721 143.907,46.721 C144.212,46.721 144.436,46.869 144.436,47.021 C144.436,47.323 144.133,47.396 143.644,47.396 C142.248,47.396 140.74,47.286 140.136,47.286 C139.493,47.286 137.913,47.396 136.855,47.396 C136.519,47.396 136.254,47.323 136.254,47.021 C136.254,46.869 136.44,46.721 136.781,46.721 C137.043,46.721 137.268,46.721 137.799,46.645 C138.704,46.531 139.007,45.247 139.154,44.191 L142.435,23.266" id="Fill-4" fill="#1A1919"></path>
        <path d="M188.629,43.816 C184.93,40.572 183.951,36.352 183.951,32.692 C183.951,30.128 184.744,25.676 188.362,22.362 C191.078,19.874 194.664,18.361 200.275,18.361 C202.617,18.361 204.012,18.515 205.746,18.74 C207.178,18.929 208.386,19.272 209.518,19.381 C209.933,19.419 210.078,19.608 210.078,19.835 C210.078,20.138 209.972,20.589 209.894,21.907 C209.817,23.154 209.852,25.226 209.777,25.979 C209.747,26.544 209.671,26.846 209.329,26.846 C209.023,26.846 208.946,26.544 208.946,26.02 C208.916,24.849 208.42,23.527 207.477,22.548 C206.239,21.228 203.294,20.21 199.828,20.21 C196.546,20.21 194.395,21.042 192.739,22.548 C189.984,25.074 189.267,28.659 189.267,32.312 C189.267,41.292 196.097,45.738 201.144,45.738 C204.5,45.738 206.54,45.362 208.043,43.627 C208.686,42.907 209.179,41.817 209.329,41.137 C209.441,40.534 209.518,40.382 209.817,40.382 C210.078,40.382 210.155,40.648 210.155,40.949 C210.155,41.403 209.704,44.68 209.329,45.962 C209.138,46.604 208.991,46.794 208.347,47.061 C206.841,47.664 203.975,47.924 201.562,47.924 C196.395,47.924 192.06,46.794 188.629,43.816" id="Fill-5" fill="#1A1919"></path>
        <path d="M219.436,34.918 C219.436,35.253 219.51,35.367 219.736,35.482 C220.451,35.711 221.433,35.784 222.26,35.784 C223.582,35.784 224.032,35.674 224.6,35.253 C225.618,34.538 226.748,33.139 226.748,30.505 C226.748,25.979 223.655,24.812 221.696,24.812 C220.869,24.812 220.074,24.849 219.736,24.922 C219.51,25 219.436,25.114 219.436,25.379 L219.436,34.918 Z M215.213,32.426 C215.213,27.565 215.213,26.659 215.171,25.643 C215.096,24.548 214.797,24.21 213.736,23.909 C213.476,23.832 212.909,23.791 212.417,23.791 C212.077,23.791 211.857,23.679 211.857,23.453 C211.857,23.228 212.118,23.154 212.608,23.154 C214.341,23.154 216.451,23.228 217.133,23.228 C218.265,23.228 221.279,23.154 222.301,23.154 C224.406,23.154 226.827,23.341 228.595,24.509 C229.538,25.148 230.932,26.773 230.932,28.921 C230.932,31.296 229.575,33.413 226.332,36.01 C229.272,39.629 231.614,42.531 233.61,44.533 C235.454,46.377 236.628,46.531 237.155,46.645 C237.494,46.722 237.686,46.722 237.948,46.722 C238.21,46.722 238.361,46.908 238.361,47.061 C238.361,47.322 238.138,47.396 237.723,47.396 L234.555,47.396 C232.707,47.396 231.798,47.208 230.932,46.754 C229.5,46.039 228.26,44.533 226.407,42.044 C225.087,40.306 223.698,38.159 223.282,37.668 C223.09,37.479 222.901,37.44 222.675,37.44 L219.694,37.364 C219.544,37.364 219.436,37.44 219.436,37.63 L219.436,38.084 C219.436,41.061 219.473,43.55 219.623,44.906 C219.736,45.853 219.887,46.453 220.901,46.604 C221.395,46.685 222.111,46.722 222.527,46.722 C222.794,46.722 222.938,46.908 222.938,47.061 C222.938,47.285 222.675,47.396 222.26,47.396 C220.342,47.396 217.587,47.285 217.095,47.285 C216.451,47.285 214.341,47.396 213.026,47.396 C212.608,47.396 212.383,47.285 212.383,47.061 C212.383,46.908 212.497,46.722 212.909,46.722 C213.397,46.722 213.778,46.685 214.08,46.604 C214.756,46.453 214.946,45.853 215.061,44.906 C215.213,43.55 215.213,41.023 215.213,38.084 L215.213,32.426 Z" id="Fill-6" fill="#1A1919"></path>
        <path d="M238.814,32.426 C238.814,27.566 238.814,26.659 238.78,25.643 C238.703,24.548 238.401,24.21 237.345,23.909 C237.083,23.832 236.516,23.791 236.029,23.791 C235.686,23.791 235.461,23.679 235.461,23.453 C235.461,23.228 235.722,23.155 236.211,23.155 C237.953,23.155 240.061,23.228 241.002,23.228 C242.059,23.228 249.411,23.266 250.051,23.228 C250.654,23.19 251.181,23.078 251.445,23.039 C251.636,23.001 251.825,22.889 251.972,22.889 C252.161,22.889 252.2,23.039 252.2,23.19 C252.2,23.415 252.012,23.791 251.935,25.265 C251.9,25.605 251.825,26.998 251.748,27.375 C251.711,27.527 251.636,27.902 251.371,27.902 C251.147,27.902 251.104,27.753 251.104,27.489 C251.104,27.262 251.069,26.697 250.882,26.321 C250.616,25.754 250.355,25.303 248.693,25.149 C248.125,25.074 244.17,25 243.488,25 C243.344,25 243.267,25.114 243.267,25.303 L243.267,33.216 C243.267,33.413 243.302,33.558 243.488,33.558 C244.247,33.558 248.542,33.558 249.297,33.482 C250.086,33.413 250.581,33.337 250.882,32.994 C251.147,32.767 251.259,32.58 251.41,32.58 C251.562,32.58 251.671,32.732 251.671,32.918 C251.671,33.103 251.599,33.633 251.41,35.253 C251.334,35.899 251.259,37.181 251.259,37.405 C251.259,37.668 251.22,38.119 250.916,38.119 C250.692,38.119 250.616,38.007 250.616,37.86 C250.581,37.517 250.581,37.105 250.501,36.688 C250.311,36.044 249.9,35.558 248.655,35.443 C248.051,35.367 244.284,35.29 243.452,35.29 C243.302,35.29 243.267,35.443 243.267,35.63 L243.267,38.199 C243.267,39.288 243.224,42.005 243.267,42.946 C243.344,45.132 244.356,45.623 247.756,45.623 C248.619,45.623 250.013,45.589 250.882,45.212 C251.711,44.834 252.086,44.153 252.314,42.835 C252.388,42.493 252.465,42.344 252.69,42.344 C252.956,42.344 252.992,42.758 252.992,43.1 C252.992,43.816 252.729,46.001 252.542,46.645 C252.314,47.477 252.012,47.477 250.768,47.477 C248.278,47.477 246.278,47.434 244.662,47.361 C243.036,47.322 241.793,47.285 240.813,47.285 C240.438,47.285 239.719,47.322 238.929,47.322 C238.138,47.361 237.308,47.396 236.631,47.396 C236.211,47.396 235.985,47.285 235.985,47.061 C235.985,46.907 236.099,46.721 236.516,46.721 C237.005,46.721 237.383,46.684 237.686,46.604 C238.361,46.452 238.553,45.852 238.664,44.906 C238.814,43.55 238.814,41.024 238.814,38.084 L238.814,32.426" id="Fill-7" fill="#1A1919"></path>
        <path d="M261.799,35.974 C261.799,39.366 261.836,41.817 261.876,42.457 C261.911,43.249 261.986,44.381 262.249,44.721 C262.669,45.322 263.983,46.001 266.59,46.001 C269.606,46.001 271.827,45.473 273.828,43.816 C275.976,42.044 276.654,39.176 276.654,35.857 C276.654,31.787 275.031,29.148 273.562,27.866 C270.509,25.148 266.892,24.812 264.288,24.812 C263.605,24.812 262.517,24.887 262.249,25.039 C261.949,25.148 261.836,25.303 261.836,25.677 C261.799,26.773 261.799,29.413 261.799,31.939 L261.799,35.974 Z M257.35,32.426 C257.35,27.565 257.35,26.66 257.314,25.643 C257.236,24.548 256.933,24.209 255.883,23.91 C255.615,23.832 255.052,23.79 254.56,23.79 C254.219,23.79 253.994,23.679 253.994,23.453 C253.994,23.228 254.26,23.155 254.749,23.155 C256.483,23.155 258.591,23.228 259.541,23.228 C260.553,23.228 262.931,23.155 264.928,23.155 C269.074,23.155 274.654,23.155 278.277,26.811 C279.934,28.467 281.407,31.148 281.407,34.956 C281.407,38.988 279.666,42.044 277.785,43.891 C276.277,45.4 272.768,47.663 266.66,47.663 C265.454,47.663 264.025,47.548 262.704,47.477 C261.386,47.361 260.174,47.286 259.351,47.286 C258.968,47.286 258.253,47.323 257.463,47.323 C256.668,47.361 255.843,47.396 255.159,47.396 C254.749,47.396 254.519,47.286 254.519,47.061 C254.519,46.909 254.634,46.721 255.052,46.721 C255.542,46.721 255.913,46.684 256.218,46.604 C256.894,46.452 257.088,45.852 257.198,44.906 C257.35,43.55 257.35,41.023 257.35,38.083 L257.35,32.426 Z" id="Fill-8" fill="#1A1919"></path>
        <path d="M284.535,32.426 C284.535,27.566 284.535,26.659 284.496,25.643 C284.423,24.548 284.084,24.171 283.363,23.947 C282.992,23.832 282.573,23.791 282.163,23.791 C281.82,23.791 281.637,23.718 281.637,23.415 C281.637,23.228 281.895,23.155 282.426,23.155 C283.671,23.155 285.93,23.228 286.874,23.228 C287.7,23.228 289.855,23.155 291.134,23.155 C291.549,23.155 291.812,23.228 291.812,23.415 C291.812,23.718 291.624,23.791 291.285,23.791 C290.943,23.791 290.684,23.832 290.304,23.909 C289.4,24.057 289.132,24.509 289.061,25.643 C288.986,26.659 288.986,27.566 288.986,32.426 L288.986,38.084 C288.986,41.175 288.986,43.74 289.132,45.097 C289.25,45.963 289.473,46.452 290.456,46.604 C290.91,46.684 291.659,46.721 292.15,46.721 C292.529,46.721 292.682,46.907 292.682,47.061 C292.682,47.285 292.415,47.396 292.041,47.396 C289.855,47.396 287.59,47.285 286.686,47.285 C285.93,47.285 283.671,47.396 282.348,47.396 C281.935,47.396 281.708,47.285 281.708,47.061 C281.708,46.907 281.82,46.721 282.235,46.721 C282.726,46.721 283.103,46.684 283.404,46.604 C284.084,46.452 284.271,46.001 284.387,45.06 C284.535,43.74 284.535,41.175 284.535,38.084 L284.535,32.426" id="Fill-9" fill="#1A1919"></path>
        <path d="M302.788,25.114 L297.845,25.225 C295.922,25.264 295.132,25.49 294.639,26.206 C294.303,26.659 294.149,27.074 294.077,27.298 C294.003,27.565 293.924,27.716 293.697,27.716 C293.471,27.716 293.394,27.526 293.394,27.189 C293.394,26.659 294.036,23.57 294.113,23.302 C294.189,22.888 294.303,22.701 294.49,22.701 C294.757,22.701 295.094,22.962 295.922,23.078 C296.905,23.189 298.147,23.228 299.237,23.228 L312.7,23.228 C313.761,23.228 314.474,23.154 314.961,23.078 C315.491,23.002 315.757,22.927 315.869,22.927 C316.095,22.927 316.132,23.116 316.132,23.603 C316.132,24.285 316.057,26.659 316.057,27.489 C316.023,27.826 315.947,28.019 315.757,28.019 C315.491,28.019 315.417,27.865 315.379,27.376 L315.34,27.035 C315.266,26.206 314.398,25.225 311.422,25.191 L307.233,25.114 L307.233,38.084 C307.233,41.023 307.273,43.551 307.42,44.946 C307.534,45.852 307.725,46.453 308.708,46.604 C309.158,46.683 309.912,46.72 310.401,46.72 C310.775,46.72 310.931,46.908 310.931,47.061 C310.931,47.285 310.67,47.396 310.289,47.396 C308.1,47.396 305.876,47.285 304.934,47.285 C304.182,47.285 301.92,47.396 300.598,47.396 C300.184,47.396 299.956,47.285 299.956,47.061 C299.956,46.908 300.076,46.72 300.482,46.72 C300.976,46.72 301.392,46.683 301.652,46.604 C302.33,46.453 302.52,45.852 302.636,44.906 C302.788,43.551 302.788,41.023 302.788,38.084 L302.788,25.114" id="Fill-10" fill="#1A1919"></path>
        <path d="M41.479,61.884 C41.818,61.884 42.125,61.865 42.125,61.449 C42.125,61.123 41.824,61.053 41.546,61.053 L40.994,61.053 L40.994,61.884 L41.479,61.884 Z M40.994,63.382 L40.585,63.382 L40.585,60.714 L41.607,60.714 C42.235,60.714 42.551,60.952 42.551,61.475 C42.551,61.952 42.249,62.161 41.858,62.21 L42.616,63.382 L42.161,63.382 L41.457,62.231 L40.994,62.231 L40.994,63.382 Z M41.479,63.978 C42.532,63.978 43.354,63.155 43.354,62.046 C43.354,60.952 42.532,60.122 41.479,60.122 C40.423,60.122 39.6,60.952 39.6,62.046 C39.6,63.155 40.423,63.978 41.479,63.978 Z M39.134,62.046 C39.134,60.714 40.211,59.742 41.479,59.742 C42.74,59.742 43.821,60.714 43.821,62.046 C43.821,63.382 42.74,64.361 41.479,64.361 C40.211,64.361 39.134,63.382 39.134,62.046 Z" id="Fill-11" fill="#4F8835"></path>
        <path d="M33.508,49.412 L41.235,56.923 C40.489,57.68 39.718,58.464 38.961,59.241 L33.18,53.367 L33.508,49.412" id="Fill-12" fill="#4F8835"></path>
        <path d="M31.84,49.412 L24.106,56.923 C24.864,57.68 25.635,58.464 26.389,59.241 L32.167,53.367 L31.84,49.412" id="Fill-13" fill="#4F8835"></path>
        <path d="M32.653,61.663 L32.164,55.321 L27.395,60.277 C30.282,63.28 32.696,65.897 32.696,65.897 L38.063,60.272 L33.086,55.338 L32.653,61.663" id="Fill-14" fill="#4F8835"></path>
        <path d="M33.766,43.016 L44.566,53.457 C44.229,54.019 42.993,55.29 42.251,55.92 L33.516,46.878 L33.766,43.016" id="Fill-15" fill="#4F8835"></path>
        <path d="M31.382,43.016 L20.584,53.457 C20.921,54.019 22.155,55.29 22.892,55.92 L31.628,46.878 L31.382,43.016" id="Fill-16" fill="#4F8835"></path>
        <path d="M34.297,35.749 L43.738,44.94 C43.738,44.94 46.6,48.492 45.346,52.087 L34.015,40.363 L34.297,35.749" id="Fill-17" fill="#4F8835"></path>
        <path d="M31.099,35.749 L21.658,44.788 C21.658,44.788 18.802,48.338 20.053,51.94 L31.399,40.346 L31.099,35.749" id="Fill-18" fill="#4F8835"></path>
        <g id="Group-23" fill="#4F8835">
            <path d="M65.351,33.194 L54.754,22.465 C54.754,22.465 50.052,18.344 45.54,21.672 C41.035,25.005 35.358,31.606 35.358,31.606 L59.236,33.022 L35.359,34.776 L44.395,44.219 C44.395,44.219 49.829,48.609 54.061,44.158 C58.305,39.704 65.351,33.194 65.351,33.194" id="Fill-19"></path>
            <path d="M32.648,0.288 L21.92,10.887 C21.92,10.887 17.795,15.591 21.127,20.098 C24.454,24.607 31.057,30.286 31.057,30.286 L32.689,6.453 L34.232,30.284 L43.673,21.247 C43.673,21.247 48.06,15.816 43.605,11.582 C39.154,7.343 32.648,0.288 32.648,0.288" id="Fill-21"></path>
            <path d="M0,33.113 L10.596,43.849 C10.596,43.849 15.296,47.974 19.805,44.646 C24.312,41.314 30.002,34.71 30.002,34.71 L6.115,33.03 L29.998,31.54 L20.957,22.094 C20.957,22.094 15.526,17.711 11.287,22.164 C7.047,26.614 0,33.113 0,33.113" id="Fill-22"></path>
        </g>
        <path d="M78.83,36.422 C78.83,40.03 78.83,42.849 79.017,44.427 C79.132,45.513 79.355,46.34 80.483,46.493 C81.007,46.568 81.837,46.645 82.357,46.645 C82.85,46.645 82.999,46.754 82.999,46.944 C82.999,47.206 82.736,47.319 82.173,47.319 C79.808,47.319 77.437,47.206 76.464,47.206 C75.485,47.206 73.116,47.319 71.69,47.319 C71.161,47.319 70.899,47.242 70.899,46.944 C70.899,46.754 71.05,46.645 71.463,46.645 C72.027,46.645 72.478,46.568 72.816,46.493 C73.565,46.34 73.756,45.513 73.907,44.427 C74.093,42.849 74.093,40.03 74.093,36.422 L74.093,29.812 C74.093,24.099 74.093,23.045 74.018,21.843 C73.944,20.564 73.643,19.963 72.402,19.701 C72.104,19.627 71.463,19.588 70.937,19.588 C70.559,19.588 70.299,19.514 70.299,19.288 C70.299,18.987 70.6,18.911 71.161,18.911 C72.142,18.911 73.228,18.948 74.208,18.948 C75.184,18.987 76.046,19.026 76.572,19.026 C77.998,19.026 85.627,19.026 86.491,18.987 C87.209,18.948 87.658,18.948 88.033,18.836 C88.262,18.761 88.445,18.611 88.636,18.611 C88.786,18.611 88.898,18.761 88.898,18.948 C88.898,19.212 88.711,19.666 88.601,20.641 C88.559,21.015 88.483,23.234 88.412,23.685 C88.372,23.984 88.298,24.21 88.033,24.21 C87.768,24.21 87.696,24.022 87.658,23.61 C87.658,23.308 87.658,22.704 87.434,22.183 C87.169,21.654 86.381,21.091 84.951,21.055 L79.165,20.942 C78.94,20.942 78.83,21.055 78.83,21.469 L78.83,30.862 C78.83,31.086 78.864,31.197 79.094,31.197 L83.902,31.162 C84.54,31.162 85.067,31.162 85.595,31.123 C86.304,31.086 86.832,30.937 87.209,30.448 C87.394,30.223 87.473,30.07 87.696,30.07 C87.844,30.07 87.924,30.184 87.924,30.413 C87.924,30.638 87.736,31.576 87.619,32.74 C87.545,33.493 87.473,35.218 87.473,35.483 C87.473,35.819 87.473,36.195 87.095,36.195 C86.869,36.195 86.794,35.935 86.794,35.674 C86.794,35.405 86.717,34.956 86.571,34.505 C86.381,33.982 85.818,33.302 84.653,33.151 C83.713,33.04 79.729,33.04 79.094,33.04 C78.903,33.04 78.83,33.115 78.83,33.379 L78.83,36.422" id="Fill-24" fill="#1A1919"></path>
        <path d="M100.764,37.514 C100.914,37.514 100.952,37.438 100.914,37.322 L97.793,29.209 C97.755,29.094 97.723,28.908 97.646,28.908 C97.533,28.908 97.493,29.094 97.454,29.209 L94.264,37.287 C94.188,37.438 94.264,37.514 94.374,37.514 L100.764,37.514 Z M93.698,39.278 C93.511,39.278 93.475,39.316 93.4,39.502 L91.633,43.788 C91.294,44.576 91.145,45.365 91.145,45.742 C91.145,46.306 91.448,46.645 92.459,46.645 L92.946,46.645 C93.357,46.645 93.437,46.793 93.437,46.984 C93.437,47.243 93.247,47.321 92.91,47.321 C91.821,47.321 90.28,47.206 89.228,47.206 C88.889,47.206 87.124,47.321 85.394,47.321 C84.983,47.321 84.794,47.243 84.794,46.984 C84.794,46.793 84.909,46.645 85.169,46.645 C85.471,46.645 85.847,46.604 86.146,46.604 C87.649,46.377 88.211,45.402 88.889,43.788 L97.533,23.685 C97.909,22.785 98.167,22.407 98.508,22.407 C98.995,22.407 99.147,22.704 99.485,23.423 C100.273,25.19 105.797,38.263 107.903,43.109 C109.178,46.006 110.119,46.416 110.721,46.531 C111.207,46.604 111.586,46.645 111.959,46.645 C112.261,46.645 112.41,46.754 112.41,46.984 C112.41,47.243 112.225,47.321 110.983,47.321 C109.816,47.321 107.415,47.321 104.631,47.243 C104.033,47.206 103.656,47.206 103.656,46.984 C103.656,46.793 103.731,46.679 104.071,46.645 C104.291,46.604 104.52,46.306 104.373,45.928 L101.814,39.502 C101.743,39.316 101.625,39.278 101.478,39.278 L93.698,39.278 Z" id="Fill-25" fill="#1A1919"></path>
        <path d="M119.519,34.882 C119.519,35.218 119.599,35.333 119.825,35.443 C120.538,35.674 121.515,35.744 122.338,35.744 C123.656,35.744 124.109,35.633 124.669,35.218 C125.685,34.505 126.811,33.115 126.811,30.486 C126.811,25.976 123.732,24.812 121.775,24.812 C120.95,24.812 120.163,24.849 119.825,24.924 C119.599,25 119.519,25.111 119.519,25.374 L119.519,34.882 Z M115.311,32.403 C115.311,27.554 115.311,26.653 115.275,25.64 C115.203,24.548 114.898,24.21 113.851,23.909 C113.582,23.835 113.024,23.795 112.537,23.795 C112.194,23.795 111.969,23.685 111.969,23.459 C111.969,23.235 112.233,23.158 112.721,23.158 C114.451,23.158 116.555,23.235 117.228,23.235 C118.357,23.235 121.365,23.158 122.373,23.158 C124.481,23.158 126.888,23.347 128.65,24.514 C129.594,25.149 130.984,26.765 130.984,28.907 C130.984,31.273 129.63,33.379 126.399,35.973 C129.328,39.577 131.66,42.473 133.648,44.462 C135.494,46.306 136.654,46.452 137.184,46.568 C137.521,46.645 137.708,46.645 137.97,46.645 C138.235,46.645 138.385,46.832 138.385,46.984 C138.385,47.242 138.162,47.319 137.747,47.319 L134.588,47.319 C132.748,47.319 131.844,47.133 130.984,46.679 C129.555,45.967 128.316,44.462 126.475,41.981 C125.161,40.252 123.769,38.114 123.355,37.628 C123.168,37.439 122.979,37.398 122.75,37.398 L119.788,37.321 C119.635,37.321 119.519,37.398 119.519,37.586 L119.519,38.037 C119.519,41.006 119.56,43.485 119.706,44.841 C119.825,45.778 119.976,46.377 120.989,46.531 C121.475,46.604 122.191,46.645 122.603,46.645 C122.869,46.645 123.019,46.832 123.019,46.984 C123.019,47.206 122.75,47.319 122.338,47.319 C120.426,47.319 117.681,47.206 117.196,47.206 C116.555,47.206 114.451,47.319 113.137,47.319 C112.721,47.319 112.496,47.206 112.496,46.984 C112.496,46.832 112.607,46.645 113.024,46.645 C113.512,46.645 113.89,46.604 114.189,46.531 C114.862,46.377 115.052,45.778 115.165,44.841 C115.311,43.485 115.311,40.968 115.311,38.037 L115.311,32.403 Z" id="Fill-26" fill="#1A1919"></path>
        <path d="M142.475,23.271 C142.553,22.744 142.852,22.443 143.114,22.443 C143.453,22.443 143.677,22.595 144.128,23.459 L152.996,41.27 L161.862,23.234 C162.126,22.705 162.43,22.443 162.726,22.443 C162.992,22.443 163.367,22.785 163.48,23.459 L166.487,43.187 C166.788,45.178 167.087,46.043 168.101,46.34 C169.038,46.604 169.567,46.645 169.98,46.645 C170.283,46.645 170.502,46.753 170.502,46.945 C170.502,47.207 170.132,47.32 169.644,47.32 C168.815,47.32 164.118,47.169 162.804,47.096 C162.017,47.054 161.828,46.909 161.828,46.719 C161.828,46.567 161.975,46.453 162.199,46.377 C162.389,46.306 162.466,45.928 162.352,45.025 L160.512,31.197 L160.397,31.197 L153.295,45.479 C152.545,46.983 152.357,47.281 151.982,47.281 C151.566,47.281 151.196,46.645 150.665,45.666 C149.88,44.202 147.247,39.315 146.871,38.415 C146.61,37.813 144.655,33.792 143.564,31.577 L143.453,31.577 L141.873,44.048 C141.799,44.612 141.762,45.025 141.762,45.555 C141.762,46.155 142.212,46.377 142.775,46.494 C143.335,46.604 143.637,46.645 143.942,46.645 C144.239,46.645 144.467,46.793 144.467,46.945 C144.467,47.243 144.165,47.32 143.677,47.32 C142.286,47.32 140.784,47.207 140.185,47.207 C139.545,47.207 137.968,47.32 136.913,47.32 C136.576,47.32 136.315,47.243 136.315,46.945 C136.315,46.793 136.502,46.645 136.837,46.645 C137.103,46.645 137.33,46.645 137.852,46.567 C138.756,46.453 139.058,45.178 139.204,44.124 L142.475,23.271" id="Fill-27" fill="#1A1919"></path>
        <path d="M188.66,43.751 C184.978,40.521 183.996,36.31 183.996,32.665 C183.996,30.109 184.785,25.677 188.394,22.37 C191.101,19.888 194.666,18.39 200.268,18.39 C202.597,18.39 203.986,18.538 205.715,18.761 C207.144,18.948 208.347,19.288 209.475,19.4 C209.888,19.44 210.036,19.627 210.036,19.853 C210.036,20.149 209.923,20.603 209.85,21.919 C209.773,23.158 209.809,25.226 209.737,25.976 C209.699,26.541 209.622,26.839 209.284,26.839 C208.985,26.839 208.913,26.541 208.913,26.015 C208.873,24.849 208.386,23.535 207.443,22.56 C206.203,21.239 203.27,20.227 199.813,20.227 C196.546,20.227 194.404,21.055 192.751,22.56 C190.013,25.074 189.294,28.645 189.294,32.286 C189.294,41.23 196.097,45.666 201.13,45.666 C204.477,45.666 206.503,45.289 208.007,43.562 C208.646,42.849 209.133,41.758 209.284,41.08 C209.394,40.477 209.475,40.33 209.773,40.33 C210.036,40.33 210.112,40.592 210.112,40.891 C210.112,41.344 209.661,44.611 209.284,45.893 C209.093,46.531 208.945,46.719 208.311,46.982 C206.805,47.582 203.945,47.847 201.546,47.847 C196.395,47.847 192.075,46.719 188.66,43.751" id="Fill-28" fill="#1A1919"></path>
        <path d="M219.409,34.882 C219.409,35.218 219.483,35.333 219.711,35.443 C220.425,35.674 221.4,35.744 222.227,35.744 C223.544,35.744 223.99,35.633 224.559,35.218 C225.57,34.505 226.694,33.115 226.694,30.486 C226.694,25.976 223.618,24.812 221.659,24.812 C220.839,24.812 220.047,24.849 219.711,24.924 C219.483,25 219.409,25.111 219.409,25.374 L219.409,34.882 Z M215.199,32.403 C215.199,27.554 215.199,26.653 215.161,25.64 C215.087,24.548 214.791,24.21 213.733,23.909 C213.475,23.835 212.909,23.795 212.42,23.795 C212.082,23.795 211.857,23.685 211.857,23.459 C211.857,23.235 212.12,23.158 212.608,23.158 C214.333,23.158 216.442,23.235 217.115,23.235 C218.243,23.235 221.252,23.158 222.267,23.158 C224.368,23.158 226.772,23.347 228.543,24.514 C229.477,25.149 230.871,26.765 230.871,28.907 C230.871,31.273 229.518,33.379 226.28,35.973 C229.219,39.577 231.548,42.473 233.538,44.462 C235.376,46.306 236.541,46.452 237.067,46.568 C237.408,46.645 237.595,46.645 237.857,46.645 C238.123,46.645 238.272,46.832 238.272,46.984 C238.272,47.242 238.046,47.319 237.635,47.319 L234.473,47.319 C232.635,47.319 231.731,47.133 230.871,46.679 C229.441,45.967 228.201,44.462 226.361,41.981 C225.044,40.252 223.655,38.114 223.244,37.628 C223.054,37.439 222.866,37.398 222.638,37.398 L219.671,37.321 C219.521,37.321 219.409,37.398 219.409,37.586 L219.409,38.037 C219.409,41.006 219.446,43.485 219.596,44.841 C219.711,45.778 219.86,46.377 220.874,46.531 C221.36,46.604 222.077,46.645 222.49,46.645 C222.755,46.645 222.904,46.832 222.904,46.984 C222.904,47.206 222.638,47.319 222.227,47.319 C220.311,47.319 217.567,47.206 217.079,47.206 C216.442,47.206 214.333,47.319 213.02,47.319 C212.608,47.319 212.38,47.206 212.38,46.984 C212.38,46.832 212.493,46.645 212.909,46.645 C213.396,46.645 213.773,46.604 214.072,46.531 C214.75,46.377 214.939,45.778 215.051,44.841 C215.199,43.485 215.199,40.968 215.199,38.037 L215.199,32.403 Z" id="Fill-29" fill="#1A1919"></path>
        <path d="M238.833,32.402 C238.833,27.553 238.833,26.652 238.799,25.64 C238.726,24.548 238.424,24.21 237.369,23.909 C237.106,23.835 236.545,23.795 236.056,23.795 C235.718,23.795 235.489,23.685 235.489,23.459 C235.489,23.234 235.753,23.158 236.242,23.158 C237.971,23.158 240.075,23.234 241.014,23.234 C242.067,23.234 249.39,23.271 250.035,23.234 C250.635,23.194 251.159,23.084 251.422,23.045 C251.608,23.007 251.797,22.894 251.948,22.894 C252.139,22.894 252.174,23.045 252.174,23.194 C252.174,23.423 251.985,23.795 251.91,25.265 C251.877,25.601 251.797,26.992 251.721,27.37 C251.685,27.517 251.608,27.892 251.348,27.892 C251.121,27.892 251.083,27.742 251.083,27.479 C251.083,27.253 251.044,26.69 250.862,26.317 C250.594,25.751 250.334,25.299 248.68,25.148 C248.112,25.074 244.17,25.001 243.493,25.001 C243.348,25.001 243.267,25.11 243.267,25.299 L243.267,33.192 C243.267,33.379 243.304,33.529 243.493,33.529 C244.247,33.529 248.53,33.529 249.278,33.454 C250.069,33.379 250.558,33.301 250.862,32.962 C251.121,32.74 251.232,32.553 251.383,32.553 C251.538,32.553 251.648,32.703 251.648,32.894 C251.648,33.079 251.572,33.603 251.383,35.217 C251.31,35.857 251.232,37.132 251.232,37.361 C251.232,37.628 251.198,38.073 250.894,38.073 C250.672,38.073 250.594,37.961 250.594,37.813 C250.558,37.474 250.558,37.062 250.484,36.648 C250.294,36.009 249.884,35.52 248.643,35.405 C248.042,35.334 244.284,35.257 243.455,35.257 C243.304,35.257 243.267,35.405 243.267,35.596 L243.267,38.148 C243.267,39.24 243.233,41.945 243.267,42.882 C243.348,45.065 244.356,45.555 247.737,45.555 C248.604,45.555 249.996,45.512 250.862,45.141 C251.685,44.762 252.059,44.089 252.285,42.773 C252.359,42.433 252.435,42.281 252.66,42.281 C252.924,42.281 252.962,42.695 252.962,43.036 C252.962,43.752 252.699,45.928 252.513,46.567 C252.285,47.396 251.985,47.396 250.744,47.396 C248.267,47.396 246.274,47.356 244.658,47.281 C243.044,47.242 241.805,47.207 240.827,47.207 C240.451,47.207 239.738,47.242 238.944,47.242 C238.156,47.281 237.329,47.32 236.655,47.32 C236.242,47.32 236.015,47.207 236.015,46.983 C236.015,46.832 236.128,46.645 236.545,46.645 C237.03,46.645 237.408,46.604 237.707,46.531 C238.386,46.378 238.572,45.779 238.685,44.84 C238.833,43.484 238.833,40.967 238.833,38.038 L238.833,32.402" id="Fill-30" fill="#1A1919"></path>
        <path d="M261.82,35.935 C261.82,39.315 261.856,41.758 261.89,42.395 C261.931,43.187 262.009,44.314 262.268,44.653 C262.685,45.253 263.998,45.928 266.592,45.928 C269.598,45.928 271.814,45.401 273.81,43.751 C275.948,41.981 276.624,39.126 276.624,35.82 C276.624,31.764 275.006,29.134 273.543,27.855 C270.502,25.148 266.892,24.812 264.297,24.812 C263.62,24.812 262.535,24.887 262.268,25.038 C261.969,25.148 261.856,25.3 261.856,25.677 C261.82,26.765 261.82,29.396 261.82,31.91 L261.82,35.935 Z M257.388,32.403 C257.388,27.554 257.388,26.653 257.35,25.64 C257.27,24.548 256.97,24.209 255.916,23.91 C255.656,23.834 255.094,23.794 254.602,23.794 C254.264,23.794 254.042,23.685 254.042,23.459 C254.042,23.234 254.305,23.159 254.793,23.159 C256.521,23.159 258.625,23.234 259.563,23.234 C260.578,23.234 262.945,23.159 264.938,23.159 C269.072,23.159 274.63,23.159 278.239,26.804 C279.892,28.459 281.359,31.123 281.359,34.917 C281.359,38.939 279.626,41.981 277.749,43.826 C276.249,45.326 272.755,47.582 266.668,47.582 C265.463,47.582 264.038,47.468 262.72,47.396 C261.405,47.281 260.202,47.206 259.376,47.206 C259,47.206 258.287,47.243 257.496,47.243 C256.712,47.281 255.884,47.321 255.204,47.321 C254.793,47.321 254.567,47.206 254.567,46.983 C254.567,46.832 254.68,46.645 255.094,46.645 C255.582,46.645 255.959,46.604 256.258,46.531 C256.933,46.377 257.12,45.78 257.235,44.841 C257.388,43.484 257.388,40.968 257.388,38.038 L257.388,32.403 Z" id="Fill-31" fill="#1A1919"></path>
        <path d="M284.546,32.402 C284.546,27.553 284.546,26.652 284.508,25.64 C284.436,24.548 284.097,24.173 283.38,23.946 C283.003,23.835 282.594,23.795 282.177,23.795 C281.838,23.795 281.655,23.72 281.655,23.423 C281.655,23.234 281.917,23.158 282.442,23.158 C283.679,23.158 285.937,23.234 286.874,23.234 C287.7,23.234 289.841,23.158 291.122,23.158 C291.535,23.158 291.799,23.234 291.799,23.423 C291.799,23.72 291.612,23.795 291.274,23.795 C290.935,23.795 290.671,23.835 290.292,23.909 C289.394,24.06 289.129,24.514 289.055,25.64 C288.977,26.652 288.977,27.553 288.977,32.402 L288.977,38.038 C288.977,41.12 288.977,43.674 289.129,45.025 C289.245,45.892 289.468,46.378 290.446,46.531 C290.899,46.604 291.645,46.645 292.134,46.645 C292.512,46.645 292.663,46.832 292.663,46.983 C292.663,47.207 292.4,47.32 292.026,47.32 C289.841,47.32 287.59,47.207 286.686,47.207 C285.937,47.207 283.679,47.32 282.365,47.32 C281.954,47.32 281.726,47.207 281.726,46.983 C281.726,46.832 281.838,46.645 282.255,46.645 C282.741,46.645 283.122,46.604 283.422,46.531 C284.097,46.378 284.283,45.928 284.398,44.99 C284.546,43.674 284.546,41.12 284.546,38.038 L284.546,32.402" id="Fill-32" fill="#1A1919"></path>
        <path d="M302.795,25.11 L297.87,25.226 C295.954,25.265 295.166,25.489 294.679,26.201 C294.337,26.652 294.185,27.065 294.113,27.294 C294.036,27.553 293.964,27.707 293.737,27.707 C293.516,27.707 293.437,27.517 293.437,27.177 C293.437,26.652 294.074,23.572 294.148,23.308 C294.228,22.894 294.337,22.705 294.523,22.705 C294.79,22.705 295.132,22.969 295.954,23.084 C296.934,23.194 298.169,23.234 299.262,23.234 L312.675,23.234 C313.728,23.234 314.439,23.158 314.928,23.084 C315.455,23.007 315.718,22.929 315.832,22.929 C316.057,22.929 316.093,23.118 316.093,23.61 C316.093,24.285 316.019,26.652 316.019,27.479 C315.982,27.817 315.91,28.005 315.718,28.005 C315.455,28.005 315.383,27.855 315.346,27.369 L315.306,27.027 C315.233,26.201 314.369,25.226 311.398,25.19 L307.227,25.11 L307.227,38.038 C307.227,40.967 307.264,43.484 307.415,44.878 C307.528,45.779 307.717,46.378 308.691,46.531 C309.141,46.604 309.893,46.645 310.387,46.645 C310.76,46.645 310.907,46.832 310.907,46.983 C310.907,47.207 310.644,47.32 310.269,47.32 C308.092,47.32 305.876,47.207 304.937,47.207 C304.182,47.207 301.93,47.32 300.613,47.32 C300.199,47.32 299.977,47.207 299.977,46.983 C299.977,46.832 300.089,46.645 300.5,46.645 C300.989,46.645 301.402,46.604 301.665,46.531 C302.341,46.378 302.528,45.779 302.643,44.84 C302.795,43.484 302.795,40.967 302.795,38.038 L302.795,25.11" id="Fill-33" fill="#1A1919"></path>
        <path d="M251.378,65.771 L254.982,65.771 L255.808,63.711 C255.84,63.631 255.862,63.551 255.88,63.469 C255.895,63.393 255.901,63.311 255.901,63.229 C255.901,62.948 255.803,62.724 255.598,62.552 C255.394,62.378 255.128,62.294 254.796,62.294 L252.906,62.294 L251.378,65.771 Z M252.268,71.59 C252.297,71.528 252.322,71.466 252.336,71.398 C252.352,71.332 252.359,71.261 252.359,71.186 C252.359,70.906 252.253,70.67 252.039,70.477 C251.827,70.285 251.56,70.189 251.237,70.189 L249.318,70.189 L245.403,78.816 L238.144,78.816 L247.725,57.722 L261.303,57.722 C262.237,57.722 262.973,57.93 263.509,58.346 C264.044,58.762 264.311,59.334 264.311,60.062 C264.311,60.249 264.282,60.452 264.227,60.673 C264.168,60.89 264.077,61.124 263.953,61.374 L260.739,68.536 C260.447,69.138 260.097,69.565 259.685,69.813 C259.276,70.065 258.696,70.189 257.946,70.189 L257.758,70.189 C258.124,70.418 258.396,70.69 258.577,71.006 C258.76,71.326 258.851,71.682 258.851,72.077 C258.851,72.263 258.82,72.475 258.759,72.707 C258.696,72.942 258.605,73.179 258.491,73.419 L256.042,78.816 L249.069,78.816 L252.268,71.59 Z" id="Fill-34" fill="#1A1919"></path>
        <polyline id="Fill-35" fill="#1A1919" points="280.292 57.722 278.186 62.356 272.819 62.356 271.384 65.556 276.751 65.556 274.644 70.189 269.278 70.189 267.452 74.185 272.819 74.185 270.714 78.816 257.999 78.816 267.577 57.722 280.292 57.722"></polyline>
        <path d="M294.992,57.722 L292.886,62.356 L287.814,62.356 C287.158,62.356 286.718,62.405 286.489,62.506 C286.258,62.604 286.081,62.789 285.958,63.061 L285.695,63.619 C285.641,63.724 285.602,63.818 285.575,63.898 C285.549,63.984 285.539,64.055 285.539,64.118 C285.539,64.482 286.234,64.883 287.626,65.322 C288.18,65.498 288.61,65.638 288.924,65.74 C290.461,66.271 291.502,66.774 292.043,67.248 C292.586,67.72 292.853,68.309 292.853,69.004 C292.853,69.262 292.811,69.574 292.721,69.939 C292.634,70.301 292.506,70.661 292.341,71.017 L290.404,75.434 C289.834,76.722 289.076,77.61 288.136,78.093 C287.193,78.573 285.422,78.816 282.822,78.816 L272.975,78.816 L275.098,74.185 L281.805,74.185 C283.003,74.185 283.786,74.089 284.155,73.902 C284.526,73.718 284.814,73.36 285.023,72.841 L285.507,71.717 C285.579,71.561 285.634,71.411 285.669,71.267 C285.704,71.119 285.723,70.994 285.723,70.89 C285.723,70.349 284.939,69.811 283.369,69.27 C282.993,69.142 282.702,69.045 282.494,68.973 C280.736,68.347 279.643,67.854 279.217,67.49 C278.791,67.126 278.577,66.661 278.577,66.1 C278.577,65.841 278.62,65.543 278.702,65.212 C278.785,64.881 278.901,64.546 279.046,64.21 L280.903,60.062 C281.286,59.198 281.847,58.591 282.58,58.244 C283.312,57.898 284.479,57.722 286.081,57.722 L294.992,57.722" id="Fill-36" fill="#1A1919"></path>
        <g id="Group-40" transform="translate(191.000000, 57.000000)">
            <mask id="mask-2" fill="white">
                <use xlink:href="#path-1"></use>
            </mask>
            <g id="Clip-38"></g>
            <path d="M121.345,0.722 L119.236,5.356 L114.167,5.356 C113.511,5.356 113.07,5.405 112.842,5.506 C112.611,5.604 112.435,5.789 112.31,6.061 L112.046,6.619 C111.996,6.724 111.953,6.818 111.928,6.898 C111.901,6.984 111.892,7.055 111.892,7.118 C111.892,7.482 112.586,7.883 113.98,8.322 C114.531,8.498 114.962,8.638 115.274,8.74 C116.812,9.271 117.853,9.774 118.396,10.248 C118.936,10.72 119.205,11.309 119.205,12.004 C119.205,12.262 119.162,12.574 119.075,12.939 C118.986,13.301 118.858,13.661 118.691,14.017 L116.757,18.434 C116.185,19.722 115.428,20.61 114.486,21.093 C113.545,21.573 111.774,21.816 109.175,21.816 L99.328,21.816 L101.449,17.185 L108.161,17.185 C109.354,17.185 110.14,17.089 110.508,16.902 C110.879,16.718 111.168,16.36 111.374,15.841 L111.857,14.717 C111.929,14.561 111.985,14.411 112.021,14.267 C112.058,14.119 112.078,13.994 112.078,13.89 C112.078,13.349 111.291,12.811 109.721,12.27 C109.344,12.142 109.055,12.045 108.847,11.973 C107.089,11.347 105.995,10.854 105.569,10.49 C105.143,10.126 104.93,9.661 104.93,9.1 C104.93,8.841 104.972,8.543 105.053,8.212 C105.137,7.881 105.252,7.546 105.397,7.21 L107.255,3.062 C107.639,2.198 108.197,1.591 108.933,1.244 C109.664,0.898 110.833,0.722 112.435,0.722 L121.345,0.722" id="Fill-37" fill="#1A1919" mask="url(#mask-2)"></path>
            <path d="M21.278,27 L28.175,27 L22.819,10.958 L27.172,6.573 C27.62,6.113 28.059,5.798 28.489,5.62 C28.924,5.443 29.461,5.356 30.104,5.356 L30.405,5.356 L30.396,0.723 L27.201,0.723 C26.276,0.723 25.504,0.847 24.887,1.099 C24.267,1.347 23.707,1.757 23.21,2.33 L20.838,5.012 L19.464,0.723 L12.568,0.723 L15.719,10.287 L10.134,15.965 C9.686,16.436 9.25,16.756 8.822,16.927 C8.396,17.099 7.847,17.186 7.167,17.186 L6.139,17.186 L4.031,21.815 L8.822,21.815 C10.31,21.815 11.468,21.648 12.296,21.311 C13.123,20.974 13.913,20.389 14.674,19.555 L17.701,16.201 L21.278,27 Z M7.536,17.172 L2.608,17.172 L0.528,21.815 L7.543,21.815 L7.536,17.172 Z M41.918,5.368 L30.405,5.368 L30.396,0.723 L43.947,0.723 L41.918,5.368 Z" id="Fill-39" fill="#1A1919" mask="url(#mask-2)"></path>
        </g>
        <path d="M230.826,67.052 L234.055,67.052 L235.493,63.76 C235.525,63.677 235.545,63.596 235.563,63.519 C235.578,63.44 235.586,63.363 235.586,63.292 C235.586,63.022 235.481,62.798 235.271,62.619 C235.064,62.444 234.796,62.356 234.462,62.356 L232.934,62.356 L230.826,67.052 Z M228.719,71.686 L225.459,78.816 L218.11,78.816 L227.691,57.722 L241.269,57.722 C242.202,57.722 242.936,57.93 243.472,58.346 C244.008,58.762 244.276,59.333 244.276,60.062 C244.276,60.25 244.248,60.451 244.192,60.673 C244.133,60.89 244.043,61.124 243.917,61.374 L240.562,68.847 C240.062,69.981 239.511,70.736 238.909,71.115 C238.305,71.497 237.28,71.686 235.836,71.686 L228.719,71.686 Z" id="Fill-41" fill="#1A1919"></path>
        <polyline id="Fill-42" fill="#1A1919" points="202.758 57.722 200.65 62.356 195.283 62.356 193.848 65.556 199.214 65.556 197.108 70.189 191.739 70.189 189.915 74.185 195.283 74.185 193.177 78.816 180.46 78.816 190.039 57.722 202.758 57.722"></polyline>
    </g>
</svg>