<?xml version="1.0" encoding="UTF-8"?>
<svg width="342px" height="106px" viewBox="0 0 342 106" version="1.1" xmlns="http://www.w3.org/2000/svg" xmlns:xlink="http://www.w3.org/1999/xlink">
    <!-- Generator: Sketch 51.3 (57544) - http://www.bohemiancoding.com/sketch -->
    <title>Small-FCVA-Black-Green-CMYK-w-Tag</title>
    <desc>Created with Sketch.</desc>
    <defs></defs>
    <g id="Small-FCVA-Black-Green-CMYK-w-Tag" stroke="none" stroke-width="1" fill="none" fill-rule="evenodd">
        <path d="M85.129,39.673 C85.129,43.582 85.129,46.634 85.332,48.345 C85.458,49.526 85.7,50.423 86.922,50.584 C87.492,50.666 88.387,50.748 88.957,50.748 C89.486,50.748 89.651,50.869 89.651,51.074 C89.651,51.358 89.365,51.48 88.755,51.48 C86.189,51.48 83.624,51.358 82.565,51.358 C81.507,51.358 78.941,51.48 77.394,51.48 C76.823,51.48 76.538,51.4 76.538,51.074 C76.538,50.869 76.702,50.748 77.149,50.748 C77.76,50.748 78.249,50.666 78.616,50.584 C79.429,50.423 79.632,49.526 79.796,48.345 C80,46.634 80,43.582 80,39.673 L80,32.505 C80,26.317 80,25.177 79.92,23.873 C79.838,22.488 79.511,21.838 78.167,21.552 C77.842,21.47 77.149,21.43 76.579,21.43 C76.171,21.43 75.886,21.349 75.886,21.104 C75.886,20.779 76.214,20.698 76.823,20.698 C77.882,20.698 79.063,20.738 80.12,20.738 C81.181,20.779 82.117,20.819 82.687,20.819 C84.234,20.819 92.5,20.819 93.437,20.779 C94.21,20.738 94.7,20.738 95.106,20.615 C95.352,20.533 95.555,20.371 95.758,20.371 C95.921,20.371 96.043,20.533 96.043,20.738 C96.043,21.022 95.839,21.511 95.717,22.57 C95.676,22.977 95.594,25.381 95.513,25.868 C95.473,26.193 95.39,26.439 95.106,26.439 C94.82,26.439 94.74,26.235 94.7,25.786 C94.7,25.462 94.7,24.81 94.454,24.239 C94.169,23.67 93.316,23.059 91.768,23.018 L85.496,22.895 C85.252,22.895 85.129,23.018 85.129,23.465 L85.129,33.645 C85.129,33.889 85.174,34.012 85.414,34.012 L90.628,33.971 C91.319,33.971 91.889,33.971 92.46,33.931 C93.235,33.889 93.803,33.727 94.21,33.199 C94.417,32.954 94.496,32.791 94.74,32.791 C94.903,32.791 94.985,32.912 94.985,33.157 C94.985,33.401 94.783,34.419 94.657,35.681 C94.576,36.496 94.496,38.369 94.496,38.654 C94.496,39.02 94.496,39.428 94.087,39.428 C93.843,39.428 93.766,39.144 93.766,38.858 C93.766,38.573 93.684,38.083 93.52,37.595 C93.316,37.026 92.704,36.295 91.441,36.13 C90.424,36.01 86.107,36.01 85.414,36.01 C85.211,36.01 85.129,36.085 85.129,36.376 L85.129,39.673" id="Fill-1" fill="#1A1919"></path>
        <path d="M108.83,40.854 C108.992,40.854 109.032,40.772 108.992,40.649 L105.612,31.855 C105.572,31.731 105.531,31.53 105.451,31.53 C105.327,31.53 105.287,31.731 105.247,31.855 L101.785,40.608 C101.703,40.772 101.785,40.854 101.906,40.854 L108.83,40.854 Z M101.175,42.766 C100.971,42.766 100.929,42.807 100.849,43.01 L98.935,47.652 C98.569,48.508 98.405,49.363 98.405,49.772 C98.405,50.381 98.73,50.748 99.831,50.748 L100.36,50.748 C100.808,50.748 100.889,50.91 100.889,51.113 C100.889,51.4 100.687,51.48 100.32,51.48 C99.137,51.48 97.468,51.358 96.328,51.358 C95.963,51.358 94.05,51.48 92.175,51.48 C91.727,51.48 91.524,51.4 91.524,51.113 C91.524,50.91 91.646,50.748 91.932,50.748 C92.257,50.748 92.664,50.708 92.99,50.708 C94.618,50.464 95.228,49.402 95.963,47.652 L105.327,25.868 C105.735,24.891 106.02,24.484 106.386,24.484 C106.916,24.484 107.079,24.81 107.447,25.583 C108.301,27.497 114.285,41.667 116.565,46.92 C117.95,50.055 118.968,50.504 119.62,50.625 C120.15,50.708 120.554,50.748 120.964,50.748 C121.29,50.748 121.451,50.869 121.451,51.113 C121.451,51.4 121.247,51.48 119.905,51.48 C118.643,51.48 116.036,51.48 113.023,51.4 C112.371,51.358 111.967,51.358 111.967,51.113 C111.967,50.91 112.046,50.788 112.413,50.748 C112.656,50.708 112.903,50.381 112.738,49.972 L109.969,43.01 C109.887,42.807 109.766,42.766 109.603,42.766 L101.175,42.766 Z" id="Fill-2" fill="#1A1919"></path>
        <path d="M129.109,38.003 C129.109,38.369 129.192,38.491 129.433,38.612 C130.207,38.858 131.268,38.939 132.162,38.939 C133.587,38.939 134.075,38.816 134.686,38.369 C135.786,37.595 137.009,36.085 137.009,33.238 C137.009,28.352 133.67,27.089 131.553,27.089 C130.656,27.089 129.8,27.131 129.433,27.209 C129.192,27.291 129.109,27.417 129.109,27.701 L129.109,38.003 Z M124.547,35.315 C124.547,30.063 124.547,29.086 124.507,27.986 C124.424,26.805 124.1,26.439 122.961,26.113 C122.677,26.032 122.064,25.989 121.533,25.989 C121.167,25.989 120.924,25.868 120.924,25.623 C120.924,25.381 121.21,25.299 121.738,25.299 C123.612,25.299 125.891,25.381 126.623,25.381 C127.846,25.381 131.104,25.299 132.204,25.299 C134.484,25.299 137.089,25.502 139.002,26.765 C140.02,27.455 141.529,29.206 141.529,31.53 C141.529,34.094 140.062,36.376 136.559,39.183 C139.736,43.092 142.259,46.228 144.419,48.386 C146.414,50.381 147.676,50.544 148.245,50.666 C148.612,50.748 148.816,50.748 149.103,50.748 C149.387,50.748 149.55,50.951 149.55,51.113 C149.55,51.4 149.305,51.48 148.857,51.48 L145.435,51.48 C143.442,51.48 142.464,51.277 141.529,50.788 C139.98,50.014 138.636,48.386 136.641,45.698 C135.216,43.825 133.71,41.505 133.261,40.974 C133.059,40.772 132.855,40.731 132.609,40.731 L129.392,40.649 C129.229,40.649 129.109,40.731 129.109,40.933 L129.109,41.424 C129.109,44.64 129.149,47.328 129.311,48.793 C129.433,49.812 129.595,50.464 130.696,50.625 C131.224,50.708 131.999,50.748 132.446,50.748 C132.731,50.748 132.895,50.951 132.895,51.113 C132.895,51.358 132.609,51.48 132.162,51.48 C130.087,51.48 127.113,51.358 126.584,51.358 C125.891,51.358 123.612,51.48 122.184,51.48 C121.738,51.48 121.494,51.358 121.494,51.113 C121.494,50.951 121.614,50.748 122.064,50.748 C122.595,50.748 123.001,50.708 123.325,50.625 C124.059,50.464 124.263,49.812 124.384,48.793 C124.547,47.328 124.547,44.598 124.547,41.424 L124.547,35.315 Z" id="Fill-3" fill="#1A1919"></path>
        <path d="M153.825,25.419 C153.908,24.85 154.233,24.525 154.518,24.525 C154.884,24.525 155.129,24.688 155.617,25.623 L165.229,44.924 L174.838,25.381 C175.122,24.81 175.448,24.525 175.772,24.525 C176.057,24.525 176.466,24.891 176.587,25.623 L179.844,47.001 C180.173,49.16 180.495,50.097 181.596,50.423 C182.614,50.708 183.185,50.748 183.632,50.748 C183.956,50.748 184.201,50.869 184.201,51.074 C184.201,51.358 183.796,51.48 183.265,51.48 C182.371,51.48 177.28,51.317 175.853,51.237 C175.001,51.195 174.795,51.032 174.795,50.828 C174.795,50.666 174.958,50.544 175.202,50.464 C175.406,50.381 175.488,49.972 175.367,48.996 L173.369,34.012 L173.25,34.012 L165.552,49.484 C164.739,51.113 164.536,51.44 164.126,51.44 C163.679,51.44 163.272,50.748 162.702,49.689 C161.846,48.101 158.997,42.807 158.589,41.829 C158.304,41.179 156.189,36.821 155.007,34.419 L154.884,34.419 L153.174,47.937 C153.092,48.549 153.051,48.996 153.051,49.567 C153.051,50.217 153.541,50.464 154.153,50.584 C154.763,50.708 155.087,50.748 155.414,50.748 C155.74,50.748 155.984,50.91 155.984,51.074 C155.984,51.4 155.659,51.48 155.129,51.48 C153.622,51.48 151.994,51.358 151.343,51.358 C150.648,51.358 148.941,51.48 147.8,51.48 C147.433,51.48 147.148,51.4 147.148,51.074 C147.148,50.91 147.35,50.748 147.717,50.748 C148.003,50.748 148.246,50.748 148.817,50.666 C149.794,50.544 150.121,49.16 150.282,48.02 L153.825,25.419" id="Fill-4" fill="#1A1919"></path>
        <path d="M203.71,47.612 C199.717,44.111 198.659,39.549 198.659,35.599 C198.659,32.832 199.515,28.027 203.424,24.444 C206.354,21.756 210.224,20.127 216.291,20.127 C218.816,20.127 220.323,20.29 222.196,20.533 C223.743,20.738 225.046,21.104 226.267,21.226 C226.716,21.268 226.876,21.47 226.876,21.714 C226.876,22.041 226.757,22.53 226.674,23.953 C226.592,25.299 226.634,27.538 226.551,28.352 C226.511,28.963 226.431,29.289 226.065,29.289 C225.737,29.289 225.655,28.963 225.655,28.393 C225.616,27.131 225.087,25.704 224.067,24.647 C222.725,23.222 219.548,22.123 215.803,22.123 C212.259,22.123 209.938,23.018 208.149,24.647 C205.175,27.373 204.4,31.244 204.4,35.193 C204.4,44.887 211.773,49.689 217.226,49.689 C220.851,49.689 223.049,49.281 224.679,47.408 C225.37,46.634 225.901,45.455 226.065,44.722 C226.185,44.069 226.267,43.906 226.592,43.906 C226.876,43.906 226.958,44.192 226.958,44.517 C226.958,45.006 226.47,48.549 226.065,49.933 C225.858,50.625 225.698,50.828 225.004,51.113 C223.378,51.766 220.282,52.05 217.675,52.05 C212.096,52.05 207.415,50.828 203.71,47.612" id="Fill-5" fill="#1A1919"></path>
        <path d="M236.977,38.003 C236.977,38.369 237.059,38.491 237.302,38.612 C238.075,38.858 239.134,38.939 240.032,38.939 C241.456,38.939 241.945,38.816 242.555,38.369 C243.655,37.595 244.876,36.085 244.876,33.238 C244.876,28.352 241.537,27.089 239.42,27.089 C238.524,27.089 237.67,27.131 237.302,27.209 C237.059,27.291 236.977,27.417 236.977,27.701 L236.977,38.003 Z M232.416,35.315 C232.416,30.063 232.416,29.086 232.376,27.986 C232.293,26.805 231.969,26.439 230.828,26.113 C230.544,26.032 229.932,25.989 229.402,25.989 C229.036,25.989 228.793,25.868 228.793,25.623 C228.793,25.381 229.077,25.299 229.609,25.299 C231.479,25.299 233.759,25.381 234.492,25.381 C235.715,25.381 238.971,25.299 240.071,25.299 C242.351,25.299 244.958,25.502 246.87,26.765 C247.888,27.455 249.396,29.206 249.396,31.53 C249.396,34.094 247.931,36.376 244.429,39.183 C247.603,43.092 250.129,46.228 252.287,48.386 C254.282,50.381 255.545,50.544 256.115,50.666 C256.48,50.748 256.687,50.748 256.971,50.748 C257.256,50.748 257.418,50.951 257.418,51.113 C257.418,51.4 257.174,51.48 256.726,51.48 L253.306,51.48 C251.31,51.48 250.332,51.277 249.396,50.788 C247.85,50.014 246.506,48.386 244.511,45.698 C243.084,43.825 241.579,41.505 241.132,40.974 C240.927,40.772 240.723,40.731 240.479,40.731 L237.26,40.649 C237.099,40.649 236.977,40.731 236.977,40.933 L236.977,41.424 C236.977,44.64 237.017,47.328 237.182,48.793 C237.302,49.812 237.466,50.464 238.564,50.625 C239.094,50.708 239.867,50.748 240.317,50.748 C240.602,50.748 240.764,50.951 240.764,51.113 C240.764,51.358 240.479,51.48 240.032,51.48 C237.955,51.48 234.98,51.358 234.453,51.358 C233.759,51.358 231.479,51.48 230.055,51.48 C229.609,51.48 229.363,51.358 229.363,51.113 C229.363,50.951 229.484,50.748 229.932,50.748 C230.461,50.748 230.869,50.708 231.195,50.625 C231.926,50.464 232.132,49.812 232.254,48.793 C232.416,47.328 232.416,44.598 232.416,41.424 L232.416,35.315 Z" id="Fill-6" fill="#1A1919"></path>
        <path d="M257.908,35.315 C257.908,30.063 257.908,29.086 257.868,27.986 C257.786,26.805 257.461,26.439 256.322,26.113 C256.035,26.032 255.425,25.989 254.897,25.989 C254.53,25.989 254.284,25.868 254.284,25.623 C254.284,25.381 254.568,25.299 255.099,25.299 C256.973,25.299 259.252,25.381 260.27,25.381 C261.409,25.381 269.35,25.419 270.042,25.381 C270.695,25.339 271.264,25.216 271.548,25.177 C271.752,25.135 271.956,25.013 272.119,25.013 C272.322,25.013 272.363,25.177 272.363,25.339 C272.363,25.583 272.16,25.989 272.078,27.578 C272.038,27.945 271.956,29.452 271.875,29.859 C271.833,30.021 271.752,30.428 271.467,30.428 C271.225,30.428 271.181,30.266 271.181,29.981 C271.181,29.736 271.143,29.125 270.939,28.718 C270.652,28.109 270.368,27.621 268.576,27.455 C267.964,27.373 263.69,27.291 262.955,27.291 C262.795,27.291 262.714,27.417 262.714,27.621 L262.714,36.167 C262.714,36.376 262.753,36.535 262.955,36.535 C263.773,36.535 268.413,36.535 269.228,36.454 C270.083,36.376 270.613,36.295 270.939,35.928 C271.225,35.681 271.345,35.479 271.509,35.479 C271.673,35.479 271.793,35.641 271.793,35.846 C271.793,36.048 271.711,36.616 271.509,38.369 C271.427,39.062 271.345,40.447 271.345,40.689 C271.345,40.974 271.305,41.464 270.979,41.464 C270.734,41.464 270.652,41.341 270.652,41.179 C270.613,40.813 270.613,40.364 270.531,39.916 C270.327,39.223 269.879,38.695 268.534,38.573 C267.883,38.491 263.812,38.41 262.917,38.41 C262.753,38.41 262.714,38.573 262.714,38.777 L262.714,41.546 C262.714,42.725 262.671,45.656 262.714,46.676 C262.795,49.037 263.894,49.567 267.56,49.567 C268.495,49.567 270.002,49.526 270.939,49.119 C271.833,48.71 272.24,47.978 272.486,46.554 C272.567,46.187 272.649,46.024 272.894,46.024 C273.179,46.024 273.218,46.472 273.218,46.839 C273.218,47.612 272.933,49.972 272.73,50.666 C272.486,51.562 272.16,51.562 270.816,51.562 C268.129,51.562 265.969,51.522 264.222,51.44 C262.468,51.4 261.125,51.358 260.067,51.358 C259.659,51.358 258.886,51.4 258.03,51.4 C257.175,51.44 256.278,51.48 255.547,51.48 C255.099,51.48 254.853,51.358 254.853,51.113 C254.853,50.951 254.976,50.748 255.425,50.748 C255.953,50.748 256.361,50.708 256.689,50.625 C257.419,50.464 257.623,49.812 257.745,48.793 C257.908,47.328 257.908,44.598 257.908,41.424 L257.908,35.315" id="Fill-7" fill="#1A1919"></path>
        <path d="M282.729,39.144 C282.729,42.807 282.77,45.455 282.809,46.146 C282.851,47.001 282.932,48.223 283.217,48.59 C283.663,49.241 285.09,49.972 287.9,49.972 C291.157,49.972 293.559,49.402 295.718,47.612 C298.038,45.698 298.772,42.604 298.772,39.02 C298.772,34.623 297.021,31.772 295.432,30.389 C292.134,27.455 288.227,27.089 285.417,27.089 C284.683,27.089 283.504,27.172 283.217,27.336 C282.892,27.455 282.77,27.621 282.77,28.027 C282.729,29.206 282.729,32.058 282.729,34.786 L282.729,39.144 Z M277.924,35.315 C277.924,30.063 277.924,29.086 277.884,27.986 C277.801,26.805 277.474,26.439 276.336,26.113 C276.051,26.032 275.441,25.989 274.911,25.989 C274.546,25.989 274.3,25.868 274.3,25.623 C274.3,25.381 274.585,25.299 275.115,25.299 C276.988,25.299 279.267,25.381 280.286,25.381 C281.385,25.381 283.95,25.299 286.11,25.299 C290.587,25.299 296.613,25.299 300.522,29.248 C302.314,31.039 303.902,33.931 303.902,38.043 C303.902,42.4 302.029,45.698 299.992,47.694 C298.364,49.324 294.577,51.766 287.981,51.766 C286.677,51.766 285.133,51.643 283.706,51.562 C282.28,51.44 280.977,51.358 280.082,51.358 C279.674,51.358 278.902,51.4 278.046,51.4 C277.19,51.44 276.295,51.48 275.561,51.48 C275.115,51.48 274.869,51.358 274.869,51.113 C274.869,50.951 274.992,50.748 275.441,50.748 C275.97,50.748 276.376,50.708 276.703,50.625 C277.435,50.464 277.639,49.812 277.76,48.793 C277.924,47.328 277.924,44.598 277.924,41.424 L277.924,35.315 Z" id="Fill-8" fill="#1A1919"></path>
        <path d="M307.284,35.315 C307.284,30.063 307.284,29.086 307.243,27.986 C307.16,26.805 306.795,26.398 306.02,26.154 C305.614,26.032 305.167,25.989 304.718,25.989 C304.352,25.989 304.15,25.908 304.15,25.583 C304.15,25.381 304.434,25.299 305.005,25.299 C306.348,25.299 308.79,25.381 309.808,25.381 C310.702,25.381 313.027,25.299 314.409,25.299 C314.858,25.299 315.142,25.381 315.142,25.583 C315.142,25.908 314.939,25.989 314.572,25.989 C314.205,25.989 313.921,26.032 313.512,26.113 C312.536,26.275 312.252,26.765 312.17,27.986 C312.089,29.086 312.089,30.063 312.089,35.315 L312.089,41.424 C312.089,44.76 312.089,47.531 312.252,48.996 C312.373,49.933 312.617,50.464 313.677,50.625 C314.166,50.708 314.978,50.748 315.508,50.748 C315.916,50.748 316.079,50.951 316.079,51.113 C316.079,51.358 315.793,51.48 315.388,51.48 C313.027,51.48 310.584,51.358 309.605,51.358 C308.79,51.358 306.348,51.48 304.922,51.48 C304.475,51.48 304.231,51.358 304.231,51.113 C304.231,50.951 304.352,50.748 304.8,50.748 C305.329,50.748 305.736,50.708 306.064,50.625 C306.795,50.464 306.999,49.972 307.121,48.956 C307.284,47.531 307.284,44.76 307.284,41.424 L307.284,35.315" id="Fill-9" fill="#1A1919"></path>
        <path d="M326.993,27.417 L321.657,27.538 C319.58,27.578 318.725,27.821 318.196,28.596 C317.829,29.086 317.669,29.533 317.587,29.778 C317.505,30.063 317.423,30.225 317.179,30.225 C316.935,30.225 316.853,30.021 316.853,29.656 C316.853,29.086 317.545,25.747 317.626,25.462 C317.708,25.013 317.829,24.81 318.033,24.81 C318.319,24.81 318.685,25.094 319.58,25.216 C320.641,25.339 321.985,25.381 323.163,25.381 L337.7,25.381 C338.842,25.381 339.614,25.299 340.143,25.216 C340.716,25.135 341.001,25.054 341.122,25.054 C341.366,25.054 341.405,25.257 341.405,25.786 C341.405,26.521 341.324,29.086 341.324,29.981 C341.286,30.347 341.204,30.551 341.001,30.551 C340.716,30.551 340.635,30.389 340.592,29.859 L340.552,29.491 C340.47,28.596 339.532,27.538 336.317,27.497 L331.797,27.417 L331.797,41.424 C331.797,44.598 331.836,47.328 332,48.834 C332.121,49.812 332.327,50.464 333.387,50.625 C333.873,50.708 334.689,50.748 335.216,50.748 C335.626,50.748 335.788,50.951 335.788,51.113 C335.788,51.358 335.502,51.48 335.094,51.48 C332.734,51.48 330.332,51.358 329.313,51.358 C328.5,51.358 326.056,51.48 324.631,51.48 C324.182,51.48 323.937,51.358 323.937,51.113 C323.937,50.951 324.062,50.748 324.508,50.748 C325.038,50.748 325.486,50.708 325.77,50.625 C326.503,50.464 326.706,49.812 326.83,48.793 C326.993,47.328 326.993,44.598 326.993,41.424 L326.993,27.417" id="Fill-10" fill="#1A1919"></path>
        <path d="M44.794,67.125 C45.163,67.125 45.497,67.105 45.497,66.656 C45.497,66.3 45.169,66.231 44.87,66.231 L44.271,66.231 L44.271,67.125 L44.794,67.125 Z M44.271,68.745 L43.835,68.745 L43.835,65.862 L44.936,65.862 C45.614,65.862 45.953,66.117 45.953,66.683 C45.953,67.199 45.628,67.424 45.208,67.477 L46.026,68.745 L45.532,68.745 L44.776,67.496 L44.271,67.496 L44.271,68.745 Z M44.799,69.388 C45.932,69.388 46.823,68.499 46.823,67.299 C46.823,66.117 45.932,65.222 44.799,65.222 C43.656,65.222 42.767,66.117 42.767,67.299 C42.767,68.499 43.656,69.388 44.799,69.388 Z M42.264,67.299 C42.264,65.862 43.43,64.81 44.799,64.81 C46.161,64.81 47.325,65.862 47.325,67.299 C47.325,68.745 46.161,69.801 44.799,69.801 C43.43,69.801 42.264,68.745 42.264,67.299 Z" id="Fill-11" fill="#4F8835"></path>
        <path d="M36.186,53.656 L44.538,61.768 C43.726,62.586 42.895,63.432 42.079,64.27 L35.836,57.929 L36.186,53.656" id="Fill-12" fill="#4F8835"></path>
        <path d="M34.389,53.656 L26.035,61.768 C26.857,62.586 27.686,63.432 28.501,64.27 L34.741,57.929 L34.389,53.656" id="Fill-13" fill="#4F8835"></path>
        <path d="M35.267,66.89 L34.736,60.037 L29.588,65.392 C32.709,68.635 35.314,71.461 35.314,71.461 L41.108,65.382 L35.733,60.056 L35.267,66.89" id="Fill-14" fill="#4F8835"></path>
        <path d="M36.467,46.752 L48.134,58.025 C47.766,58.633 46.433,60.006 45.632,60.685 L36.2,50.922 L36.467,46.752" id="Fill-15" fill="#4F8835"></path>
        <path d="M33.894,46.752 L22.23,58.025 C22.599,58.633 23.931,60.006 24.724,60.685 L34.161,50.922 L33.894,46.752" id="Fill-16" fill="#4F8835"></path>
        <path d="M37.045,38.902 L47.239,48.83 C47.239,48.83 50.331,52.661 48.974,56.547 L36.736,43.884 L37.045,38.902" id="Fill-17" fill="#4F8835"></path>
        <path d="M33.588,38.904 L23.392,48.665 C23.392,48.665 20.305,52.496 21.659,56.388 L33.911,43.865 L33.588,38.904" id="Fill-18" fill="#4F8835"></path>
        <path d="M70.578,36.142 L59.132,24.556 C59.132,24.556 54.056,20.107 49.187,23.7 C44.317,27.298 38.184,34.425 38.184,34.425 L63.972,35.958 L38.187,37.853 L47.945,48.051 C47.945,48.051 53.814,52.788 58.383,47.981 C62.965,43.169 70.578,36.142 70.578,36.142" id="Fill-19" fill="#4F8835"></path>
        <path d="M35.263,0.608 L23.679,12.051 C23.679,12.051 19.221,17.133 22.817,21.999 C26.412,26.872 33.543,33.005 33.543,33.005 L35.307,7.263 L36.97,33 L47.167,23.241 C47.167,23.241 51.903,17.375 47.096,12.803 C42.285,8.227 35.263,0.608 35.263,0.608" id="Fill-20" fill="#4F8835"></path>
        <path d="M0,36.057 L11.446,47.649 C11.446,47.649 16.523,52.103 21.391,48.508 C26.259,44.91 32.4,37.781 32.4,37.781 L6.608,35.965 L32.399,34.358 L22.634,24.157 C22.634,24.157 16.769,19.42 12.193,24.229 C7.613,29.036 0,36.057 0,36.057" id="Fill-21" fill="#4F8835"></path>
        <path d="M333.567,94.257 C333.399,94.257 333.059,94.506 332.545,95.003 C332.116,96.284 331.901,97.298 331.901,98.044 C331.901,98.442 332.026,98.641 332.277,98.641 C332.432,98.641 332.737,98.48 333.191,98.156 C333.215,97.783 333.326,97.118 333.53,96.16 C333.735,95.239 333.835,94.704 333.835,94.555 C333.835,94.356 333.745,94.257 333.567,94.257 Z M340.051,77.817 C339.717,77.817 339.077,78.122 338.135,78.732 C337.62,79.664 337.035,80.828 336.379,82.221 C335.447,84.211 334.701,86.245 334.14,88.322 C333.625,90.238 333.369,91.669 333.369,92.614 C333.369,92.826 333.442,92.931 333.584,92.931 C333.703,92.931 333.763,92.869 333.763,92.745 C333.787,90.717 334.54,88.124 336.021,84.964 C337.155,82.563 338.469,80.51 339.961,78.806 C340.236,78.495 340.374,78.271 340.374,78.134 C340.374,77.923 340.267,77.817 340.051,77.817 Z M326.705,85.953 C325.488,87.993 324.383,89.66 323.391,90.954 C323.535,90.195 323.81,89.187 324.215,87.931 C325.052,85.319 325.994,83.173 327.046,81.493 C328.264,79.54 329.117,78.564 329.608,78.564 C329.799,78.564 329.894,78.7 329.894,78.974 C329.894,80.081 328.831,82.407 326.705,85.953 Z M331.113,91.607 C331.053,91.619 330.957,91.7 330.825,91.849 C330.754,91.949 330.653,92.067 330.521,92.204 L330.378,92.353 C330.307,92.453 330.24,92.533 330.181,92.595 C327.494,95.681 325.529,97.223 324.287,97.223 C323.391,97.223 322.944,96.316 322.944,94.499 C322.944,93.976 323.028,93.143 323.195,91.999 L324.162,90.636 C324.747,89.803 325.345,88.907 325.953,87.949 C326.742,86.718 327.345,85.729 327.763,84.983 C329.53,81.873 330.413,79.677 330.413,78.396 C330.413,78.022 330.276,77.836 330.001,77.836 C329.476,77.836 328.741,78.439 327.798,79.646 C327.153,80.466 326.586,81.313 326.097,82.183 C324.281,85.405 323.051,88.46 322.405,91.345 L322.155,92.465 L322.084,92.745 C321.331,93.678 320.544,94.524 319.719,95.283 C318.513,96.39 317.57,96.944 316.889,96.944 C316.16,96.944 315.797,96.495 315.797,95.6 C315.797,94.816 316.166,93.914 316.907,92.894 C317.23,92.446 317.617,92.029 318.071,91.644 C318.99,90.86 319.827,90.468 320.579,90.468 C320.806,90.468 321.086,90.58 321.421,90.804 L321.923,90.3 C321.565,90.077 321.182,89.965 320.777,89.965 C319.976,89.965 319.009,90.388 317.875,91.234 C317.063,91.843 316.364,92.595 315.779,93.491 C315.086,94.536 314.739,95.507 314.739,96.402 C314.739,97.46 315.212,97.988 316.155,97.988 C316.883,97.988 317.66,97.684 318.483,97.074 C319.403,96.402 320.454,95.37 321.637,93.976 L321.923,93.64 C321.923,93.529 321.905,93.662 321.869,94.042 C321.833,94.422 321.816,94.804 321.816,95.189 C321.816,97.193 322.418,98.194 323.624,98.194 C324.543,98.194 325.822,97.435 327.458,95.917 C328.878,94.599 330.026,93.398 330.898,92.316 C331.016,92.167 331.088,92.08 331.113,92.054 C331.22,91.943 331.274,91.849 331.274,91.775 C331.274,91.663 331.22,91.607 331.113,91.607 Z M317.463,91.663 C317.403,91.663 317.289,91.762 317.122,91.961 C316.644,92.533 316.107,93.131 315.51,93.753 C313.396,95.98 311.903,97.092 311.031,97.092 C310.434,97.092 310.136,96.719 310.136,95.973 C310.136,95.575 310.26,94.767 310.512,93.547 C310.679,92.726 310.763,92.192 310.763,91.943 C310.763,91.42 310.541,91.159 310.1,91.159 C309.85,91.159 309.502,91.256 309.061,91.448 C308.619,91.641 308.106,91.912 307.521,92.26 C306.338,92.969 304.821,94.051 302.97,95.507 C302.541,95.842 302.289,96.01 302.217,96.01 C302.11,96.01 302.056,95.948 302.056,95.824 C302.056,95.674 302.248,95.177 302.63,94.331 C303.203,93.075 303.932,91.7 304.816,90.207 C304.242,90.344 303.806,90.493 303.508,90.655 C302.947,91.501 302.362,92.59 301.753,93.921 C301.036,95.513 300.677,96.67 300.677,97.391 C300.677,97.777 300.773,97.969 300.964,97.969 C301.083,97.969 301.352,97.739 301.77,97.279 C302.953,95.986 304.767,94.543 307.216,92.95 C308.171,92.328 308.822,92.017 309.168,92.017 C309.467,92.017 309.617,92.197 309.617,92.558 C309.617,92.72 309.586,92.931 309.527,93.193 C309.335,94.039 309.186,94.754 309.079,95.339 C309.031,95.6 309.007,95.911 309.007,96.272 C309.007,97.317 309.438,97.839 310.297,97.839 C311.67,97.839 313.551,96.495 315.939,93.809 L317.051,92.558 C317.42,92.135 317.605,91.893 317.605,91.831 C317.605,91.718 317.557,91.663 317.463,91.663 Z M302.863,91.718 C302.78,91.718 302.582,91.905 302.272,92.279 L301.842,92.801 C301.221,93.547 300.325,94.462 299.155,95.544 C297.734,96.85 296.689,97.503 296.021,97.503 C295.734,97.503 295.501,97.388 295.322,97.158 C295.143,96.928 295.052,96.639 295.052,96.29 C295.052,95.208 295.489,93.914 296.361,92.409 C296.205,92.222 296.062,92.129 295.93,92.129 C295.811,92.129 295.656,92.179 295.465,92.279 C294.832,93.41 294.079,94.449 293.207,95.395 C292.037,96.663 291.004,97.298 290.109,97.298 C289.738,97.298 289.419,97.171 289.151,96.915 C288.881,96.661 288.747,96.321 288.747,95.899 C288.747,94.941 289.338,93.759 290.521,92.353 C291.237,91.507 292.121,90.779 293.172,90.17 C294.342,89.498 295.417,89.162 296.396,89.162 C297.734,89.162 298.402,89.635 298.402,90.58 C298.402,91.289 297.954,91.918 297.059,92.465 L297.13,92.689 C298.54,92.092 299.245,91.283 299.245,90.263 C299.245,89.181 298.445,88.64 296.843,88.64 C296.079,88.64 295.19,88.845 294.175,89.256 C292.323,90.014 290.736,91.172 289.41,92.726 C288.168,94.194 287.547,95.507 287.547,96.663 C287.547,97.161 287.687,97.569 287.967,97.885 C288.249,98.203 288.615,98.362 289.07,98.362 C290.395,98.362 292.02,97.292 293.943,95.152 L294.193,94.872 C294.061,95.631 293.996,96.185 293.996,96.533 C293.996,97.777 294.479,98.399 295.446,98.399 C295.864,98.399 296.402,98.194 297.059,97.783 C297.847,97.286 298.719,96.57 299.674,95.637 C300.236,95.09 301.018,94.257 302.021,93.137 C302.677,92.403 303.007,91.987 303.007,91.886 C303.007,91.775 302.959,91.718 302.863,91.718 Z M268.996,100.207 C267.838,100.207 266.84,99.799 266.004,98.985 C265.169,98.17 264.75,97.153 264.75,95.934 C264.75,94.889 265.091,93.978 265.771,93.2 C266.452,92.423 267.288,92.034 268.279,92.034 C270.058,92.034 272.262,93.583 274.889,96.68 C272.787,99.031 270.823,100.207 268.996,100.207 Z M287.894,80.465 C286.748,82.281 285.267,83.5 283.452,84.122 L283.632,83.712 C284.79,81.049 285.864,79.184 286.856,78.114 C287.249,77.691 287.614,77.479 287.948,77.479 C288.426,77.479 288.665,77.747 288.665,78.282 C288.665,78.929 288.408,79.656 287.894,80.465 Z M289.865,100.506 C288.754,102.123 287.334,102.931 285.602,102.931 C284.073,102.931 282.317,102.048 280.335,100.281 C278.782,98.901 277.367,97.458 276.09,95.952 C276.174,95.841 276.244,95.747 276.304,95.673 L277.039,94.796 C277.875,93.788 278.717,92.637 279.565,91.343 C280.377,90.087 281.009,89.049 281.463,88.227 C281.977,87.282 282.568,86.069 283.238,84.589 C284.85,84.042 286.261,83.047 287.474,81.603 C288.686,80.16 289.292,78.841 289.292,77.647 C289.292,76.926 288.993,76.565 288.396,76.565 C287.752,76.565 287.01,77.106 286.175,78.188 C285.434,79.147 284.598,80.683 283.667,82.798 L283.04,84.216 C282.754,84.253 282.55,84.272 282.431,84.272 C281.165,84.272 280.233,83.662 279.636,82.443 C279.254,82.903 279.064,83.202 279.064,83.339 C279.064,83.774 279.433,84.147 280.175,84.458 C280.783,84.707 281.332,84.831 281.822,84.831 C282.144,84.831 282.473,84.794 282.807,84.719 C280.92,88.912 278.604,92.563 275.857,95.673 L275.516,95.318 C274.477,94.236 273.916,93.657 273.832,93.583 C272.196,92.115 270.602,91.381 269.05,91.381 C268.118,91.381 267.3,91.586 266.595,91.997 C265.067,92.892 264.302,94.317 264.302,96.27 C264.302,97.527 264.672,98.596 265.414,99.479 C266.201,100.4 267.193,100.86 268.386,100.86 C270.464,100.86 272.716,99.572 275.141,96.998 C276.37,98.354 277.266,99.293 277.827,99.815 L277.934,99.89 L278.598,100.506 C280.687,102.446 282.867,103.416 285.136,103.416 C287.309,103.416 288.975,102.502 290.133,100.673 L289.865,100.506 Z M239.099,99.033 C237.928,99.033 236.859,98.778 235.892,98.268 C233.814,97.174 232.775,95.469 232.775,93.155 C232.775,91.439 233.521,89.952 235.014,88.696 C235.921,87.937 237.176,87.166 238.776,86.382 L239.045,86.251 C238.996,86.799 238.973,87.284 238.973,87.707 C238.973,91.849 240.561,95.165 243.738,97.653 C242.269,98.573 240.722,99.033 239.099,99.033 Z M245.207,82.445 C244.084,83.365 242.466,84.28 240.352,85.188 L240.048,85.319 C240.192,84.161 240.52,83.067 241.033,82.034 C242.132,79.82 243.488,78.713 245.1,78.713 C246.079,78.713 246.568,79.186 246.568,80.131 C246.568,80.927 246.114,81.698 245.207,82.445 Z M253.68,92.614 C253.596,92.614 253.465,92.708 253.285,92.894 L253.143,93.044 C253.692,93.466 253.967,94.007 253.967,94.667 C253.967,95.388 253.751,96.073 253.322,96.719 C252.39,98.113 251.005,98.809 249.166,98.809 C247.625,98.809 246.216,98.293 244.939,97.26 C247.087,95.482 248.163,93.348 248.163,90.86 C248.163,90.288 248.062,89.591 247.858,88.77 C248.288,88.845 248.647,88.883 248.933,88.883 C249.793,88.883 250.605,88.721 251.368,88.397 L251.244,88.043 C250.527,88.354 249.75,88.509 248.915,88.509 C248.485,88.509 248.072,88.453 247.678,88.341 C247.524,87.956 247.303,87.576 247.016,87.203 C246.454,86.469 245.9,86.102 245.351,86.102 C245.052,86.102 244.902,86.245 244.902,86.531 C244.902,87.302 245.72,87.999 247.357,88.621 C247.619,89.355 247.751,90.127 247.751,90.935 C247.751,92.129 247.467,93.277 246.9,94.378 C246.332,95.479 245.572,96.346 244.615,96.981 C243.684,96.234 242.861,95.295 242.144,94.163 C240.699,91.886 239.976,89.324 239.976,86.475 C239.976,86.301 239.988,86.065 240.012,85.766 L242.842,84.385 C245.9,82.905 247.428,81.362 247.428,79.757 C247.428,78.651 246.813,78.097 245.582,78.097 C244.723,78.097 243.869,78.402 243.022,79.011 C241.158,80.355 239.91,82.345 239.277,84.983 L239.153,85.505 C239.14,85.53 239.131,85.555 239.126,85.58 C239.12,85.605 239.104,85.673 239.081,85.785 L238.883,85.878 C238.848,85.903 238.823,85.922 238.812,85.934 L238.113,86.289 C237.372,86.687 236.847,86.979 236.537,87.166 C235.331,87.85 234.494,88.391 234.029,88.789 C232.392,90.182 231.575,91.831 231.575,93.734 C231.575,95.575 232.256,97.037 233.616,98.119 C234.847,99.102 236.376,99.593 238.203,99.593 C240.305,99.593 242.257,99.021 244.061,97.876 C245.673,98.884 247.207,99.388 248.664,99.388 C250.24,99.388 251.626,98.884 252.82,97.876 C253.967,96.906 254.54,95.724 254.54,94.331 C254.54,93.187 254.254,92.614 253.68,92.614 Z M223.227,91.588 C223.168,91.588 223.066,91.675 222.923,91.849 C222.003,92.994 221.09,93.995 220.182,94.854 C218.402,96.546 216.796,97.522 215.363,97.783 C216.689,96.813 217.352,95.737 217.352,94.555 C217.352,93.958 217.243,93.435 217.029,92.987 C216.361,92.005 215.817,91.283 215.399,90.823 L215.31,90.693 C215.273,90.655 215.25,90.605 215.238,90.543 C215.238,90.506 215.256,90.468 215.291,90.431 L215.452,90.226 C215.811,89.766 215.99,89.324 215.99,88.901 C215.99,88.528 215.84,88.341 215.543,88.341 C215.267,88.341 215.023,88.515 214.808,88.863 C214.629,89.162 214.539,89.467 214.539,89.778 C214.539,90.014 214.605,90.319 214.737,90.693 L214.629,90.804 C214.45,91.004 214.318,91.159 214.234,91.271 C213.758,91.806 213.518,92.117 213.518,92.204 C213.518,92.303 213.566,92.353 213.661,92.353 C213.758,92.353 213.864,92.279 213.984,92.129 L214.467,91.532 L214.646,91.308 C214.671,91.283 214.712,91.237 214.772,91.168 C214.832,91.1 214.873,91.053 214.898,91.028 L215.166,91.439 C215.609,92.111 215.901,92.676 216.044,93.137 C216.176,93.547 216.241,94.002 216.241,94.499 C216.241,95.27 216.044,95.967 215.65,96.589 C215.232,97.26 214.683,97.69 214.001,97.876 C213.572,97.814 212.968,97.653 212.193,97.391 C211.822,97.267 211.566,97.205 211.422,97.205 C211.111,97.205 210.956,97.348 210.956,97.634 C210.956,98.194 211.572,98.473 212.801,98.473 C213.1,98.473 213.542,98.411 214.127,98.287 C214.281,98.237 214.401,98.212 214.485,98.212 C215.154,98.175 215.799,98.05 216.421,97.839 C217.639,97.416 218.91,96.57 220.236,95.301 C221.465,94.007 222.374,93.025 222.959,92.353 C223.245,92.005 223.388,91.8 223.388,91.737 C223.388,91.638 223.335,91.588 223.227,91.588 Z M208.681,92.129 C207.738,93.261 206.591,93.827 205.242,93.827 C204.967,93.827 204.741,93.802 204.562,93.753 C204.931,92.894 205.331,92.216 205.762,91.718 C206.801,90.524 207.714,89.927 208.503,89.927 C209.039,89.927 209.309,90.182 209.309,90.693 C209.309,91.153 209.099,91.632 208.681,92.129 Z M213.984,91.607 C213.912,91.607 213.82,91.672 213.706,91.802 C213.592,91.933 213.512,92.029 213.465,92.092 L213.034,92.595 C212.091,93.703 211.177,94.667 210.294,95.488 C208.658,97.006 207.279,97.764 206.155,97.764 C205.558,97.764 205.078,97.559 204.714,97.149 C204.35,96.738 204.167,96.222 204.167,95.6 C204.167,95.189 204.245,94.704 204.4,94.144 C204.782,94.182 205.032,94.2 205.152,94.2 C205.881,94.2 206.64,94.002 207.427,93.603 C209.207,92.708 210.097,91.619 210.097,90.338 C210.097,89.654 209.709,89.312 208.932,89.312 C208.18,89.312 207.32,89.716 206.353,90.524 C205.493,91.246 204.752,92.111 204.132,93.118 C203.426,94.275 203.074,95.357 203.074,96.365 C203.074,97.074 203.29,97.668 203.719,98.147 C204.15,98.626 204.704,98.865 205.385,98.865 C206.353,98.865 207.541,98.312 208.95,97.205 C210.192,96.222 211.709,94.686 213.5,92.595 C213.918,92.111 214.127,91.831 214.127,91.756 C214.127,91.656 214.079,91.607 213.984,91.607 Z M205.457,91.663 C205.409,91.663 205.255,91.812 204.991,92.111 C204.286,92.919 203.505,93.74 202.645,94.573 C200.913,96.253 199.677,97.092 198.937,97.092 C198.351,97.092 198.059,96.713 198.059,95.954 C198.059,95.594 198.244,94.63 198.613,93.062 C198.698,92.701 198.739,92.403 198.739,92.167 C198.739,91.681 198.483,91.439 197.97,91.439 C197.121,91.439 195.855,92.042 194.171,93.249 C193.336,93.846 192.53,94.511 191.753,95.245 L190.803,96.141 L190.535,96.402 C190.583,96.042 190.774,95.295 191.108,94.163 C191.395,93.18 191.539,92.471 191.539,92.036 C191.539,91.513 191.312,91.252 190.858,91.252 C190.189,91.252 188.851,91.918 186.845,93.249 C185.28,94.393 184.128,95.27 183.388,95.88 L183.244,95.992 C183.531,95.171 183.902,94.263 184.355,93.267 C184.904,92.061 185.363,91.153 185.734,90.543 L185.914,90.244 C185.448,90.394 185.03,90.562 184.66,90.748 C184.17,91.545 183.681,92.465 183.191,93.51 C182.247,95.525 181.776,96.869 181.776,97.541 C181.776,97.764 181.859,97.876 182.026,97.876 C182.121,97.876 182.247,97.783 182.403,97.596 C183.585,96.216 185.293,94.773 187.526,93.267 C188.863,92.372 189.705,91.924 190.051,91.924 C190.302,91.924 190.428,92.067 190.428,92.353 C190.428,92.528 190.374,92.782 190.267,93.118 L189.962,94.07 C189.521,95.45 189.299,96.465 189.299,97.112 C189.299,97.584 189.455,97.82 189.764,97.82 C189.812,97.82 190.469,97.174 191.735,95.88 C192.594,94.997 193.526,94.2 194.53,93.491 C195.796,92.595 196.644,92.148 197.073,92.148 C197.384,92.148 197.539,92.328 197.539,92.689 C197.539,92.851 197.45,93.293 197.271,94.014 C197.044,94.935 196.931,95.656 196.931,96.178 C196.931,97.273 197.389,97.82 198.31,97.82 C199.11,97.82 200.124,97.31 201.355,96.29 C202.429,95.395 203.445,94.405 204.4,93.323 L205.152,92.465 C205.463,92.117 205.618,91.905 205.618,91.831 C205.618,91.718 205.564,91.663 205.457,91.663 Z M184.498,91.588 C184.438,91.588 184.355,91.65 184.248,91.775 C183.459,92.683 182.498,93.137 181.364,93.137 C180.874,93.137 180.366,93.037 179.841,92.838 C179.519,92.229 179.167,91.924 178.784,91.924 C178.545,91.924 178.425,92.024 178.425,92.222 C178.425,92.509 178.718,92.77 179.303,93.006 C179.34,93.006 179.393,93.025 179.464,93.062 L179.536,93.099 C179.56,93.112 179.577,93.125 179.59,93.137 C179.674,93.473 179.716,93.802 179.716,94.126 C179.716,95.059 179.429,95.892 178.856,96.626 C178.247,97.398 177.506,97.783 176.634,97.783 C175.966,97.783 175.422,97.516 175.005,96.981 C174.622,96.483 174.432,95.874 174.432,95.152 C174.432,93.995 174.807,92.944 175.56,91.999 C176.347,90.991 177.285,90.487 178.372,90.487 C178.67,90.487 179.01,90.605 179.393,90.841 C179.464,90.867 179.524,90.891 179.572,90.916 C179.668,90.916 179.783,90.841 179.922,90.693 C180.059,90.543 180.128,90.419 180.128,90.319 C180.128,90.033 179.703,89.89 178.856,89.89 C178.008,89.89 177.159,90.195 176.312,90.804 C174.366,92.21 173.391,93.945 173.391,96.01 C173.391,96.806 173.624,97.491 174.09,98.063 C174.556,98.635 175.166,98.921 175.918,98.921 C176.563,98.921 177.213,98.685 177.87,98.212 C179.34,97.155 180.074,95.805 180.074,94.163 C180.074,94.014 180.055,93.716 180.02,93.267 C180.569,93.404 181.016,93.473 181.364,93.473 C182.426,93.473 183.364,93.106 184.176,92.372 C184.487,92.086 184.642,91.881 184.642,91.756 C184.642,91.644 184.594,91.588 184.498,91.588 Z M156.267,93.323 C155.813,93.859 155.347,94.393 154.869,94.928 C154.177,95.699 153.55,96.353 152.989,96.887 C152.093,97.746 151.236,98.411 150.418,98.884 C149.6,99.357 148.905,99.593 148.331,99.593 C147.46,99.593 147.024,99.127 147.024,98.194 C147.024,96.925 147.836,95.513 149.46,93.958 C150.606,92.863 151.95,91.874 153.49,90.991 C155.95,89.561 158.243,88.609 160.369,88.136 C159.175,89.753 157.807,91.483 156.267,93.323 Z M175.524,74.85 C175.333,74.999 174.939,75.435 174.342,76.156 L172.658,78.209 C171.822,79.229 170.729,80.722 169.38,82.687 C168.4,84.118 167.51,85.524 166.711,86.904 C165.683,86.929 164.734,86.992 163.862,87.091 C162.871,87.203 161.993,87.352 161.229,87.539 L161.444,87.221 C162.745,85.306 163.587,84.031 163.969,83.396 C164.447,82.612 164.859,81.898 165.206,81.251 L165.707,80.318 C166.089,79.609 166.28,79.142 166.28,78.918 C166.28,78.781 166.215,78.713 166.083,78.713 C166.024,78.713 165.886,78.762 165.672,78.862 C165.6,79.384 165.408,79.969 165.098,80.616 C164.656,81.537 164.077,82.569 163.361,83.714 C163.17,84 162.519,84.995 161.408,86.699 C161.097,87.159 160.864,87.489 160.709,87.688 C160.626,87.713 160.569,87.725 160.539,87.725 C160.509,87.725 160.476,87.738 160.441,87.763 L160.136,87.838 C159.228,88.061 158.196,88.404 157.037,88.863 C154.935,89.697 153.03,90.73 151.323,91.961 C149.734,93.106 148.484,94.275 147.57,95.469 C146.656,96.663 146.199,97.739 146.199,98.697 C146.199,99.842 146.719,100.414 147.758,100.414 C149,100.414 150.666,99.481 152.756,97.615 C154.033,96.471 155.085,95.37 155.908,94.312 L156.285,93.827 L157.574,92.316 C157.801,92.054 158.034,91.769 158.273,91.457 C158.834,90.736 159.169,90.3 159.277,90.151 C159.431,89.952 159.545,89.803 159.617,89.703 C159.688,89.604 159.742,89.535 159.778,89.498 L160.494,88.509 C160.518,88.485 160.542,88.453 160.566,88.416 C160.59,88.379 160.613,88.347 160.638,88.322 C160.721,88.211 160.787,88.124 160.835,88.061 L160.925,87.949 C162.871,87.539 164.567,87.334 166.012,87.334 L166.46,87.334 C166.388,87.483 166.343,87.567 166.325,87.586 C166.307,87.604 166.299,87.62 166.299,87.632 L165.582,88.92 C163.337,92.95 162.214,96.023 162.214,98.137 C162.214,98.847 162.387,99.431 162.734,99.892 C163.115,100.389 163.635,100.638 164.292,100.638 C164.829,100.638 165.498,100.458 166.299,100.097 C167.994,99.325 170.042,97.758 172.443,95.395 C173.804,94.051 174.855,92.888 175.595,91.905 L175.362,91.644 L175.148,91.886 C172.926,94.4 171.123,96.185 169.738,97.242 C167.97,98.598 166.549,99.276 165.474,99.276 C164.435,99.276 163.916,98.629 163.916,97.335 C163.916,96.701 164.041,95.929 164.292,95.021 C164.602,93.902 165.074,92.658 165.707,91.289 C165.982,90.68 166.567,89.486 167.463,87.707 L167.642,87.352 C168.92,87.427 169.994,87.576 170.866,87.8 C170.95,87.676 170.992,87.557 170.992,87.445 C170.992,87.272 170.842,87.147 170.544,87.072 C170.197,86.986 169.32,86.923 167.91,86.886 L168.054,86.587 C168.854,85.119 169.463,84.049 169.881,83.378 C170.514,82.333 171.266,81.188 172.138,79.945 C172.389,79.584 172.795,79.03 173.356,78.283 C174.025,77.388 174.479,76.797 174.718,76.511 L176.473,74.383 C176.091,74.508 175.774,74.664 175.524,74.85 Z M138.64,95.637 C138.222,95.637 137.834,95.774 137.476,96.048 C137.082,96.334 136.884,96.689 136.884,97.112 C136.884,97.509 137.046,97.708 137.368,97.708 C137.416,97.708 137.482,97.696 137.565,97.671 L137.78,97.615 L137.888,97.615 C138.067,97.615 138.156,97.702 138.156,97.876 C138.156,98.05 138.049,98.256 137.834,98.492 C137.404,98.965 136.622,99.506 135.488,100.115 L135.684,100.451 C136.329,100.177 136.986,99.792 137.655,99.295 C138.968,98.312 139.625,97.404 139.625,96.57 C139.625,95.948 139.297,95.637 138.64,95.637 Z M137.046,91.588 C136.986,91.588 136.884,91.675 136.741,91.849 C135.822,92.994 134.908,93.995 134.001,94.854 C132.221,96.546 130.615,97.522 129.182,97.783 C130.508,96.813 131.17,95.737 131.17,94.555 C131.17,93.958 131.063,93.435 130.848,92.987 C130.179,92.005 129.635,91.283 129.217,90.823 L129.128,90.693 C129.092,90.655 129.068,90.605 129.056,90.543 C129.056,90.506 129.074,90.468 129.11,90.431 L129.271,90.226 C129.63,89.766 129.809,89.324 129.809,88.901 C129.809,88.528 129.659,88.341 129.361,88.341 C129.086,88.341 128.842,88.515 128.627,88.863 C128.447,89.162 128.358,89.467 128.358,89.778 C128.358,90.014 128.424,90.319 128.555,90.693 L128.447,90.804 C128.268,91.004 128.137,91.159 128.053,91.271 C127.575,91.806 127.337,92.117 127.337,92.204 C127.337,92.303 127.384,92.353 127.48,92.353 C127.575,92.353 127.683,92.279 127.802,92.129 L128.286,91.532 L128.465,91.308 C128.489,91.283 128.531,91.237 128.591,91.168 C128.651,91.1 128.692,91.053 128.716,91.028 L128.985,91.439 C129.426,92.111 129.719,92.676 129.863,93.137 C129.994,93.547 130.06,94.002 130.06,94.499 C130.06,95.27 129.863,95.967 129.468,96.589 C129.051,97.26 128.501,97.69 127.821,97.876 C127.39,97.814 126.787,97.653 126.011,97.391 C125.641,97.267 125.384,97.205 125.241,97.205 C124.93,97.205 124.775,97.348 124.775,97.634 C124.775,98.194 125.39,98.473 126.62,98.473 C126.919,98.473 127.361,98.411 127.946,98.287 C128.101,98.237 128.22,98.212 128.304,98.212 C128.973,98.175 129.617,98.05 130.239,97.839 C131.457,97.416 132.729,96.57 134.054,95.301 C135.284,94.007 136.192,93.025 136.777,92.353 C137.064,92.005 137.207,91.8 137.207,91.737 C137.207,91.638 137.153,91.588 137.046,91.588 Z M127.982,91.663 C127.934,91.663 127.779,91.812 127.516,92.111 C126.811,92.919 126.029,93.74 125.169,94.573 C123.438,96.253 122.201,97.092 121.461,97.092 C120.876,97.092 120.583,96.713 120.583,95.954 C120.583,95.594 120.768,94.63 121.139,93.062 C121.222,92.701 121.264,92.403 121.264,92.167 C121.264,91.681 121.007,91.439 120.494,91.439 C119.646,91.439 118.38,92.042 116.696,93.249 C115.86,93.846 115.054,94.511 114.278,95.245 L113.328,96.141 L113.06,96.402 C113.108,96.042 113.299,95.295 113.633,94.163 C113.92,93.18 114.063,92.471 114.063,92.036 C114.063,91.513 113.836,91.252 113.382,91.252 C112.713,91.252 111.376,91.918 109.37,93.249 C107.805,94.393 106.653,95.27 105.912,95.88 L105.769,95.992 C106.055,95.171 106.426,94.263 106.88,93.267 C107.429,92.061 107.889,91.153 108.259,90.543 L108.438,90.244 C107.972,90.394 107.554,90.562 107.184,90.748 C106.695,91.545 106.205,92.465 105.716,93.51 C104.772,95.525 104.3,96.869 104.3,97.541 C104.3,97.764 104.384,97.876 104.551,97.876 C104.646,97.876 104.772,97.783 104.927,97.596 C106.11,96.216 107.817,94.773 110.051,93.267 C111.388,92.372 112.23,91.924 112.576,91.924 C112.827,91.924 112.952,92.067 112.952,92.353 C112.952,92.528 112.899,92.782 112.791,93.118 L112.487,94.07 C112.045,95.45 111.824,96.465 111.824,97.112 C111.824,97.584 111.979,97.82 112.289,97.82 C112.337,97.82 112.994,97.174 114.26,95.88 C115.12,94.997 116.051,94.2 117.054,93.491 C118.32,92.595 119.168,92.148 119.598,92.148 C119.908,92.148 120.064,92.328 120.064,92.689 C120.064,92.851 119.974,93.293 119.795,94.014 C119.568,94.935 119.455,95.656 119.455,96.178 C119.455,97.273 119.914,97.82 120.834,97.82 C121.634,97.82 122.649,97.31 123.88,96.29 C124.954,95.395 125.969,94.405 126.925,93.323 L127.677,92.465 C127.988,92.117 128.143,91.905 128.143,91.831 C128.143,91.718 128.089,91.663 127.982,91.663 Z M106.916,91.625 C106.88,91.625 106.832,91.656 106.772,91.718 L106.611,91.886 L106.092,92.502 C105.47,93.237 104.736,94.027 103.888,94.872 C102.049,96.701 100.64,97.615 99.661,97.615 C99.218,97.615 98.851,97.45 98.559,97.121 C98.266,96.791 98.12,96.396 98.12,95.936 C98.12,94.854 98.735,93.51 99.965,91.905 L100.592,91.084 C100.699,90.972 100.753,90.841 100.753,90.693 C100.753,90.419 100.61,90.282 100.323,90.282 C100.204,90.282 99.882,90.419 99.356,90.693 C98.639,91.066 97.988,91.252 97.403,91.252 C97.26,91.252 97.111,91.227 96.956,91.177 C97.051,91.041 97.123,90.947 97.171,90.898 C97.768,90.089 98.066,89.51 98.066,89.162 C98.066,88.826 97.917,88.658 97.618,88.658 C97.272,88.658 96.962,88.88 96.687,89.321 C96.412,89.762 96.275,90.176 96.275,90.562 C96.275,90.773 96.34,90.997 96.472,91.234 C96.412,91.308 96.34,91.395 96.257,91.495 L95.988,91.849 C95.976,91.862 95.967,91.874 95.962,91.886 C95.955,91.899 95.946,91.912 95.935,91.924 L95.827,92.036 C95.791,92.073 95.767,92.123 95.756,92.185 C95.756,92.272 95.803,92.316 95.899,92.316 C95.982,92.316 96.143,92.173 96.382,91.886 L96.687,91.513 L96.705,91.495 C96.716,91.483 96.723,91.47 96.723,91.457 C97.009,91.557 97.278,91.607 97.529,91.607 C97.791,91.607 98.126,91.538 98.532,91.402 C98.783,91.315 98.944,91.271 99.016,91.271 C99.111,91.271 99.159,91.308 99.159,91.383 C99.147,91.445 99.088,91.551 98.98,91.7 C97.63,93.479 96.956,94.984 96.956,96.216 C96.956,96.85 97.147,97.366 97.529,97.764 C97.911,98.162 98.406,98.362 99.016,98.362 C100.736,98.362 103.303,96.34 106.718,92.297 C106.957,92.011 107.077,91.837 107.077,91.775 C107.077,91.675 107.023,91.625 106.916,91.625 Z M96.132,91.718 C96.048,91.718 95.851,91.905 95.541,92.279 L95.111,92.801 C94.489,93.547 93.594,94.462 92.424,95.544 C91.002,96.85 89.957,97.503 89.289,97.503 C89.002,97.503 88.769,97.388 88.59,97.158 C88.411,96.928 88.321,96.639 88.321,96.29 C88.321,95.208 88.757,93.914 89.629,92.409 C89.474,92.222 89.33,92.129 89.199,92.129 C89.08,92.129 88.924,92.179 88.734,92.279 C88.1,93.41 87.348,94.449 86.476,95.395 C85.306,96.663 84.273,97.298 83.377,97.298 C83.007,97.298 82.688,97.171 82.419,96.915 C82.15,96.661 82.016,96.321 82.016,95.899 C82.016,94.941 82.607,93.759 83.789,92.353 C84.506,91.507 85.389,90.779 86.441,90.17 C87.611,89.498 88.686,89.162 89.665,89.162 C91.002,89.162 91.671,89.635 91.671,90.58 C91.671,91.289 91.223,91.918 90.328,92.465 L90.399,92.689 C91.808,92.092 92.513,91.283 92.513,90.263 C92.513,89.181 91.713,88.64 90.112,88.64 C89.348,88.64 88.459,88.845 87.444,89.256 C85.592,90.014 84.004,91.172 82.678,92.726 C81.437,94.194 80.816,95.507 80.816,96.663 C80.816,97.161 80.956,97.569 81.236,97.885 C81.517,98.203 81.884,98.362 82.338,98.362 C83.664,98.362 85.288,97.292 87.211,95.152 L87.462,94.872 C87.33,95.631 87.264,96.185 87.264,96.533 C87.264,97.777 87.748,98.399 88.715,98.399 C89.133,98.399 89.671,98.194 90.328,97.783 C91.116,97.286 91.987,96.57 92.943,95.637 C93.504,95.09 94.287,94.257 95.29,93.137 C95.946,92.403 96.275,91.987 96.275,91.886 C96.275,91.775 96.227,91.718 96.132,91.718 Z M91.185,85.337 L90.271,85.356 C87.846,85.405 85.524,85.71 83.303,86.27 L81.153,86.811 L80.777,86.904 C81.422,85.773 81.989,84.821 82.479,84.049 C84.007,81.661 85.375,79.752 86.581,78.321 L86.85,78.004 C86.742,77.966 86.658,77.947 86.599,77.947 C86.288,77.947 85.673,78.626 84.754,79.982 L83.303,82.109 C83.171,82.296 83.004,82.55 82.801,82.874 C82.658,83.086 82.544,83.259 82.461,83.396 L82.299,83.639 C82.18,83.838 82.096,83.975 82.049,84.049 C81.428,85.045 81.093,85.58 81.046,85.654 L80.437,86.68 L80.222,87.054 C80.066,87.104 79.971,87.135 79.935,87.147 L79.147,87.389 C78.681,87.527 77.965,87.775 76.997,88.136 C75.611,88.684 74.603,89.094 73.97,89.367 L73.665,89.498 L73.576,90.021 L73.952,89.834 C75.839,88.901 77.845,88.136 79.971,87.539 C79.947,87.613 79.923,87.676 79.899,87.725 L79.792,87.875 L79.254,88.883 C77.929,91.37 76.86,94.064 76.048,96.962 C75.224,99.91 74.812,102.491 74.812,104.706 C74.812,105.502 74.943,105.9 75.206,105.9 C75.301,105.9 75.409,105.844 75.528,105.732 L76.478,104.818 C76.502,104.793 76.526,104.774 76.549,104.762 L76.729,104.557 C76.489,103.698 76.37,102.784 76.37,101.814 C76.37,98.766 77.141,95.283 78.681,91.364 C79.326,89.722 79.941,88.391 80.526,87.371 C81.302,87.147 82.132,86.936 83.016,86.737 C85.201,86.251 87.017,86.009 88.462,86.009 C89.549,86.009 90.588,86.133 91.579,86.382 L91.668,86.214 C91.859,85.891 91.955,85.698 91.955,85.635 C91.955,85.424 91.698,85.325 91.185,85.337 Z M95.126,75.373 C91.424,75.373 86.838,76.561 81.368,78.937 C80.926,79.123 80.484,79.304 80.043,79.478 C79.553,79.764 79.284,80.125 79.237,80.56 C79.702,80.237 80.276,79.913 80.956,79.59 C82.616,78.806 84.354,78.103 86.169,77.481 C89.453,76.362 92.212,75.802 94.445,75.802 C96.308,75.802 97.239,76.213 97.239,77.033 C97.239,77.569 96.672,77.985 95.538,78.283 L95.555,78.638 C97.203,78.253 98.028,77.624 98.028,76.754 C98.028,75.833 97.06,75.373 95.126,75.373 Z" id="Fill-22" fill="#5D9142"></path>
        <path d="M333.567,94.257 C333.399,94.257 333.059,94.506 332.545,95.003 C332.116,96.284 331.901,97.298 331.901,98.044 C331.901,98.442 332.026,98.641 332.277,98.641 C332.432,98.641 332.737,98.48 333.191,98.156 C333.215,97.783 333.326,97.118 333.53,96.16 C333.735,95.239 333.835,94.704 333.835,94.555 C333.835,94.356 333.745,94.257 333.567,94.257 Z M340.051,77.817 C339.717,77.817 339.077,78.122 338.135,78.732 C337.62,79.664 337.035,80.828 336.379,82.221 C335.447,84.211 334.701,86.245 334.14,88.322 C333.625,90.238 333.369,91.669 333.369,92.614 C333.369,92.826 333.442,92.931 333.584,92.931 C333.703,92.931 333.763,92.869 333.763,92.745 C333.787,90.717 334.54,88.124 336.021,84.964 C337.155,82.563 338.469,80.51 339.961,78.806 C340.236,78.495 340.374,78.271 340.374,78.134 C340.374,77.923 340.267,77.817 340.051,77.817 Z M326.705,85.953 C325.488,87.993 324.383,89.66 323.391,90.954 C323.535,90.195 323.81,89.187 324.215,87.931 C325.052,85.319 325.994,83.173 327.046,81.493 C328.264,79.54 329.117,78.564 329.608,78.564 C329.799,78.564 329.894,78.7 329.894,78.974 C329.894,80.081 328.831,82.407 326.705,85.953 Z M331.113,91.607 C331.053,91.619 330.957,91.7 330.825,91.849 C330.754,91.949 330.653,92.067 330.521,92.204 L330.378,92.353 C330.307,92.453 330.24,92.533 330.181,92.595 C327.494,95.681 325.529,97.223 324.287,97.223 C323.391,97.223 322.944,96.316 322.944,94.499 C322.944,93.976 323.028,93.143 323.195,91.999 L324.162,90.636 C324.747,89.803 325.345,88.907 325.953,87.949 C326.742,86.718 327.345,85.729 327.763,84.983 C329.53,81.873 330.413,79.677 330.413,78.396 C330.413,78.022 330.276,77.836 330.001,77.836 C329.476,77.836 328.741,78.439 327.798,79.646 C327.153,80.466 326.586,81.313 326.097,82.183 C324.281,85.405 323.051,88.46 322.405,91.345 L322.155,92.465 L322.084,92.745 C321.331,93.678 320.544,94.524 319.719,95.283 C318.513,96.39 317.57,96.944 316.889,96.944 C316.16,96.944 315.797,96.495 315.797,95.6 C315.797,94.816 316.166,93.914 316.907,92.894 C317.23,92.446 317.617,92.029 318.071,91.644 C318.99,90.86 319.827,90.468 320.579,90.468 C320.806,90.468 321.086,90.58 321.421,90.804 L321.923,90.3 C321.565,90.077 321.182,89.965 320.777,89.965 C319.976,89.965 319.009,90.388 317.875,91.234 C317.063,91.843 316.364,92.595 315.779,93.491 C315.086,94.536 314.739,95.507 314.739,96.402 C314.739,97.46 315.212,97.988 316.155,97.988 C316.883,97.988 317.66,97.684 318.483,97.074 C319.403,96.402 320.454,95.37 321.637,93.976 L321.923,93.64 C321.923,93.529 321.905,93.662 321.869,94.042 C321.833,94.422 321.816,94.804 321.816,95.189 C321.816,97.193 322.418,98.194 323.624,98.194 C324.543,98.194 325.822,97.435 327.458,95.917 C328.878,94.599 330.026,93.398 330.898,92.316 C331.016,92.167 331.088,92.08 331.113,92.054 C331.22,91.943 331.274,91.849 331.274,91.775 C331.274,91.663 331.22,91.607 331.113,91.607 Z M317.463,91.663 C317.403,91.663 317.289,91.762 317.122,91.961 C316.644,92.533 316.107,93.131 315.51,93.753 C313.396,95.98 311.903,97.092 311.031,97.092 C310.434,97.092 310.136,96.719 310.136,95.973 C310.136,95.575 310.26,94.767 310.512,93.547 C310.679,92.726 310.763,92.192 310.763,91.943 C310.763,91.42 310.541,91.159 310.1,91.159 C309.85,91.159 309.502,91.256 309.061,91.448 C308.619,91.641 308.106,91.912 307.521,92.26 C306.338,92.969 304.821,94.051 302.97,95.507 C302.541,95.842 302.289,96.01 302.217,96.01 C302.11,96.01 302.056,95.948 302.056,95.824 C302.056,95.674 302.248,95.177 302.63,94.331 C303.203,93.075 303.932,91.7 304.816,90.207 C304.242,90.344 303.806,90.493 303.508,90.655 C302.947,91.501 302.362,92.59 301.753,93.921 C301.036,95.513 300.677,96.67 300.677,97.391 C300.677,97.777 300.773,97.969 300.964,97.969 C301.083,97.969 301.352,97.739 301.77,97.279 C302.953,95.986 304.767,94.543 307.216,92.95 C308.171,92.328 308.822,92.017 309.168,92.017 C309.467,92.017 309.617,92.197 309.617,92.558 C309.617,92.72 309.586,92.931 309.527,93.193 C309.335,94.039 309.186,94.754 309.079,95.339 C309.031,95.6 309.007,95.911 309.007,96.272 C309.007,97.317 309.438,97.839 310.297,97.839 C311.67,97.839 313.551,96.495 315.939,93.809 L317.051,92.558 C317.42,92.135 317.605,91.893 317.605,91.831 C317.605,91.718 317.557,91.663 317.463,91.663 Z M302.863,91.718 C302.78,91.718 302.582,91.905 302.272,92.279 L301.842,92.801 C301.221,93.547 300.325,94.462 299.155,95.544 C297.734,96.85 296.689,97.503 296.021,97.503 C295.734,97.503 295.501,97.388 295.322,97.158 C295.143,96.928 295.052,96.639 295.052,96.29 C295.052,95.208 295.489,93.914 296.361,92.409 C296.205,92.222 296.062,92.129 295.93,92.129 C295.811,92.129 295.656,92.179 295.465,92.279 C294.832,93.41 294.079,94.449 293.207,95.395 C292.037,96.663 291.004,97.298 290.109,97.298 C289.738,97.298 289.419,97.171 289.151,96.915 C288.881,96.661 288.747,96.321 288.747,95.899 C288.747,94.941 289.338,93.759 290.521,92.353 C291.237,91.507 292.121,90.779 293.172,90.17 C294.342,89.498 295.417,89.162 296.396,89.162 C297.734,89.162 298.402,89.635 298.402,90.58 C298.402,91.289 297.954,91.918 297.059,92.465 L297.13,92.689 C298.54,92.092 299.245,91.283 299.245,90.263 C299.245,89.181 298.445,88.64 296.843,88.64 C296.079,88.64 295.19,88.845 294.175,89.256 C292.323,90.014 290.736,91.172 289.41,92.726 C288.168,94.194 287.547,95.507 287.547,96.663 C287.547,97.161 287.687,97.569 287.967,97.885 C288.249,98.203 288.615,98.362 289.07,98.362 C290.395,98.362 292.02,97.292 293.943,95.152 L294.193,94.872 C294.061,95.631 293.996,96.185 293.996,96.533 C293.996,97.777 294.479,98.399 295.446,98.399 C295.864,98.399 296.402,98.194 297.059,97.783 C297.847,97.286 298.719,96.57 299.674,95.637 C300.236,95.09 301.018,94.257 302.021,93.137 C302.677,92.403 303.007,91.987 303.007,91.886 C303.007,91.775 302.959,91.718 302.863,91.718 Z M268.996,100.207 C267.838,100.207 266.84,99.799 266.004,98.985 C265.169,98.17 264.75,97.153 264.75,95.934 C264.75,94.889 265.091,93.978 265.771,93.2 C266.452,92.423 267.288,92.034 268.279,92.034 C270.058,92.034 272.262,93.583 274.889,96.68 C272.787,99.031 270.823,100.207 268.996,100.207 Z M287.894,80.465 C286.748,82.281 285.267,83.5 283.452,84.122 L283.632,83.712 C284.79,81.049 285.864,79.184 286.856,78.114 C287.249,77.691 287.614,77.479 287.948,77.479 C288.426,77.479 288.665,77.747 288.665,78.282 C288.665,78.929 288.408,79.656 287.894,80.465 Z M289.865,100.506 C288.754,102.123 287.334,102.931 285.602,102.931 C284.073,102.931 282.317,102.048 280.335,100.281 C278.782,98.901 277.367,97.458 276.09,95.952 C276.174,95.841 276.244,95.747 276.304,95.673 L277.039,94.796 C277.875,93.788 278.717,92.637 279.565,91.343 C280.377,90.087 281.009,89.049 281.463,88.227 C281.977,87.282 282.568,86.069 283.238,84.589 C284.85,84.042 286.261,83.047 287.474,81.603 C288.686,80.16 289.292,78.841 289.292,77.647 C289.292,76.926 288.993,76.565 288.396,76.565 C287.752,76.565 287.01,77.106 286.175,78.188 C285.434,79.147 284.598,80.683 283.667,82.798 L283.04,84.216 C282.754,84.253 282.55,84.272 282.431,84.272 C281.165,84.272 280.233,83.662 279.636,82.443 C279.254,82.903 279.064,83.202 279.064,83.339 C279.064,83.774 279.433,84.147 280.175,84.458 C280.783,84.707 281.332,84.831 281.822,84.831 C282.144,84.831 282.473,84.794 282.807,84.719 C280.92,88.912 278.604,92.563 275.857,95.673 L275.516,95.318 C274.477,94.236 273.916,93.657 273.832,93.583 C272.196,92.115 270.602,91.381 269.05,91.381 C268.118,91.381 267.3,91.586 266.595,91.997 C265.067,92.892 264.302,94.317 264.302,96.27 C264.302,97.527 264.672,98.596 265.414,99.479 C266.201,100.4 267.193,100.86 268.386,100.86 C270.464,100.86 272.716,99.572 275.141,96.998 C276.37,98.354 277.266,99.293 277.827,99.815 L277.934,99.89 L278.598,100.506 C280.687,102.446 282.867,103.416 285.136,103.416 C287.309,103.416 288.975,102.502 290.133,100.673 L289.865,100.506 Z M239.099,99.033 C237.928,99.033 236.859,98.778 235.892,98.268 C233.814,97.174 232.775,95.469 232.775,93.155 C232.775,91.439 233.521,89.952 235.014,88.696 C235.921,87.937 237.176,87.166 238.776,86.382 L239.045,86.251 C238.996,86.799 238.973,87.284 238.973,87.707 C238.973,91.849 240.561,95.165 243.738,97.653 C242.269,98.573 240.722,99.033 239.099,99.033 Z M245.207,82.445 C244.084,83.365 242.466,84.28 240.352,85.188 L240.048,85.319 C240.192,84.161 240.52,83.067 241.033,82.034 C242.132,79.82 243.488,78.713 245.1,78.713 C246.079,78.713 246.568,79.186 246.568,80.131 C246.568,80.927 246.114,81.698 245.207,82.445 Z M253.68,92.614 C253.596,92.614 253.465,92.708 253.285,92.894 L253.143,93.044 C253.692,93.466 253.967,94.007 253.967,94.667 C253.967,95.388 253.751,96.073 253.322,96.719 C252.39,98.113 251.005,98.809 249.166,98.809 C247.625,98.809 246.216,98.293 244.939,97.26 C247.087,95.482 248.163,93.348 248.163,90.86 C248.163,90.288 248.062,89.591 247.858,88.77 C248.288,88.845 248.647,88.883 248.933,88.883 C249.793,88.883 250.605,88.721 251.368,88.397 L251.244,88.043 C250.527,88.354 249.75,88.509 248.915,88.509 C248.485,88.509 248.072,88.453 247.678,88.341 C247.524,87.956 247.303,87.576 247.016,87.203 C246.454,86.469 245.9,86.102 245.351,86.102 C245.052,86.102 244.902,86.245 244.902,86.531 C244.902,87.302 245.72,87.999 247.357,88.621 C247.619,89.355 247.751,90.127 247.751,90.935 C247.751,92.129 247.467,93.277 246.9,94.378 C246.332,95.479 245.572,96.346 244.615,96.981 C243.684,96.234 242.861,95.295 242.144,94.163 C240.699,91.886 239.976,89.324 239.976,86.475 C239.976,86.301 239.988,86.065 240.012,85.766 L242.842,84.385 C245.9,82.905 247.428,81.362 247.428,79.757 C247.428,78.651 246.813,78.097 245.582,78.097 C244.723,78.097 243.869,78.402 243.022,79.011 C241.158,80.355 239.91,82.345 239.277,84.983 L239.153,85.505 C239.14,85.53 239.131,85.555 239.126,85.58 C239.12,85.605 239.104,85.673 239.081,85.785 L238.883,85.878 C238.848,85.903 238.823,85.922 238.812,85.934 L238.113,86.289 C237.372,86.687 236.847,86.979 236.537,87.166 C235.331,87.85 234.494,88.391 234.029,88.789 C232.392,90.182 231.575,91.831 231.575,93.734 C231.575,95.575 232.256,97.037 233.616,98.119 C234.847,99.102 236.376,99.593 238.203,99.593 C240.305,99.593 242.257,99.021 244.061,97.876 C245.673,98.884 247.207,99.388 248.664,99.388 C250.24,99.388 251.626,98.884 252.82,97.876 C253.967,96.906 254.54,95.724 254.54,94.331 C254.54,93.187 254.254,92.614 253.68,92.614 Z M223.227,91.588 C223.168,91.588 223.066,91.675 222.923,91.849 C222.003,92.994 221.09,93.995 220.182,94.854 C218.402,96.546 216.796,97.522 215.363,97.783 C216.689,96.813 217.352,95.737 217.352,94.555 C217.352,93.958 217.243,93.435 217.029,92.987 C216.361,92.005 215.817,91.283 215.399,90.823 L215.31,90.693 C215.273,90.655 215.25,90.605 215.238,90.543 C215.238,90.506 215.256,90.468 215.291,90.431 L215.452,90.226 C215.811,89.766 215.99,89.324 215.99,88.901 C215.99,88.528 215.84,88.341 215.543,88.341 C215.267,88.341 215.023,88.515 214.808,88.863 C214.629,89.162 214.539,89.467 214.539,89.778 C214.539,90.014 214.605,90.319 214.737,90.693 L214.629,90.804 C214.45,91.004 214.318,91.159 214.234,91.271 C213.758,91.806 213.518,92.117 213.518,92.204 C213.518,92.303 213.566,92.353 213.661,92.353 C213.758,92.353 213.864,92.279 213.984,92.129 L214.467,91.532 L214.646,91.308 C214.671,91.283 214.712,91.237 214.772,91.168 C214.832,91.1 214.873,91.053 214.898,91.028 L215.166,91.439 C215.609,92.111 215.901,92.676 216.044,93.137 C216.176,93.547 216.241,94.002 216.241,94.499 C216.241,95.27 216.044,95.967 215.65,96.589 C215.232,97.26 214.683,97.69 214.001,97.876 C213.572,97.814 212.968,97.653 212.193,97.391 C211.822,97.267 211.566,97.205 211.422,97.205 C211.111,97.205 210.956,97.348 210.956,97.634 C210.956,98.194 211.572,98.473 212.801,98.473 C213.1,98.473 213.542,98.411 214.127,98.287 C214.281,98.237 214.401,98.212 214.485,98.212 C215.154,98.175 215.799,98.05 216.421,97.839 C217.639,97.416 218.91,96.57 220.236,95.301 C221.465,94.007 222.374,93.025 222.959,92.353 C223.245,92.005 223.388,91.8 223.388,91.737 C223.388,91.638 223.335,91.588 223.227,91.588 Z M208.681,92.129 C207.738,93.261 206.591,93.827 205.242,93.827 C204.967,93.827 204.741,93.802 204.562,93.753 C204.931,92.894 205.331,92.216 205.762,91.718 C206.801,90.524 207.714,89.927 208.503,89.927 C209.039,89.927 209.309,90.182 209.309,90.693 C209.309,91.153 209.099,91.632 208.681,92.129 Z M213.984,91.607 C213.912,91.607 213.82,91.672 213.706,91.802 C213.592,91.933 213.512,92.029 213.465,92.092 L213.034,92.595 C212.091,93.703 211.177,94.667 210.294,95.488 C208.658,97.006 207.279,97.764 206.155,97.764 C205.558,97.764 205.078,97.559 204.714,97.149 C204.35,96.738 204.167,96.222 204.167,95.6 C204.167,95.189 204.245,94.704 204.4,94.144 C204.782,94.182 205.032,94.2 205.152,94.2 C205.881,94.2 206.64,94.002 207.427,93.603 C209.207,92.708 210.097,91.619 210.097,90.338 C210.097,89.654 209.709,89.312 208.932,89.312 C208.18,89.312 207.32,89.716 206.353,90.524 C205.493,91.246 204.752,92.111 204.132,93.118 C203.426,94.275 203.074,95.357 203.074,96.365 C203.074,97.074 203.29,97.668 203.719,98.147 C204.15,98.626 204.704,98.865 205.385,98.865 C206.353,98.865 207.541,98.312 208.95,97.205 C210.192,96.222 211.709,94.686 213.5,92.595 C213.918,92.111 214.127,91.831 214.127,91.756 C214.127,91.656 214.079,91.607 213.984,91.607 Z M205.457,91.663 C205.409,91.663 205.255,91.812 204.991,92.111 C204.286,92.919 203.505,93.74 202.645,94.573 C200.913,96.253 199.677,97.092 198.937,97.092 C198.351,97.092 198.059,96.713 198.059,95.954 C198.059,95.594 198.244,94.63 198.613,93.062 C198.698,92.701 198.739,92.403 198.739,92.167 C198.739,91.681 198.483,91.439 197.97,91.439 C197.121,91.439 195.855,92.042 194.171,93.249 C193.336,93.846 192.53,94.511 191.753,95.245 L190.803,96.141 L190.535,96.402 C190.583,96.042 190.774,95.295 191.108,94.163 C191.395,93.18 191.539,92.471 191.539,92.036 C191.539,91.513 191.312,91.252 190.858,91.252 C190.189,91.252 188.851,91.918 186.845,93.249 C185.28,94.393 184.128,95.27 183.388,95.88 L183.244,95.992 C183.531,95.171 183.902,94.263 184.355,93.267 C184.904,92.061 185.363,91.153 185.734,90.543 L185.914,90.244 C185.448,90.394 185.03,90.562 184.66,90.748 C184.17,91.545 183.681,92.465 183.191,93.51 C182.247,95.525 181.776,96.869 181.776,97.541 C181.776,97.764 181.859,97.876 182.026,97.876 C182.121,97.876 182.247,97.783 182.403,97.596 C183.585,96.216 185.293,94.773 187.526,93.267 C188.863,92.372 189.705,91.924 190.051,91.924 C190.302,91.924 190.428,92.067 190.428,92.353 C190.428,92.528 190.374,92.782 190.267,93.118 L189.962,94.07 C189.521,95.45 189.299,96.465 189.299,97.112 C189.299,97.584 189.455,97.82 189.764,97.82 C189.812,97.82 190.469,97.174 191.735,95.88 C192.594,94.997 193.526,94.2 194.53,93.491 C195.796,92.595 196.644,92.148 197.073,92.148 C197.384,92.148 197.539,92.328 197.539,92.689 C197.539,92.851 197.45,93.293 197.271,94.014 C197.044,94.935 196.931,95.656 196.931,96.178 C196.931,97.273 197.389,97.82 198.31,97.82 C199.11,97.82 200.124,97.31 201.355,96.29 C202.429,95.395 203.445,94.405 204.4,93.323 L205.152,92.465 C205.463,92.117 205.618,91.905 205.618,91.831 C205.618,91.718 205.564,91.663 205.457,91.663 Z M184.498,91.588 C184.438,91.588 184.355,91.65 184.248,91.775 C183.459,92.683 182.498,93.137 181.364,93.137 C180.874,93.137 180.366,93.037 179.841,92.838 C179.519,92.229 179.167,91.924 178.784,91.924 C178.545,91.924 178.425,92.024 178.425,92.222 C178.425,92.509 178.718,92.77 179.303,93.006 C179.34,93.006 179.393,93.025 179.464,93.062 L179.536,93.099 C179.56,93.112 179.577,93.125 179.59,93.137 C179.674,93.473 179.716,93.802 179.716,94.126 C179.716,95.059 179.429,95.892 178.856,96.626 C178.247,97.398 177.506,97.783 176.634,97.783 C175.966,97.783 175.422,97.516 175.005,96.981 C174.622,96.483 174.432,95.874 174.432,95.152 C174.432,93.995 174.807,92.944 175.56,91.999 C176.347,90.991 177.285,90.487 178.372,90.487 C178.67,90.487 179.01,90.605 179.393,90.841 C179.464,90.867 179.524,90.891 179.572,90.916 C179.668,90.916 179.783,90.841 179.922,90.693 C180.059,90.543 180.128,90.419 180.128,90.319 C180.128,90.033 179.703,89.89 178.856,89.89 C178.008,89.89 177.159,90.195 176.312,90.804 C174.366,92.21 173.391,93.945 173.391,96.01 C173.391,96.806 173.624,97.491 174.09,98.063 C174.556,98.635 175.166,98.921 175.918,98.921 C176.563,98.921 177.213,98.685 177.87,98.212 C179.34,97.155 180.074,95.805 180.074,94.163 C180.074,94.014 180.055,93.716 180.02,93.267 C180.569,93.404 181.016,93.473 181.364,93.473 C182.426,93.473 183.364,93.106 184.176,92.372 C184.487,92.086 184.642,91.881 184.642,91.756 C184.642,91.644 184.594,91.588 184.498,91.588 Z M156.267,93.323 C155.813,93.859 155.347,94.393 154.869,94.928 C154.177,95.699 153.55,96.353 152.989,96.887 C152.093,97.746 151.236,98.411 150.418,98.884 C149.6,99.357 148.905,99.593 148.331,99.593 C147.46,99.593 147.024,99.127 147.024,98.194 C147.024,96.925 147.836,95.513 149.46,93.958 C150.606,92.863 151.95,91.874 153.49,90.991 C155.95,89.561 158.243,88.609 160.369,88.136 C159.175,89.753 157.807,91.483 156.267,93.323 Z M175.524,74.85 C175.333,74.999 174.939,75.435 174.342,76.156 L172.658,78.209 C171.822,79.229 170.729,80.722 169.38,82.687 C168.4,84.118 167.51,85.524 166.711,86.904 C165.683,86.929 164.734,86.992 163.862,87.091 C162.871,87.203 161.993,87.352 161.229,87.539 L161.444,87.221 C162.745,85.306 163.587,84.031 163.969,83.396 C164.447,82.612 164.859,81.898 165.206,81.251 L165.707,80.318 C166.089,79.609 166.28,79.142 166.28,78.918 C166.28,78.781 166.215,78.713 166.083,78.713 C166.024,78.713 165.886,78.762 165.672,78.862 C165.6,79.384 165.408,79.969 165.098,80.616 C164.656,81.537 164.077,82.569 163.361,83.714 C163.17,84 162.519,84.995 161.408,86.699 C161.097,87.159 160.864,87.489 160.709,87.688 C160.626,87.713 160.569,87.725 160.539,87.725 C160.509,87.725 160.476,87.738 160.441,87.763 L160.136,87.838 C159.228,88.061 158.196,88.404 157.037,88.863 C154.935,89.697 153.03,90.73 151.323,91.961 C149.734,93.106 148.484,94.275 147.57,95.469 C146.656,96.663 146.199,97.739 146.199,98.697 C146.199,99.842 146.719,100.414 147.758,100.414 C149,100.414 150.666,99.481 152.756,97.615 C154.033,96.471 155.085,95.37 155.908,94.312 L156.285,93.827 L157.574,92.316 C157.801,92.054 158.034,91.769 158.273,91.457 C158.834,90.736 159.169,90.3 159.277,90.151 C159.431,89.952 159.545,89.803 159.617,89.703 C159.688,89.604 159.742,89.535 159.778,89.498 L160.494,88.509 C160.518,88.485 160.542,88.453 160.566,88.416 C160.59,88.379 160.613,88.347 160.638,88.322 C160.721,88.211 160.787,88.124 160.835,88.061 L160.925,87.949 C162.871,87.539 164.567,87.334 166.012,87.334 L166.46,87.334 C166.388,87.483 166.343,87.567 166.325,87.586 C166.307,87.604 166.299,87.62 166.299,87.632 L165.582,88.92 C163.337,92.95 162.214,96.023 162.214,98.137 C162.214,98.847 162.387,99.431 162.734,99.892 C163.115,100.389 163.635,100.638 164.292,100.638 C164.829,100.638 165.498,100.458 166.299,100.097 C167.994,99.325 170.042,97.758 172.443,95.395 C173.804,94.051 174.855,92.888 175.595,91.905 L175.362,91.644 L175.148,91.886 C172.926,94.4 171.123,96.185 169.738,97.242 C167.97,98.598 166.549,99.276 165.474,99.276 C164.435,99.276 163.916,98.629 163.916,97.335 C163.916,96.701 164.041,95.929 164.292,95.021 C164.602,93.902 165.074,92.658 165.707,91.289 C165.982,90.68 166.567,89.486 167.463,87.707 L167.642,87.352 C168.92,87.427 169.994,87.576 170.866,87.8 C170.95,87.676 170.992,87.557 170.992,87.445 C170.992,87.272 170.842,87.147 170.544,87.072 C170.197,86.986 169.32,86.923 167.91,86.886 L168.054,86.587 C168.854,85.119 169.463,84.049 169.881,83.378 C170.514,82.333 171.266,81.188 172.138,79.945 C172.389,79.584 172.795,79.03 173.356,78.283 C174.025,77.388 174.479,76.797 174.718,76.511 L176.473,74.383 C176.091,74.508 175.774,74.664 175.524,74.85 Z M138.64,95.637 C138.222,95.637 137.834,95.774 137.476,96.048 C137.082,96.334 136.884,96.689 136.884,97.112 C136.884,97.509 137.046,97.708 137.368,97.708 C137.416,97.708 137.482,97.696 137.565,97.671 L137.78,97.615 L137.888,97.615 C138.067,97.615 138.156,97.702 138.156,97.876 C138.156,98.05 138.049,98.256 137.834,98.492 C137.404,98.965 136.622,99.506 135.488,100.115 L135.684,100.451 C136.329,100.177 136.986,99.792 137.655,99.295 C138.968,98.312 139.625,97.404 139.625,96.57 C139.625,95.948 139.297,95.637 138.64,95.637 Z M137.046,91.588 C136.986,91.588 136.884,91.675 136.741,91.849 C135.822,92.994 134.908,93.995 134.001,94.854 C132.221,96.546 130.615,97.522 129.182,97.783 C130.508,96.813 131.17,95.737 131.17,94.555 C131.17,93.958 131.063,93.435 130.848,92.987 C130.179,92.005 129.635,91.283 129.217,90.823 L129.128,90.693 C129.092,90.655 129.068,90.605 129.056,90.543 C129.056,90.506 129.074,90.468 129.11,90.431 L129.271,90.226 C129.63,89.766 129.809,89.324 129.809,88.901 C129.809,88.528 129.659,88.341 129.361,88.341 C129.086,88.341 128.842,88.515 128.627,88.863 C128.447,89.162 128.358,89.467 128.358,89.778 C128.358,90.014 128.424,90.319 128.555,90.693 L128.447,90.804 C128.268,91.004 128.137,91.159 128.053,91.271 C127.575,91.806 127.337,92.117 127.337,92.204 C127.337,92.303 127.384,92.353 127.48,92.353 C127.575,92.353 127.683,92.279 127.802,92.129 L128.286,91.532 L128.465,91.308 C128.489,91.283 128.531,91.237 128.591,91.168 C128.651,91.1 128.692,91.053 128.716,91.028 L128.985,91.439 C129.426,92.111 129.719,92.676 129.863,93.137 C129.994,93.547 130.06,94.002 130.06,94.499 C130.06,95.27 129.863,95.967 129.468,96.589 C129.051,97.26 128.501,97.69 127.821,97.876 C127.39,97.814 126.787,97.653 126.011,97.391 C125.641,97.267 125.384,97.205 125.241,97.205 C124.93,97.205 124.775,97.348 124.775,97.634 C124.775,98.194 125.39,98.473 126.62,98.473 C126.919,98.473 127.361,98.411 127.946,98.287 C128.101,98.237 128.22,98.212 128.304,98.212 C128.973,98.175 129.617,98.05 130.239,97.839 C131.457,97.416 132.729,96.57 134.054,95.301 C135.284,94.007 136.192,93.025 136.777,92.353 C137.064,92.005 137.207,91.8 137.207,91.737 C137.207,91.638 137.153,91.588 137.046,91.588 Z M127.982,91.663 C127.934,91.663 127.779,91.812 127.516,92.111 C126.811,92.919 126.029,93.74 125.169,94.573 C123.438,96.253 122.201,97.092 121.461,97.092 C120.876,97.092 120.583,96.713 120.583,95.954 C120.583,95.594 120.768,94.63 121.139,93.062 C121.222,92.701 121.264,92.403 121.264,92.167 C121.264,91.681 121.007,91.439 120.494,91.439 C119.646,91.439 118.38,92.042 116.696,93.249 C115.86,93.846 115.054,94.511 114.278,95.245 L113.328,96.141 L113.06,96.402 C113.108,96.042 113.299,95.295 113.633,94.163 C113.92,93.18 114.063,92.471 114.063,92.036 C114.063,91.513 113.836,91.252 113.382,91.252 C112.713,91.252 111.376,91.918 109.37,93.249 C107.805,94.393 106.653,95.27 105.912,95.88 L105.769,95.992 C106.055,95.171 106.426,94.263 106.88,93.267 C107.429,92.061 107.889,91.153 108.259,90.543 L108.438,90.244 C107.972,90.394 107.554,90.562 107.184,90.748 C106.695,91.545 106.205,92.465 105.716,93.51 C104.772,95.525 104.3,96.869 104.3,97.541 C104.3,97.764 104.384,97.876 104.551,97.876 C104.646,97.876 104.772,97.783 104.927,97.596 C106.11,96.216 107.817,94.773 110.051,93.267 C111.388,92.372 112.23,91.924 112.576,91.924 C112.827,91.924 112.952,92.067 112.952,92.353 C112.952,92.528 112.899,92.782 112.791,93.118 L112.487,94.07 C112.045,95.45 111.824,96.465 111.824,97.112 C111.824,97.584 111.979,97.82 112.289,97.82 C112.337,97.82 112.994,97.174 114.26,95.88 C115.12,94.997 116.051,94.2 117.054,93.491 C118.32,92.595 119.168,92.148 119.598,92.148 C119.908,92.148 120.064,92.328 120.064,92.689 C120.064,92.851 119.974,93.293 119.795,94.014 C119.568,94.935 119.455,95.656 119.455,96.178 C119.455,97.273 119.914,97.82 120.834,97.82 C121.634,97.82 122.649,97.31 123.88,96.29 C124.954,95.395 125.969,94.405 126.925,93.323 L127.677,92.465 C127.988,92.117 128.143,91.905 128.143,91.831 C128.143,91.718 128.089,91.663 127.982,91.663 Z M106.916,91.625 C106.88,91.625 106.832,91.656 106.772,91.718 L106.611,91.886 L106.092,92.502 C105.47,93.237 104.736,94.027 103.888,94.872 C102.049,96.701 100.64,97.615 99.661,97.615 C99.218,97.615 98.851,97.45 98.559,97.121 C98.266,96.791 98.12,96.396 98.12,95.936 C98.12,94.854 98.735,93.51 99.965,91.905 L100.592,91.084 C100.699,90.972 100.753,90.841 100.753,90.693 C100.753,90.419 100.61,90.282 100.323,90.282 C100.204,90.282 99.882,90.419 99.356,90.693 C98.639,91.066 97.988,91.252 97.403,91.252 C97.26,91.252 97.111,91.227 96.956,91.177 C97.051,91.041 97.123,90.947 97.171,90.898 C97.768,90.089 98.066,89.51 98.066,89.162 C98.066,88.826 97.917,88.658 97.618,88.658 C97.272,88.658 96.962,88.88 96.687,89.321 C96.412,89.762 96.275,90.176 96.275,90.562 C96.275,90.773 96.34,90.997 96.472,91.234 C96.412,91.308 96.34,91.395 96.257,91.495 L95.988,91.849 C95.976,91.862 95.967,91.874 95.962,91.886 C95.955,91.899 95.946,91.912 95.935,91.924 L95.827,92.036 C95.791,92.073 95.767,92.123 95.756,92.185 C95.756,92.272 95.803,92.316 95.899,92.316 C95.982,92.316 96.143,92.173 96.382,91.886 L96.687,91.513 L96.705,91.495 C96.716,91.483 96.723,91.47 96.723,91.457 C97.009,91.557 97.278,91.607 97.529,91.607 C97.791,91.607 98.126,91.538 98.532,91.402 C98.783,91.315 98.944,91.271 99.016,91.271 C99.111,91.271 99.159,91.308 99.159,91.383 C99.147,91.445 99.088,91.551 98.98,91.7 C97.63,93.479 96.956,94.984 96.956,96.216 C96.956,96.85 97.147,97.366 97.529,97.764 C97.911,98.162 98.406,98.362 99.016,98.362 C100.736,98.362 103.303,96.34 106.718,92.297 C106.957,92.011 107.077,91.837 107.077,91.775 C107.077,91.675 107.023,91.625 106.916,91.625 Z M96.132,91.718 C96.048,91.718 95.851,91.905 95.541,92.279 L95.111,92.801 C94.489,93.547 93.594,94.462 92.424,95.544 C91.002,96.85 89.957,97.503 89.289,97.503 C89.002,97.503 88.769,97.388 88.59,97.158 C88.411,96.928 88.321,96.639 88.321,96.29 C88.321,95.208 88.757,93.914 89.629,92.409 C89.474,92.222 89.33,92.129 89.199,92.129 C89.08,92.129 88.924,92.179 88.734,92.279 C88.1,93.41 87.348,94.449 86.476,95.395 C85.306,96.663 84.273,97.298 83.377,97.298 C83.007,97.298 82.688,97.171 82.419,96.915 C82.15,96.661 82.016,96.321 82.016,95.899 C82.016,94.941 82.607,93.759 83.789,92.353 C84.506,91.507 85.389,90.779 86.441,90.17 C87.611,89.498 88.686,89.162 89.665,89.162 C91.002,89.162 91.671,89.635 91.671,90.58 C91.671,91.289 91.223,91.918 90.328,92.465 L90.399,92.689 C91.808,92.092 92.513,91.283 92.513,90.263 C92.513,89.181 91.713,88.64 90.112,88.64 C89.348,88.64 88.459,88.845 87.444,89.256 C85.592,90.014 84.004,91.172 82.678,92.726 C81.437,94.194 80.816,95.507 80.816,96.663 C80.816,97.161 80.956,97.569 81.236,97.885 C81.517,98.203 81.884,98.362 82.338,98.362 C83.664,98.362 85.288,97.292 87.211,95.152 L87.462,94.872 C87.33,95.631 87.264,96.185 87.264,96.533 C87.264,97.777 87.748,98.399 88.715,98.399 C89.133,98.399 89.671,98.194 90.328,97.783 C91.116,97.286 91.987,96.57 92.943,95.637 C93.504,95.09 94.287,94.257 95.29,93.137 C95.946,92.403 96.275,91.987 96.275,91.886 C96.275,91.775 96.227,91.718 96.132,91.718 Z M91.185,85.337 L90.271,85.356 C87.846,85.405 85.524,85.71 83.303,86.27 L81.153,86.811 L80.777,86.904 C81.422,85.773 81.989,84.821 82.479,84.049 C84.007,81.661 85.375,79.752 86.581,78.321 L86.85,78.004 C86.742,77.966 86.658,77.947 86.599,77.947 C86.288,77.947 85.673,78.626 84.754,79.982 L83.303,82.109 C83.171,82.296 83.004,82.55 82.801,82.874 C82.658,83.086 82.544,83.259 82.461,83.396 L82.299,83.639 C82.18,83.838 82.096,83.975 82.049,84.049 C81.428,85.045 81.093,85.58 81.046,85.654 L80.437,86.68 L80.222,87.054 C80.066,87.104 79.971,87.135 79.935,87.147 L79.147,87.389 C78.681,87.527 77.965,87.775 76.997,88.136 C75.611,88.684 74.603,89.094 73.97,89.367 L73.665,89.498 L73.576,90.021 L73.952,89.834 C75.839,88.901 77.845,88.136 79.971,87.539 C79.947,87.613 79.923,87.676 79.899,87.725 L79.792,87.875 L79.254,88.883 C77.929,91.37 76.86,94.064 76.048,96.962 C75.224,99.91 74.812,102.491 74.812,104.706 C74.812,105.502 74.943,105.9 75.206,105.9 C75.301,105.9 75.409,105.844 75.528,105.732 L76.478,104.818 C76.502,104.793 76.526,104.774 76.549,104.762 L76.729,104.557 C76.489,103.698 76.37,102.784 76.37,101.814 C76.37,98.766 77.141,95.283 78.681,91.364 C79.326,89.722 79.941,88.391 80.526,87.371 C81.302,87.147 82.132,86.936 83.016,86.737 C85.201,86.251 87.017,86.009 88.462,86.009 C89.549,86.009 90.588,86.133 91.579,86.382 L91.668,86.214 C91.859,85.891 91.955,85.698 91.955,85.635 C91.955,85.424 91.698,85.325 91.185,85.337 Z M95.126,75.373 C91.424,75.373 86.838,76.561 81.368,78.937 C80.926,79.123 80.484,79.304 80.043,79.478 C79.553,79.764 79.284,80.125 79.237,80.56 C79.702,80.237 80.276,79.913 80.956,79.59 C82.616,78.806 84.354,78.103 86.169,77.481 C89.453,76.362 92.212,75.802 94.445,75.802 C96.308,75.802 97.239,76.213 97.239,77.033 C97.239,77.569 96.672,77.985 95.538,78.283 L95.555,78.638 C97.203,78.253 98.028,77.624 98.028,76.754 C98.028,75.833 97.06,75.373 95.126,75.373 Z" id="Stroke-23" stroke="#4F8835" stroke-width="0.2"></path>
        <path d="M143.859,78.099 C143.859,78.215 143.963,78.319 144.078,78.319 L144.634,78.319 C144.818,78.319 144.946,78.296 144.946,78.099 L144.946,75.157 C144.992,75.077 145.316,74.59 145.988,74.59 C146.138,74.59 146.312,74.636 146.382,74.671 C146.486,74.717 146.602,74.695 146.659,74.567 L146.937,74.001 C147.065,73.688 146.532,73.572 146.092,73.572 C145.247,73.572 144.818,74.128 144.738,74.243 L144.61,73.85 C144.587,73.758 144.494,73.688 144.413,73.688 L144.078,73.688 C143.963,73.688 143.859,73.793 143.859,73.908 L143.859,78.099 Z M139.249,75.992 C139.249,75.216 139.828,74.579 140.558,74.579 C141.288,74.579 141.868,75.216 141.868,75.992 C141.868,76.792 141.288,77.441 140.558,77.441 C139.828,77.441 139.249,76.792 139.249,75.992 Z M138.22,75.992 C138.22,77.324 139.261,78.435 140.558,78.435 C141.856,78.435 142.897,77.324 142.897,75.992 C142.897,74.683 141.856,73.572 140.558,73.572 C139.261,73.572 138.22,74.683 138.22,75.992 Z M135.288,78.099 C135.288,78.215 135.392,78.319 135.508,78.319 L136.19,78.319 C136.306,78.319 136.41,78.215 136.41,78.099 L136.41,74.648 L137.66,74.648 C137.788,74.648 137.881,74.544 137.881,74.428 L137.881,73.908 C137.881,73.781 137.788,73.688 137.66,73.688 L136.41,73.688 L136.41,72.252 C136.41,71.475 136.769,71.105 137.278,71.105 C137.556,71.105 137.892,71.279 138.043,71.383 C138.158,71.464 138.274,71.452 138.332,71.348 L138.621,70.827 C138.668,70.746 138.656,70.631 138.575,70.561 C138.367,70.376 137.881,70.098 137.255,70.098 C136.144,70.098 135.288,70.816 135.288,72.252 L135.288,73.688 L134.743,73.688 C134.616,73.688 134.524,73.781 134.524,73.908 L134.524,74.428 C134.524,74.544 134.616,74.648 134.743,74.648 L135.288,74.648 L135.288,78.099 Z M128.606,77.961 C128.849,78.157 129.358,78.435 130.134,78.435 C131.165,78.435 131.847,77.799 131.847,77.081 C131.847,76.212 131.154,75.853 130.308,75.482 C129.856,75.285 129.566,75.158 129.566,74.857 C129.566,74.683 129.694,74.509 130.088,74.509 C130.529,74.509 131.038,74.753 131.038,74.753 C131.13,74.799 131.28,74.764 131.339,74.66 L131.547,74.266 C131.616,74.151 131.558,74 131.454,73.931 C131.223,73.781 130.737,73.572 130.088,73.572 C128.976,73.572 128.502,74.266 128.502,74.845 C128.502,75.61 129.104,76.05 129.821,76.363 C130.459,76.653 130.714,76.803 130.714,77.116 C130.714,77.371 130.494,77.51 130.146,77.51 C129.578,77.51 129.069,77.209 129.069,77.209 C128.953,77.139 128.826,77.174 128.78,77.267 L128.537,77.718 C128.49,77.811 128.537,77.915 128.606,77.961 Z M123.167,78.099 C123.167,78.215 123.271,78.319 123.387,78.319 L123.988,78.319 C124.185,78.319 124.254,78.25 124.254,78.099 L124.254,75.274 C124.312,75.112 124.81,74.579 125.54,74.579 C126.143,74.579 126.502,74.984 126.502,75.725 L126.502,78.099 C126.502,78.215 126.595,78.319 126.722,78.319 L127.381,78.319 C127.497,78.319 127.601,78.215 127.601,78.099 L127.601,75.772 C127.601,74.567 127.081,73.572 125.668,73.572 C124.741,73.572 124.127,74.128 124.046,74.22 L123.907,73.827 C123.884,73.746 123.815,73.688 123.722,73.688 L123.387,73.688 C123.271,73.688 123.167,73.793 123.167,73.908 L123.167,78.099 Z M119.166,76.872 C119.166,76.397 119.549,76.107 120.105,76.107 C120.522,76.107 120.846,76.246 120.916,76.293 L120.916,77.033 C120.777,77.266 120.337,77.614 119.873,77.614 C119.444,77.614 119.166,77.29 119.166,76.872 Z M118.16,76.884 C118.16,77.845 118.784,78.435 119.653,78.435 C120.371,78.435 120.823,78.088 121.078,77.845 L121.194,78.157 C121.24,78.273 121.286,78.319 121.39,78.319 L121.714,78.319 C121.829,78.319 121.934,78.215 121.934,78.099 L121.934,75.633 C121.934,74.474 121.795,73.572 120.313,73.572 C119.456,73.572 118.796,73.804 118.715,73.839 C118.611,73.873 118.53,73.954 118.565,74.105 L118.657,74.532 C118.692,74.66 118.773,74.753 118.911,74.718 C119.155,74.648 119.676,74.509 120.209,74.509 C120.8,74.509 120.939,74.799 120.927,75.529 C120.927,75.529 120.499,75.391 120.012,75.391 C118.831,75.391 118.16,76.038 118.16,76.883 L118.16,76.884 Z M113.897,75.992 C113.897,75.216 114.476,74.579 115.206,74.579 C115.936,74.579 116.515,75.216 116.515,75.992 C116.515,76.792 115.936,77.441 115.206,77.441 C114.476,77.441 113.897,76.792 113.897,75.992 Z M112.868,75.992 C112.868,77.324 113.908,78.435 115.206,78.435 C116.504,78.435 117.545,77.324 117.545,75.992 C117.545,74.683 116.504,73.572 115.206,73.572 C113.908,73.572 112.868,74.683 112.868,75.992 Z M107.917,78.099 C107.917,78.215 108.009,78.319 108.137,78.319 L112.259,78.319 C112.385,78.319 112.478,78.215 112.478,78.099 L112.478,77.463 C112.478,77.348 112.385,77.244 112.259,77.244 L109.12,77.244 L109.12,70.434 C109.12,70.319 109.016,70.214 108.9,70.214 L108.137,70.214 C108.009,70.214 107.917,70.319 107.917,70.434 L107.917,78.099 Z" id="Fill-25" fill="#4F8835"></path>
    </g>
</svg>