<?xml version="1.0" encoding="UTF-8"?>
<svg width="234px" height="90px" viewBox="0 0 234 90" version="1.1" xmlns="http://www.w3.org/2000/svg" xmlns:xlink="http://www.w3.org/1999/xlink">
    <!-- Generator: Sketch 51.3 (57544) - http://www.bohemiancoding.com/sketch -->
    <title>RiverValley-Black-370</title>
    <desc>Created with Sketch.</desc>
    <defs>
        <polygon id="path-1" points="0.518 0.69 8.399 0.69 8.399 9.94 0.518 9.94"></polygon>
    </defs>
    <g id="RiverValley-Black-370" stroke="none" stroke-width="1" fill="none" fill-rule="evenodd">
        <path d="M35.507,11.546 C29.619,18.2 24.538,25.722 20.264,34.109 C16.473,41.449 14.577,46.63 14.577,49.655 C14.577,50.542 14.819,50.986 15.304,50.986 C15.425,50.986 15.576,50.956 15.757,50.895 C15.938,50.834 16.069,50.804 16.15,50.804 C16.514,50.804 16.694,50.986 16.694,51.349 C16.694,52.075 16.23,52.518 15.304,52.68 C13.609,52.961 12.763,51.671 12.763,48.808 C12.763,44.897 14.194,39.695 17.058,33.202 C20.324,25.863 24.599,18.947 29.882,12.454 C30.244,12.01 30.93,11.637 31.939,11.335 C32.945,11.032 33.854,10.881 34.66,10.881 C35.305,10.881 35.628,11.002 35.628,11.244 C35.628,11.325 35.588,11.425 35.507,11.546 Z M44.943,15.417 C46.193,17.919 46.818,20.217 46.818,22.313 C46.818,25.258 45.609,27.556 43.189,29.209 C40.931,30.782 37.946,31.568 34.237,31.568 C32.462,31.568 30.627,31.387 28.732,31.024 C29.579,38.565 30.486,43.908 31.454,47.054 C32.785,51.208 34.66,53.284 37.08,53.284 C37.765,53.284 38.491,53.143 39.258,52.861 C39.701,52.659 39.923,52.84 39.923,53.405 C39.923,53.566 39.862,53.687 39.741,53.768 C38.612,54.534 37.482,54.917 36.355,54.917 C33.289,54.917 30.587,52.458 28.248,47.538 C25.95,42.78 24.658,37.133 24.377,30.601 C24.296,29.23 25.466,28.161 27.886,27.395 C28.329,27.273 28.611,27.556 28.732,28.242 C28.893,29.049 29.115,29.492 29.397,29.572 C30.446,29.814 31.515,29.935 32.604,29.935 C35.305,29.935 37.604,29.179 39.499,27.667 C41.395,26.155 42.343,24.169 42.343,21.708 C42.343,18.846 40.951,15.841 38.169,12.696 C35.184,9.269 31.776,6.627 27.946,4.772 C24.316,3.038 20.727,2.17 17.179,2.17 C12.662,2.17 8.972,3.481 6.109,6.102 C3.85,8.2 2.722,11.506 2.722,16.022 C2.722,19.733 3.568,23.584 5.262,27.576 C5.343,27.778 5.383,27.96 5.383,28.121 C5.383,28.362 5.302,28.483 5.142,28.483 C4.899,28.483 4.496,28.202 3.932,27.637 C1.311,24.854 0,21.507 0,17.595 C0,14.45 0.877,11.456 2.631,8.612 C4.385,5.77 6.733,3.643 9.678,2.231 C12.621,0.82 15.787,0.114 19.175,0.114 C24.457,0.114 29.579,1.626 34.539,4.65 C39.338,7.595 42.806,11.183 44.943,15.417 Z" id="Fill-1" fill="#1E1E1E"></path>
        <path d="M62.122,17.898 C61.033,19.673 59.924,20.559 58.796,20.559 C58.433,20.559 58.029,20.479 57.586,20.317 C56.657,19.833 56.194,19.168 56.194,18.321 C56.194,17.595 56.577,16.567 57.344,15.236 C58.069,14.026 58.916,13.522 59.885,13.724 C61.618,14.087 62.485,15.076 62.485,16.688 C62.485,17.132 62.364,17.535 62.122,17.898 Z M53.896,29.633 C46.798,40.279 43.25,47.054 43.25,49.958 C43.25,50.644 43.491,50.986 43.976,50.986 C44.62,50.986 45.588,50.441 46.879,49.353 C47.16,49.071 47.424,48.929 47.665,48.929 C47.826,48.929 47.907,49.03 47.907,49.231 C47.907,49.474 47.726,49.797 47.363,50.199 C45.79,51.812 44.339,52.619 43.008,52.619 C41.273,52.619 40.406,51.591 40.406,49.534 C40.406,49.05 40.488,48.526 40.648,47.961 C41.414,44.897 42.705,41.207 44.52,36.892 C46.173,32.899 47.686,29.693 49.057,27.273 C49.097,27.193 49.076,26.932 48.996,26.487 C48.955,26.165 49.197,25.782 49.722,25.338 C49.923,25.177 50.186,25.096 50.509,25.096 C51.234,25.096 52.021,25.51 52.867,26.336 C53.714,27.163 54.138,27.979 54.138,28.786 C54.138,29.109 54.057,29.391 53.896,29.633 Z" id="Fill-2" fill="#1E1E1E"></path>
        <path d="M78.153,25.58 C76.62,26.831 73.092,30.903 67.567,37.799 C63.776,42.558 59.965,47.336 56.135,52.135 C55.69,52.699 54.864,52.982 53.654,52.982 C52.121,52.982 51.497,52.356 51.779,51.107 C54.117,39.412 55.288,32.255 55.288,29.633 C55.288,28.867 55.206,28.423 55.046,28.302 C55.046,26.891 56.658,25.802 59.885,25.036 C60.408,24.875 60.772,24.895 60.974,25.096 C61.175,25.298 61.255,25.661 61.216,26.185 C61.014,27.516 60.248,30.823 58.917,36.105 C57.263,42.719 56.174,47.175 55.65,49.474 C59.319,44.877 62.989,40.3 66.66,35.742 C72.789,28.242 76.459,24.491 77.669,24.491 C78.112,24.491 78.334,24.713 78.334,25.157 C78.334,25.318 78.273,25.459 78.153,25.58" id="Fill-3" fill="#1E1E1E"></path>
        <path d="M89.464,28.242 C87.73,28.242 85.431,29.331 82.567,31.508 C79.181,34.089 76.659,37.194 75.007,40.823 C74.804,41.268 74.743,41.549 74.825,41.67 C74.864,41.792 75.106,41.812 75.551,41.731 C79.543,40.642 83.091,38.827 86.197,36.287 C89.181,33.867 90.673,31.73 90.673,29.875 C90.673,28.786 90.27,28.242 89.464,28.242 Z M92.367,26.427 C92.69,27.032 92.851,27.738 92.851,28.544 C92.851,30.924 91.62,33.323 89.161,35.742 C85.895,38.888 80.833,41.61 73.979,43.908 C73.453,45.159 73.191,46.328 73.191,47.417 C73.191,49.998 74.24,51.288 76.337,51.288 C77.91,51.288 79.644,50.361 81.539,48.506 C81.74,48.345 81.942,48.264 82.145,48.264 C82.426,48.264 82.567,48.445 82.567,48.808 C82.567,49.091 82.467,49.353 82.266,49.594 C80.248,51.974 78.131,53.164 75.914,53.164 C74.26,53.164 72.89,52.488 71.801,51.137 C70.712,49.786 70.167,48.022 70.167,45.844 C70.167,44.433 70.409,42.961 70.893,41.428 C72.667,36.105 75.329,31.791 78.878,28.483 C82.023,25.54 85.067,24.068 88.012,24.068 C90.027,24.068 91.48,24.854 92.367,26.427 Z" id="Fill-4" fill="#1E1E1E"></path>
        <path d="M114.565,30.298 C113.719,31.549 112.831,32.173 111.904,32.173 C111.058,32.173 110.613,31.529 110.573,30.238 C110.532,29.633 110.291,29.331 109.848,29.331 C109.403,29.331 108.839,29.653 108.153,30.295 C104.806,33.272 101.6,36.51 98.536,40.009 C94.624,44.393 91.882,48.174 90.31,51.351 C90.026,51.914 89.462,52.195 88.615,52.195 C87.769,52.195 87.345,51.873 87.345,51.229 C87.345,49.379 88.636,45.396 91.217,39.281 C93.596,33.528 95.451,29.645 96.781,27.633 C97.508,26.587 99.302,26.064 102.165,26.064 C102.729,26.064 103.012,26.366 103.012,26.971 C103.012,27.496 102.771,27.919 102.286,28.242 C101.237,28.928 99.655,31.045 97.538,34.593 C95.421,38.142 93.696,41.57 92.366,44.877 C100.753,34.513 107.367,28 112.207,25.338 C112.649,25.096 113.093,24.975 113.537,24.975 C114.908,24.975 115.594,25.742 115.594,27.273 C115.594,28.202 115.251,29.209 114.565,30.298" id="Fill-5" fill="#1E1E1E"></path>
        <text id="-" font-family="LucidaGrande, Lucida Grande" font-size="50.49" font-weight="normal"></text>
        <path d="M162.072,6.465 C162.596,6.344 162.858,6.40462943 162.858,6.647 C162.858,7.009 162.436,7.433 161.588,7.917 C157.071,10.337 151.003,16.225 143.381,25.58 C137.977,32.234 130.879,41.832 122.088,54.373 C121.645,54.938 121.221,55.22 120.818,55.22 C120.052,55.22 119.688,54.594 119.729,53.345 C119.972,45.32 121.665,32.416 124.811,14.631 C124.932,13.905 125.455,13.291 126.383,12.786 C127.311,12.283 128.198,12.03 129.045,12.03 C130.173,12.03 130.638,12.434 130.436,13.24 C129.186,18.886 127.915,24.512 126.625,30.117 C124.648,39.19 123.641,45.643 123.601,49.474 C127.23,44.231 130.859,38.969 134.489,33.686 C139.812,26.226 144.51,20.338 148.583,16.022 C153.986,10.297 158.482,7.111 162.072,6.465 Z M129.105,8.643 C129.75,8.643 130.073,8.764 130.073,9.006 C130.073,9.369 129.67,9.61 128.863,9.731 C121.806,10.699 116.301,12.635 112.35,15.539 C109.123,17.878 107.511,20.237 107.511,22.616 C107.511,23.584 107.863,24.31 108.569,24.794 C109.274,25.277 109.627,25.58 109.627,25.701 C109.627,25.903 109.386,26.003 108.901,26.003 C108.659,26.003 108.418,25.964 108.176,25.882 C105.797,25.277 104.606,23.665 104.606,21.043 C104.606,17.898 106.422,15.176 110.051,12.877 C114.527,10.055 120.879,8.643 129.105,8.643 Z" id="Fill-6" fill="#1E1E1E"></path>
        <path d="M160.317,29.391 C160.397,29.068 160.438,28.766 160.438,28.483 C160.438,27.435 159.895,26.911 158.806,26.911 C157.475,26.911 155.861,27.617 153.966,29.028 C151.143,31.125 148.603,33.646 146.345,36.589 C143.643,40.098 141.868,43.627 141.021,47.175 C140.779,48.264 140.658,49.131 140.658,49.776 C140.658,50.946 141.021,51.53 141.747,51.53 C142.513,51.53 143.643,50.925 145.135,49.715 C147.675,47.699 150.437,44.877 153.422,41.247 C156.849,37.094 159.128,33.545 160.257,30.601 C160.257,30.319 160.277,29.916 160.317,29.391 Z M163.766,32.113 C162.111,35.501 160.438,38.888 158.745,42.275 C157.051,45.986 155.941,49.333 155.418,52.316 C155.377,52.639 155.115,52.8 154.632,52.8 C153.703,52.8 153.24,52.235 153.24,51.107 C153.24,50.946 153.26,50.744 153.301,50.502 C153.664,48.647 154.138,46.863 154.723,45.149 C155.307,43.435 155.922,41.711 156.567,39.977 C152.614,44.937 149.49,48.405 147.191,50.381 C145.135,52.195 143.359,53.103 141.868,53.103 C139.166,53.103 137.815,51.429 137.815,48.082 C137.815,42.396 141.203,35.904 147.978,28.604 C151.284,25.056 154.45,23.281 157.475,23.281 C160.458,23.281 161.951,24.915 161.951,28.181 C161.951,28.665 161.951,29.189 161.951,29.754 C161.91,30.117 162.223,30.55 162.889,31.054 C163.554,31.559 163.846,31.912 163.766,32.113 Z" id="Fill-7" fill="#1E1E1E"></path>
        <path d="M197.095,5.074 C197.296,5.356 197.397,5.618 197.397,5.86 C197.397,6.264 197.176,6.465 196.732,6.465 C196.449,6.465 196.248,6.324 196.127,6.042 C195.804,5.397 195.32,5.074 194.676,5.074 C191.974,5.074 187.497,9.591 181.247,18.624 C174.995,27.657 170.016,36.913 166.306,46.389 C165.498,48.445 165.096,49.978 165.096,50.986 C165.096,51.913 165.418,52.377 166.063,52.377 C167.192,52.377 168.806,51.309 170.903,49.171 C171.023,49.091 171.185,49.071 171.387,49.11 C171.588,49.192 171.689,49.313 171.689,49.474 C171.689,49.715 171.508,49.978 171.145,50.26 C168.442,52.84 166.325,54.131 164.793,54.131 C163.463,54.131 162.797,53.203 162.797,51.349 C162.797,46.146 165.872,37.708 172.021,26.034 C178.171,14.359 183.403,7.251 187.719,4.711 C189.171,3.864 190.804,3.44 192.619,3.44 C194.715,3.44 196.208,3.985 197.095,5.074" id="Fill-8" fill="#1E1E1E"></path>
        <path d="M208.587,5.074 C208.788,5.356 208.89,5.618 208.89,5.86 C208.89,6.264 208.668,6.465 208.225,6.465 C207.941,6.465 207.74,6.324 207.619,6.042 C207.296,5.397 206.813,5.074 206.168,5.074 C203.466,5.074 198.989,9.591 192.739,18.624 C186.487,27.657 181.508,36.913 177.798,46.389 C176.99,48.445 176.588,49.978 176.588,50.986 C176.588,51.913 176.91,52.377 177.556,52.377 C178.685,52.377 180.298,51.309 182.396,49.171 C182.516,49.091 182.677,49.071 182.879,49.11 C183.08,49.192 183.182,49.313 183.182,49.474 C183.182,49.715 183,49.978 182.637,50.26 C179.935,52.84 177.817,54.131 176.285,54.131 C174.955,54.131 174.289,53.203 174.289,51.349 C174.289,46.146 177.364,37.708 183.514,26.034 C189.663,14.359 194.896,7.251 199.211,4.711 C200.663,3.864 202.296,3.44 204.111,3.44 C206.207,3.44 207.7,3.985 208.587,5.074" id="Fill-9" fill="#1E1E1E"></path>
        <path d="M205.261,28.242 C203.526,28.242 201.228,29.331 198.364,31.508 C194.978,34.089 192.456,37.194 190.804,40.823 C190.601,41.268 190.54,41.549 190.622,41.67 C190.661,41.792 190.903,41.812 191.348,41.731 C195.34,40.642 198.888,38.827 201.994,36.287 C204.978,33.867 206.47,31.73 206.47,29.875 C206.47,28.786 206.066,28.242 205.261,28.242 Z M208.164,26.427 C208.486,27.032 208.647,27.738 208.647,28.544 C208.647,30.924 207.417,33.323 204.958,35.742 C201.691,38.888 196.63,41.61 189.775,43.908 C189.25,45.159 188.988,46.328 188.988,47.417 C188.988,49.998 190.037,51.288 192.134,51.288 C193.707,51.288 195.44,50.361 197.336,48.506 C197.537,48.345 197.739,48.264 197.941,48.264 C198.223,48.264 198.364,48.445 198.364,48.808 C198.364,49.091 198.264,49.353 198.063,49.594 C196.045,51.974 193.928,53.164 191.711,53.164 C190.057,53.164 188.687,52.488 187.598,51.137 C186.509,49.786 185.964,48.022 185.964,45.844 C185.964,44.433 186.206,42.961 186.689,41.428 C188.464,36.105 191.126,31.791 194.675,28.483 C197.82,25.54 200.864,24.068 203.809,24.068 C205.824,24.068 207.276,24.854 208.164,26.427 Z" id="Fill-10" fill="#1E1E1E"></path>
        <path d="M216.208,55.16 C204.715,62.056 198.303,67.862 196.972,72.581 C196.771,73.186 196.67,73.689 196.67,74.093 C196.67,75.141 197.175,75.666 198.182,75.666 C199.231,75.666 200.44,75.201 201.812,74.274 C203.868,72.903 206.267,70.442 209.01,66.895 C211.953,63.063 214.353,59.152 216.208,55.16 Z M233.811,24.068 C230.826,31.004 227.015,39.876 222.378,50.683 C222.297,50.925 222.257,51.127 222.257,51.288 C222.257,51.49 222.327,51.671 222.469,51.833 C222.609,51.993 222.681,52.094 222.681,52.135 C222.681,52.215 222.659,52.296 222.62,52.377 C222.217,52.578 221.551,53.224 220.624,54.313 C214.978,64.355 208.969,71.512 202.598,75.787 C201.065,76.875 199.614,77.42 198.242,77.42 C196.105,77.42 195.036,76.331 195.036,74.153 C195.036,72.54 195.763,70.645 197.214,68.468 C198.787,66.007 200.884,63.729 203.505,61.632 C206.287,59.414 210.421,56.732 215.905,53.587 C216.833,53.021 217.357,52.699 217.479,52.619 C217.841,52.337 218.144,51.913 218.386,51.349 C219.313,49.131 220.261,46.933 221.229,44.755 C222.599,41.489 223.627,38.667 224.313,36.287 C218.063,44.393 213.163,49.676 209.614,52.135 C208.364,52.982 207.295,53.405 206.408,53.405 C204.755,53.405 203.948,52.175 203.989,49.715 C204.028,47.095 204.836,43.908 206.408,40.158 C208.304,35.642 211.127,30.963 214.877,26.125 C215.521,25.277 216.752,24.854 218.567,24.854 C220.261,24.854 221.107,25.177 221.107,25.822 C221.107,25.983 221.047,26.145 220.926,26.306 C216.53,32.033 212.961,37.254 210.22,41.973 C207.639,46.409 206.348,49.374 206.348,50.865 C206.348,51.389 206.55,51.651 206.953,51.651 C207.316,51.651 207.8,51.47 208.404,51.107 C211.309,49.212 215.018,45.481 219.535,39.916 C224.414,33.988 227.943,28.565 230.121,23.644 C230.483,22.879 231.21,22.495 232.298,22.495 C233.387,22.495 233.932,22.858 233.932,23.584 C233.932,23.746 233.891,23.907 233.811,24.068 Z" id="Fill-11" fill="#1E1E1E"></path>
        <path d="M92.751,70.609 L90.237,64.204 L87.623,70.609 L92.751,70.609 Z M90.328,61.439 L96.522,76.743 L95.064,76.743 L93.184,71.755 L87.17,71.755 L85.219,76.743 L83.862,76.743 L90.328,61.439 Z" id="Fill-12" fill="#1E1E1E"></path>
        <path d="M110.08,63.621 C109.208,63.145 108.226,62.907 107.134,62.907 C105.31,62.907 103.825,63.523 102.679,64.757 C101.533,65.99 100.959,67.589 100.959,69.553 C100.959,70.432 101.112,71.26 101.417,72.037 C101.722,72.815 102.166,73.505 102.75,74.108 C103.339,74.705 104,75.153 104.73,75.451 C105.461,75.749 106.262,75.898 107.134,75.898 C108.783,75.898 110.125,75.413 111.161,74.44 C112.197,73.468 112.728,72.198 112.754,70.629 L107.677,70.629 L107.677,69.473 L114.223,69.473 L114.223,69.634 C114.223,71.98 113.583,73.817 112.302,75.145 C111.021,76.472 109.259,77.135 107.013,77.135 C104.781,77.135 102.974,76.425 101.593,75.003 C100.212,73.583 99.522,71.719 99.522,69.413 C99.522,68.353 99.696,67.353 100.044,66.411 C100.393,65.469 100.896,64.65 101.553,63.953 C102.263,63.195 103.066,62.628 103.961,62.253 C104.856,61.878 105.853,61.69 106.953,61.69 C108.447,61.69 109.728,61.96 110.794,62.499 C111.86,63.039 112.681,63.832 113.257,64.878 L112.282,65.722 C111.686,64.797 110.951,64.097 110.08,63.621" id="Fill-13" fill="#1E1E1E"></path>
        <path d="M128.667,63.319 C127.903,63.018 127.099,62.867 126.254,62.867 C124.35,62.867 122.803,63.47 121.613,64.676 C120.423,65.883 119.829,67.455 119.829,69.393 C119.829,70.365 119.975,71.239 120.266,72.017 C120.558,72.795 121.002,73.485 121.599,74.088 C122.188,74.678 122.864,75.128 123.625,75.436 C124.385,75.744 125.202,75.898 126.073,75.898 C126.918,75.898 127.742,75.754 128.547,75.466 C129.351,75.178 130.112,74.752 130.829,74.189 L130.829,75.758 C130.105,76.2 129.339,76.541 128.532,76.778 C127.724,77.016 126.925,77.135 126.133,77.135 C125.067,77.135 124.049,76.944 123.077,76.562 C122.104,76.18 121.27,75.644 120.573,74.953 C119.855,74.243 119.313,73.418 118.944,72.48 C118.575,71.541 118.391,70.512 118.391,69.393 C118.391,68.293 118.58,67.268 118.959,66.315 C119.337,65.364 119.882,64.543 120.593,63.852 C121.283,63.175 122.116,62.646 123.092,62.263 C124.067,61.881 125.081,61.69 126.133,61.69 C127.071,61.69 127.942,61.819 128.743,62.077 C129.544,62.336 130.273,62.722 130.93,63.239 L130.91,64.717 C130.179,64.086 129.432,63.621 128.667,63.319" id="Fill-14" fill="#1E1E1E"></path>
        <path d="M137.189,68.628 L138.536,68.628 C139.783,68.628 140.653,68.429 141.146,68.03 C141.639,67.631 141.885,66.953 141.885,65.994 C141.885,64.982 141.63,64.261 141.121,63.832 C140.611,63.403 139.75,63.189 138.536,63.189 L137.189,63.189 L137.189,68.628 Z M143.162,76.743 L137.993,69.725 L137.189,69.725 L137.189,76.743 L135.852,76.743 L135.852,62.022 L138.557,62.022 C140.152,62.022 141.347,62.353 142.142,63.018 C142.936,63.681 143.333,64.687 143.333,66.034 C143.333,67.18 142.993,68.082 142.313,68.739 C141.632,69.396 140.695,69.725 139.502,69.725 L144.791,76.743 L143.162,76.743 Z" id="Fill-15" fill="#1E1E1E"></path>
        <polyline id="Fill-16" fill="#1E1E1E" points="148.765 62.022 156.055 62.022 156.055 63.279 150.103 63.279 150.103 67.884 156.055 67.884 156.055 69.141 150.103 69.141 150.103 75.486 156.055 75.486 156.055 76.743 148.765 76.743 148.765 62.022"></polyline>
        <path d="M164.595,75.587 C166.116,75.587 167.195,75.502 167.833,75.331 C168.47,75.159 169.009,74.87 169.451,74.461 C170.068,73.884 170.534,73.166 170.85,72.309 C171.164,71.451 171.322,70.472 171.322,69.373 C171.322,68.246 171.163,67.254 170.845,66.396 C170.525,65.538 170.055,64.834 169.432,64.284 C168.962,63.862 168.389,63.564 167.712,63.389 C167.035,63.215 165.852,63.128 164.162,63.128 L162.715,63.128 L162.715,75.587 L164.595,75.587 Z M161.377,62.022 L163.67,62.022 C165.714,62.022 167.166,62.123 168.023,62.324 C168.882,62.524 169.619,62.87 170.236,63.359 C171.054,64.009 171.677,64.848 172.106,65.873 C172.535,66.899 172.75,68.072 172.75,69.393 C172.75,70.713 172.535,71.888 172.106,72.917 C171.677,73.946 171.061,74.769 170.256,75.386 C169.619,75.875 168.892,76.224 168.074,76.432 C167.256,76.639 165.938,76.743 164.122,76.743 L161.377,76.743 L161.377,62.022 Z" id="Fill-17" fill="#1E1E1E"></path>
        <polygon id="Fill-18" fill="#1E1E1E" points="177.771 76.743 179.108 76.743 179.108 62.022 177.771 62.022"></polygon>
        <polyline id="Fill-19" fill="#1E1E1E" points="187.435 63.279 183.383 63.279 183.383 62.022 192.835 62.022 192.835 63.279 188.772 63.279 188.772 76.743 187.435 76.743 187.435 63.279"></polyline>
        <path d="M69.328,87.732 C69.521,87.732 69.694,87.722 69.694,87.488 C69.694,87.301 69.523,87.265 69.366,87.265 L69.054,87.265 L69.054,87.732 L69.328,87.732 Z M69.054,88.58 L68.825,88.58 L68.825,87.073 L69.4,87.073 C69.756,87.073 69.933,87.206 69.933,87.501 C69.933,87.771 69.763,87.889 69.542,87.916 L69.971,88.58 L69.713,88.58 L69.317,87.927 L69.054,87.927 L69.054,88.58 Z M69.33,88.916 C69.922,88.916 70.389,88.451 70.389,87.822 C70.389,87.206 69.922,86.738 69.33,86.738 C68.732,86.738 68.267,87.206 68.267,87.822 C68.267,88.451 68.732,88.916 69.33,88.916 Z M68.005,87.822 C68.005,87.073 68.614,86.522 69.33,86.522 C70.042,86.522 70.65,87.073 70.65,87.822 C70.65,88.58 70.042,89.131 69.33,89.131 C68.614,89.131 68.005,88.58 68.005,87.822 Z" id="Fill-20" fill="#588D32"></path>
        <path d="M64.826,80.69 L69.194,84.931 C68.769,85.358 68.334,85.801 67.908,86.24 L64.643,82.924 L64.826,80.69" id="Fill-21" fill="#588D32"></path>
        <g id="Group-25" transform="translate(59.000000, 80.000000)">
            <mask id="mask-2" fill="white">
                <use xlink:href="#path-1"></use>
            </mask>
            <g id="Clip-23"></g>
            <path d="M4.887,0.69 L0.518,4.931 C0.948,5.358 1.381,5.801 1.807,6.24 L5.071,2.924 L4.887,0.69" id="Fill-22" fill="#588D32" mask="url(#mask-2)"></path>
            <path d="M5.345,7.61 L5.068,4.026 L2.376,6.826 C4.007,8.522 5.37,10 5.37,10 L8.399,6.821 L5.59,4.036 L5.345,7.61" id="Fill-24" fill="#588D32" mask="url(#mask-2)"></path>
        </g>
        <path d="M64.974,77.079 L71.073,82.974 C70.881,83.293 70.185,84.01 69.766,84.365 L64.833,79.26 L64.974,77.079" id="Fill-26" fill="#588D32"></path>
        <path d="M63.627,77.079 L57.527,82.974 C57.721,83.293 58.418,84.01 58.832,84.365 L63.767,79.26 L63.627,77.079" id="Fill-27" fill="#588D32"></path>
        <path d="M65.274,72.974 L70.605,78.166 C70.605,78.166 72.223,80.169 71.513,82.202 L65.114,75.58 L65.274,72.974" id="Fill-28" fill="#588D32"></path>
        <path d="M63.466,72.975 L58.135,78.08 C58.135,78.08 56.522,80.083 57.23,82.118 L63.636,75.569 L63.466,72.975" id="Fill-29" fill="#588D32"></path>
        <path d="M82.809,71.531 L76.825,65.473 C76.825,65.473 74.171,63.147 71.623,65.025 C69.078,66.907 65.871,70.634 65.871,70.634 L79.355,71.434 L65.872,72.425 L70.975,77.759 C70.975,77.759 74.044,80.237 76.433,77.722 C78.828,75.205 82.809,71.531 82.809,71.531" id="Fill-30" fill="#588D32"></path>
        <path d="M64.342,52.95 L58.286,58.935 C58.286,58.935 55.955,61.59 57.835,64.136 C59.716,66.685 63.444,69.891 63.444,69.891 L64.367,56.431 L65.236,69.888 L70.568,64.786 C70.568,64.786 73.045,61.718 70.531,59.328 C68.015,56.935 64.342,52.95 64.342,52.95" id="Fill-31" fill="#588D32"></path>
        <path d="M45.903,71.486 L51.889,77.548 C51.889,77.548 54.544,79.878 57.089,77.997 C59.635,76.116 62.846,72.389 62.846,72.389 L49.359,71.439 L62.845,70.599 L57.74,65.264 C57.74,65.264 54.672,62.788 52.28,65.302 C49.885,67.816 45.903,71.486 45.903,71.486" id="Fill-32" fill="#588D32"></path>
    </g>
</svg>