<?xml version="1.0" encoding="UTF-8"?>
<svg width="304px" height="85px" viewBox="0 0 304 85" version="1.1" xmlns="http://www.w3.org/2000/svg" xmlns:xlink="http://www.w3.org/1999/xlink">
    <!-- Generator: Sketch 51.3 (57544) - http://www.bohemiancoding.com/sketch -->
    <title>SWGA-SMALL-4Color</title>
    <desc>Created with Sketch.</desc>
    <defs>
        <polygon id="path-1" points="0.962 0.184 246.886 0.184 246.886 20.94 0.962 20.94"></polygon>
        <polygon id="path-3" points="0.295 0.064 124.267 0.064 124.267 11.94 0.295 11.94"></polygon>
        <polygon id="path-5" points="0.06 0.581 36.6172746 0.581 36.6172746 37.2363004 0.06 37.2363004"></polygon>
    </defs>
    <g id="SWGA-SMALL-4Color" stroke="none" stroke-width="1" fill="none" fill-rule="evenodd">
        <path d="M80.682,0.958 L57.971,0.958 C57.305,0.958 56.945,1.443 56.945,1.899 C56.945,2.276 57.239,2.513 57.474,2.702 C57.546,2.761 57.637,2.833 57.668,2.873 L60.368,5.077 C60.807,5.445 60.979,5.915 60.979,6.751 L60.979,51.307 C60.979,52.144 60.807,52.613 60.374,52.977 L57.744,55.107 L57.629,55.241 C57.597,55.295 57.495,55.374 57.412,55.437 C57.215,55.587 56.945,55.794 56.945,56.158 C56.945,56.614 57.305,57.1 57.971,57.1 L72.352,57.1 C73.018,57.1 73.378,56.614 73.378,56.158 C73.378,55.741 73.04,55.475 72.741,55.239 L69.286,52.942 C68.816,52.646 68.73,52.159 68.73,51.307 L68.73,31.074 L70.159,31.074 C70.563,31.074 70.64,31.234 70.69,31.336 L73.764,36.711 L73.825,36.815 C73.975,37.076 74.201,37.47 74.719,37.47 C74.919,37.47 75.57,37.402 75.57,36.528 L75.57,21.014 C75.57,20.461 75.184,20.074 74.632,20.074 C74.04,20.074 73.735,20.587 73.584,20.841 L70.672,25.946 C70.64,26.015 70.563,26.176 70.159,26.176 L68.73,26.176 L68.73,5.635 L73.229,5.635 C74.499,5.635 74.871,6.245 75.035,6.693 L79.764,20.495 C79.924,21.034 80.502,21.368 80.945,21.368 C81.488,21.368 81.883,21.003 81.883,20.501 L81.883,2.12 C81.883,1.458 81.366,0.958 80.682,0.958" id="Fill-1" fill="#1A1919"></path>
        <path d="M94.275,52.939 C93.014,52.939 91.881,52.207 91.881,43.365 C91.881,36.182 93.246,33.71 97.282,30.695 L97.282,49.102 C97.282,50.84 95.941,52.939 94.275,52.939 Z M108.042,51.395 C107.709,51.395 107.51,51.589 107.378,51.717 L107.213,51.878 C106.675,52.553 105.891,52.939 105.06,52.939 C104.556,52.939 104.421,52.098 104.421,51.6 L104.421,24.912 C104.421,17.76 99.475,15.222 95.239,15.222 C90.251,15.222 84.831,20.409 84.831,21.751 C84.831,22.347 85.227,22.618 85.594,22.618 C85.988,22.618 86.361,22.495 86.617,22.28 C88.061,21.07 91.606,19.383 94.1,19.383 C96.526,19.383 97.282,19.872 97.282,22.927 C97.282,25.882 97.282,26.336 95.75,27.364 C85.985,33.914 84.393,36.343 84.393,44.689 C84.393,54.946 88.813,57.1 92.521,57.1 C95.155,57.1 97.467,55.426 98.517,54.527 C99.694,55.91 101.188,57.1 103.745,57.1 C106.261,57.1 108.428,54.594 108.805,52.264 C108.805,51.667 108.41,51.395 108.042,51.395 Z" id="Fill-2" fill="#1A1919"></path>
        <path d="M128.447,21.971 C128.447,19.284 126.359,15.222 123.212,15.222 C121.294,15.222 119.793,16.448 118.626,17.61 L118.626,16.162 C118.626,15.609 118.24,15.222 117.688,15.222 L109.27,15.222 C108.343,15.222 108.243,15.777 108.243,16.016 C108.243,16.352 108.437,16.706 108.78,16.992 L111.393,19.098 C111.466,19.139 111.484,19.16 111.488,19.251 L111.488,52.557 C111.488,52.667 111.488,52.817 111.469,52.854 L108.791,55.392 C108.389,55.643 108.243,56.023 108.243,56.305 C108.243,56.544 108.343,57.1 109.27,57.1 L121.02,57.1 C121.946,57.1 122.046,56.544 122.046,56.305 C122.046,56.021 121.898,55.636 121.488,55.385 L118.638,52.922 C118.626,52.838 118.626,52.685 118.626,52.557 L118.626,25.941 C118.626,22.311 120.149,19.676 122.247,19.676 C124.11,19.676 125.57,20.569 126.356,22.185 C126.513,22.516 126.806,23.132 127.509,23.132 C127.729,23.132 128.447,23.048 128.447,21.971" id="Fill-3" fill="#1A1919"></path>
        <path d="M153.262,55.887 C153.192,55.715 153.087,55.565 152.974,55.477 L150.823,52.86 C150.807,52.817 150.807,52.667 150.807,52.557 L150.807,25.279 C150.807,21.482 152.948,19.383 154.428,19.383 C155.338,19.383 156.383,19.811 156.383,23.147 L156.383,52.557 C156.383,52.667 156.383,52.817 156.357,52.859 L153.771,55.393 C153.577,55.513 153.383,55.683 153.262,55.887 Z M141.231,55.913 C141.111,55.683 140.92,55.504 140.83,55.43 L138.109,52.86 C138.092,52.817 138.092,52.667 138.092,52.557 L138.092,25.279 C138.092,21.432 140.195,19.383 141.713,19.383 C142.624,19.383 143.669,19.811 143.669,23.147 L143.669,52.557 C143.669,52.667 143.669,52.817 143.673,52.833 L141.614,55.446 C141.503,55.543 141.338,55.71 141.231,55.913 Z M166.218,55.392 L163.538,52.86 C163.522,52.817 163.522,52.667 163.522,52.557 L163.522,23.221 C163.522,18.362 160.606,15.222 156.094,15.222 C153.605,15.222 151.437,15.999 149.482,17.594 C148.028,16.02 146.125,15.222 143.818,15.222 C141.125,15.222 139.588,16.113 138.092,17.355 L138.092,16.162 C138.092,15.565 137.75,15.222 137.154,15.222 L128.736,15.222 C127.979,15.222 127.71,15.649 127.71,16.016 C127.71,16.341 127.944,16.633 128.171,16.917 L130.87,19.045 C130.941,19.105 130.954,19.116 130.954,19.251 L130.954,52.557 C130.954,52.667 130.954,52.817 130.935,52.854 L128.242,55.408 C128.082,55.541 127.71,55.895 127.71,56.305 C127.71,56.672 127.979,57.1 128.736,57.1 L140.311,57.1 C140.858,57.1 141.117,56.905 141.237,56.696 C141.378,56.922 141.664,57.1 142.152,57.1 L152.324,57.1 C152.873,57.1 153.131,56.904 153.251,56.696 C153.391,56.921 153.676,57.1 154.165,57.1 L165.739,57.1 C166.665,57.1 166.765,56.544 166.765,56.305 C166.765,56.023 166.62,55.642 166.218,55.392 Z" id="Fill-4" fill="#1A1919"></path>
        <path d="M200.115,0.958 C199.798,0.958 199.244,1.087 198.102,2.2 C197.53,2.749 197.034,2.944 196.783,2.944 C196.482,2.944 196.031,2.907 195.571,2.587 C193.982,1.521 192.43,0.958 191.081,0.958 C179.183,0.958 179.183,20.284 179.183,27.559 C179.183,40.24 180.416,57.1 191.081,57.1 C199.999,57.1 201.229,48.308 201.229,38.808 C201.229,38.081 200.813,37.646 200.115,37.646 C199.397,37.646 198.914,38.083 198.914,38.733 C198.9,39.629 196.96,52.424 192.748,52.424 C189.602,52.424 187.374,50.646 187.374,27.632 C187.374,13.042 188.002,5.635 191.433,5.635 C195.195,5.635 197.813,13.129 199.01,20.158 C199.211,21.158 199.77,21.368 200.202,21.368 C200.807,21.368 201.229,20.89 201.229,20.207 L201.229,2.708 C201.229,2.229 201.229,0.958 200.115,0.958" id="Fill-5" fill="#1A1919"></path>
        <path d="M217.739,15.222 C215.819,15.222 214.32,16.447 213.154,17.61 L213.154,16.162 C213.154,15.609 212.769,15.222 212.217,15.222 L203.799,15.222 C202.872,15.222 202.772,15.777 202.772,16.016 C202.772,16.353 202.967,16.707 203.31,16.992 L205.922,19.099 C205.994,19.14 206.013,19.161 206.017,19.251 L206.017,52.557 C206.017,52.666 206.017,52.816 205.996,52.854 L203.321,55.392 C202.918,55.642 202.772,56.023 202.772,56.305 C202.772,56.544 202.872,57.1 203.799,57.1 L215.547,57.1 C216.474,57.1 216.573,56.544 216.573,56.305 C216.573,56.02 216.425,55.635 216.015,55.385 L213.166,52.923 C213.154,52.838 213.154,52.685 213.154,52.557 L213.154,25.941 C213.154,22.311 214.677,19.676 216.775,19.676 C218.638,19.676 220.098,20.569 220.883,22.186 C221.041,22.517 221.335,23.132 222.037,23.132 C222.257,23.132 222.975,23.048 222.975,21.971 C222.975,19.284 220.887,15.222 217.739,15.222" id="Fill-6" fill="#1A1919"></path>
        <path d="M231.919,24.838 C231.919,20.003 233.339,19.383 234.576,19.383 C237.04,19.383 237.408,22.801 237.408,24.838 L237.408,31.691 L231.919,31.691 L231.919,24.838 Z M234.576,15.222 C228.102,15.222 224.08,22.231 224.08,33.514 C224.08,50.267 227.502,57.1 235.891,57.1 C239.956,57.1 243.151,54.52 244.436,50.201 C244.531,49.884 244.502,49.618 244.349,49.411 C244.248,49.276 244.054,49.115 243.695,49.115 C243.193,49.115 242.894,49.414 242.691,49.671 C240.867,51.931 239.605,52.939 236.944,52.939 C233.842,52.939 231.919,50.883 231.919,40.646 L231.919,35.484 L243.256,35.484 C243.644,35.484 244.546,35.349 244.546,34.102 L244.546,29.543 C244.546,17.706 239.124,15.222 234.576,15.222 Z" id="Fill-7" fill="#1A1919"></path>
        <path d="M258.603,52.939 C256.798,52.939 255.947,51.074 255.947,34.029 C255.947,20.402 257.033,19.383 258.689,19.383 C259.694,19.383 262.049,21.089 262.049,24.397 L262.049,47.559 C262.049,51.054 260.273,52.939 258.603,52.939 Z M285.431,55.43 L282.708,52.86 C282.691,52.817 282.691,52.667 282.691,52.557 L282.691,16.162 C282.691,15.609 282.306,15.222 281.754,15.222 L273.335,15.222 C272.577,15.222 272.309,15.649 272.309,16.016 C272.309,16.337 272.531,16.618 272.768,16.915 L275.469,19.045 C275.542,19.106 275.555,19.117 275.555,19.251 L275.555,52.557 C275.555,52.667 275.555,52.817 275.535,52.854 L272.838,55.41 C272.719,55.51 272.48,55.734 272.369,56.012 C272.262,55.752 272.03,55.533 271.797,55.391 L269.2,52.932 C269.188,52.849 269.188,52.689 269.188,52.557 L269.188,1.899 C269.188,1.328 268.784,0.958 268.161,0.958 L259.832,0.958 C258.796,0.958 258.716,1.566 258.716,1.752 C258.716,2.167 259.076,2.516 259.336,2.65 L261.956,4.837 C262.017,4.87 262.038,4.89 262.041,4.89 C262.043,4.897 262.049,4.923 262.049,4.987 L262.049,17.338 C260.756,16.256 259.014,15.222 256.586,15.222 C252.639,15.222 248.108,17.36 248.108,34.029 C248.108,55.316 252.44,57.1 256.5,57.1 C259.061,57.1 260.689,56.041 262.049,54.806 L262.049,56.305 C262.049,56.766 262.517,57.1 263.161,57.1 L271.318,57.1 C272.008,57.1 272.27,56.829 272.369,56.594 C272.483,56.864 272.774,57.1 273.335,57.1 L284.91,57.1 C285.837,57.1 285.938,56.544 285.938,56.305 C285.938,55.897 285.567,55.543 285.431,55.43 Z" id="Fill-8" fill="#1A1919"></path>
        <path d="M279.034,9.751 C281.189,9.751 282.691,7.435 282.691,5.355 C282.691,3.013 280.982,0.958 279.034,0.958 C277.005,0.958 275.29,2.972 275.29,5.355 C275.29,7.435 276.828,9.751 279.034,9.751" id="Fill-9" fill="#1A1919"></path>
        <path d="M301.686,51.453 C301.535,51.231 301.296,51.1 301.045,51.1 C300.687,51.1 300.416,51.328 300.198,51.513 L300.113,51.604 C299.654,52.246 298.64,52.939 297.801,52.939 C296.856,52.939 296.196,52.056 296.196,50.791 L296.196,19.398 C296.196,19.151 296.427,18.856 296.631,18.596 C296.692,18.517 296.751,18.441 296.744,18.438 L298.7,16.572 C299.159,16.252 299.371,15.773 299.238,15.353 C299.129,15.005 298.806,14.781 298.414,14.781 L296.399,14.781 C296.28,14.781 296.215,14.768 296.208,14.77 C296.203,14.75 296.196,14.706 296.196,14.619 L296.196,6.163 C296.196,5.528 295.813,5.148 295.17,5.148 L292.54,5.148 C291.855,5.148 291.337,5.648 291.337,6.311 C291.337,9.311 290.834,14.42 287.499,14.929 C286.106,15.046 285.814,15.545 285.814,15.942 C285.814,16.302 286.1,16.516 286.308,16.671 L288.975,18.824 C289.059,18.895 289.059,19.273 289.059,19.398 L289.059,49.174 C289.059,54.877 290.797,57.1 295.259,57.1 C299.96,57.1 301.444,53.337 301.773,52.225 C301.874,51.97 301.842,51.681 301.686,51.453" id="Fill-10" fill="#1A1919"></path>
        <g id="Group-16" transform="translate(55.000000, 64.000000)">
            <mask id="mask-2" fill="white">
                <use xlink:href="#path-1"></use>
            </mask>
            <g id="Clip-12"></g>
            <polygon id="Fill-11" fill="#1A1919" mask="url(#mask-2)" points="2.121 1.184 246.886 1.184 246.886 0.184 2.121 0.184"></polygon>
            <path d="M10.594,15.5 C10.919,15.768 11.16,16.061 11.316,16.381 C11.471,16.697 11.549,17.07 11.549,17.492 C11.549,18.498 11.046,19.328 10.04,19.98 C9.033,20.633 7.785,20.961 6.294,20.961 C5.605,20.961 4.918,20.879 4.23,20.721 C3.543,20.564 2.949,20.373 2.45,20.148 L1.983,20.734 L1.113,20.734 L0.962,16.834 L1.841,16.834 C2.022,17.316 2.234,17.752 2.477,18.139 C2.719,18.525 3.04,18.889 3.437,19.225 C3.815,19.539 4.253,19.791 4.756,19.98 C5.26,20.166 5.845,20.262 6.511,20.262 C7.01,20.262 7.446,20.213 7.818,20.117 C8.192,20.02 8.494,19.883 8.726,19.705 C8.958,19.529 9.129,19.322 9.241,19.084 C9.354,18.846 9.41,18.57 9.41,18.26 C9.41,17.803 9.236,17.379 8.889,16.986 C8.541,16.592 8.024,16.291 7.336,16.09 C6.865,15.951 6.326,15.797 5.718,15.629 C5.11,15.461 4.585,15.305 4.144,15.154 C3.274,14.863 2.6,14.486 2.118,14.018 C1.637,13.551 1.396,12.939 1.396,12.184 C1.396,11.752 1.516,11.348 1.755,10.973 C1.994,10.598 2.334,10.264 2.775,9.969 C3.195,9.693 3.691,9.475 4.263,9.314 C4.835,9.156 5.432,9.078 6.054,9.078 C6.764,9.078 7.399,9.16 7.961,9.32 C8.521,9.478 9.033,9.668 9.497,9.881 L9.942,9.336 L10.811,9.336 L10.897,13.117 L10.018,13.117 C9.858,12.684 9.68,12.268 9.481,11.871 C9.282,11.475 9.023,11.117 8.705,10.797 C8.392,10.486 8.013,10.24 7.564,10.053 C7.114,9.871 6.565,9.777 5.914,9.777 C5.226,9.777 4.639,9.941 4.154,10.266 C3.67,10.594 3.427,10.992 3.427,11.463 C3.427,11.955 3.583,12.363 3.894,12.688 C4.205,13.012 4.657,13.275 5.251,13.486 C5.779,13.674 6.299,13.834 6.81,13.971 C7.319,14.109 7.814,14.254 8.292,14.408 C8.726,14.549 9.144,14.707 9.545,14.883 C9.948,15.06 10.297,15.266 10.594,15.5" id="Fill-13" fill="#1A1919" mask="url(#mask-2)"></path>
            <path d="M24.308,18.76 C24.712,18.272 25.008,17.721 25.192,17.105 C25.377,16.49 25.469,15.805 25.469,15.045 C25.469,14.262 25.366,13.545 25.16,12.891 C24.953,12.238 24.651,11.684 24.253,11.221 C23.854,10.77 23.356,10.412 22.754,10.158 C22.154,9.904 21.466,9.777 20.692,9.777 C19.822,9.777 19.085,9.926 18.477,10.219 C17.869,10.512 17.372,10.906 16.989,11.4 C16.627,11.869 16.357,12.422 16.18,13.053 C16.002,13.686 15.914,14.348 15.914,15.045 C15.914,15.814 16.008,16.51 16.196,17.131 C16.384,17.752 16.681,18.301 17.087,18.783 C17.477,19.256 17.97,19.621 18.563,19.889 C19.156,20.152 19.867,20.283 20.692,20.283 C21.466,20.283 22.165,20.15 22.787,19.883 C23.41,19.617 23.916,19.242 24.308,18.76 Z M25.925,10.686 C26.605,11.209 27.138,11.842 27.522,12.582 C27.905,13.324 28.097,14.143 28.097,15.045 C28.097,15.949 27.901,16.768 27.511,17.508 C27.12,18.246 26.577,18.875 25.882,19.393 C25.209,19.906 24.427,20.303 23.537,20.582 C22.647,20.861 21.698,21 20.692,21 C19.62,21 18.63,20.85 17.722,20.555 C16.813,20.258 16.034,19.844 15.382,19.316 C14.73,18.793 14.218,18.164 13.845,17.424 C13.473,16.682 13.286,15.889 13.286,15.045 C13.286,14.117 13.482,13.291 13.872,12.566 C14.264,11.842 14.802,11.215 15.491,10.686 C16.171,10.16 16.962,9.758 17.863,9.478 C18.765,9.203 19.707,9.064 20.692,9.064 C21.713,9.064 22.675,9.205 23.58,9.488 C24.485,9.773 25.267,10.172 25.925,10.686 Z" id="Fill-14" fill="#1A1919" mask="url(#mask-2)"></path>
            <path d="M45.611,9.906 C45.409,9.912 45.112,9.943 44.722,10.002 C44.33,10.063 44.012,10.15 43.766,10.266 C43.52,10.393 43.349,10.643 43.256,11.031 C43.161,11.416 43.114,11.885 43.114,12.443 L43.114,17.395 C43.114,18.025 42.937,18.576 42.583,19.039 C42.227,19.506 41.76,19.889 41.181,20.188 C40.61,20.479 40.007,20.685 39.374,20.813 C38.74,20.937 38.134,21 37.555,21 C36.628,21 35.803,20.91 35.079,20.73 C34.355,20.553 33.747,20.309 33.254,20.004 C32.77,19.701 32.404,19.348 32.158,18.955 C31.912,18.564 31.789,18.152 31.789,17.725 L31.789,10.988 C31.789,10.803 31.748,10.646 31.665,10.519 C31.58,10.395 31.413,10.279 31.159,10.172 C30.978,10.096 30.747,10.035 30.464,9.99 C30.182,9.943 29.95,9.916 29.769,9.906 L29.769,9.336 L36.186,9.336 L36.186,9.906 C35.984,9.912 35.729,9.936 35.421,9.977 C35.113,10.022 34.887,10.063 34.743,10.098 C34.497,10.162 34.331,10.268 34.248,10.42 C34.165,10.57 34.124,10.732 34.124,10.906 L34.124,17.195 C34.124,17.502 34.169,17.822 34.259,18.154 C34.35,18.49 34.528,18.801 34.797,19.09 C35.079,19.383 35.462,19.625 35.948,19.813 C36.433,20 37.099,20.092 37.946,20.092 C38.742,20.092 39.409,20 39.949,19.813 C40.488,19.625 40.913,19.379 41.225,19.074 C41.522,18.785 41.731,18.482 41.855,18.168 C41.978,17.854 42.039,17.533 42.039,17.213 L42.039,12.545 C42.039,11.951 41.981,11.465 41.866,11.088 C41.75,10.711 41.579,10.465 41.355,10.346 C41.102,10.213 40.756,10.107 40.318,10.035 C39.88,9.959 39.545,9.916 39.314,9.906 L39.314,9.336 L45.611,9.336 L45.611,9.906" id="Fill-15" fill="#1A1919" mask="url(#mask-2)"></path>
        </g>
        <path d="M114.381,76.428 L113.632,76.428 C113.566,76.232 113.448,76.006 113.278,75.74 C113.107,75.475 112.917,75.225 112.707,74.988 C112.488,74.742 112.251,74.527 111.993,74.344 C111.736,74.158 111.488,74.053 111.248,74.027 C111.023,74.004 110.741,73.988 110.399,73.977 C110.058,73.967 109.742,73.961 109.452,73.961 L108.821,73.961 L108.821,83.074 C108.821,83.25 108.872,83.412 108.973,83.559 C109.075,83.705 109.251,83.82 109.505,83.898 C109.635,83.935 109.908,83.988 110.325,84.051 C110.741,84.117 111.065,84.15 111.297,84.156 L111.297,84.727 L104.022,84.727 L104.022,84.156 C104.225,84.145 104.534,84.125 104.95,84.092 C105.366,84.059 105.654,84.02 105.814,83.973 C106.052,83.902 106.228,83.803 106.34,83.672 C106.452,83.539 106.508,83.365 106.508,83.144 L106.508,73.961 L105.878,73.961 C105.654,73.961 105.375,73.967 105.043,73.975 C104.71,73.982 104.391,73.998 104.087,74.027 C103.848,74.049 103.6,74.152 103.343,74.344 C103.086,74.533 102.849,74.748 102.632,74.988 C102.415,75.229 102.223,75.486 102.056,75.758 C101.889,76.025 101.774,76.25 101.709,76.428 L100.949,76.428 L100.949,73.336 L114.381,73.336 L114.381,76.428" id="Fill-17" fill="#1A1919"></path>
        <path d="M131.559,84.727 L125.163,84.727 L125.163,84.156 C125.337,84.145 125.588,84.131 125.918,84.109 C126.247,84.088 126.473,84.055 126.597,84.012 C126.813,83.949 126.972,83.85 127.074,83.719 C127.175,83.588 127.226,83.416 127.226,83.211 L127.226,79.154 L119.984,79.154 L119.984,83.121 C119.984,83.307 120.025,83.467 120.108,83.596 C120.191,83.723 120.356,83.836 120.603,83.932 C120.725,83.98 120.944,84.027 121.259,84.078 C121.574,84.125 121.822,84.15 122.002,84.156 L122.002,84.727 L115.607,84.727 L115.607,84.156 C115.781,84.145 116.033,84.131 116.362,84.109 C116.691,84.088 116.918,84.055 117.041,84.012 C117.258,83.949 117.417,83.85 117.518,83.719 C117.62,83.588 117.671,83.416 117.671,83.211 L117.671,74.988 C117.671,74.818 117.623,74.66 117.529,74.519 C117.435,74.379 117.272,74.266 117.041,74.187 C116.845,74.117 116.608,74.057 116.329,74.002 C116.051,73.949 115.81,73.916 115.607,73.906 L115.607,73.336 L122.002,73.336 L122.002,73.906 C121.8,73.912 121.552,73.936 121.259,73.977 C120.966,74.022 120.747,74.063 120.603,74.098 C120.356,74.162 120.191,74.271 120.108,74.42 C120.025,74.57 119.984,74.732 119.984,74.91 L119.984,78.441 L127.226,78.441 L127.226,74.988 C127.226,74.818 127.179,74.66 127.085,74.519 C126.991,74.379 126.827,74.266 126.597,74.187 C126.4,74.117 126.164,74.057 125.885,74.002 C125.606,73.949 125.365,73.916 125.163,73.906 L125.163,73.336 L131.559,73.336 L131.559,73.906 C131.356,73.912 131.108,73.936 130.814,73.977 C130.522,74.022 130.302,74.063 130.158,74.098 C129.912,74.162 129.747,74.271 129.664,74.42 C129.581,74.57 129.539,74.732 129.539,74.91 L129.539,83.121 C129.539,83.307 129.581,83.467 129.664,83.596 C129.747,83.723 129.912,83.836 130.158,83.932 C130.281,83.98 130.5,84.027 130.814,84.078 C131.129,84.125 131.378,84.15 131.559,84.156 L131.559,84.727" id="Fill-18" fill="#1A1919"></path>
        <path d="M154.687,73.906 C154.507,73.912 154.297,73.941 154.057,73.998 C153.818,74.053 153.597,74.127 153.396,74.219 C153.142,74.336 152.937,74.473 152.782,74.625 C152.626,74.777 152.489,74.988 152.374,75.262 C151.86,76.498 151.263,77.941 150.582,79.592 C149.902,81.246 149.167,83.004 148.378,84.871 L147.377,84.871 L143.488,76.096 L139.445,84.871 L138.486,84.871 C137.77,82.998 137.027,81.055 136.26,79.039 C135.493,77.023 134.979,75.676 134.718,74.988 C134.653,74.824 134.557,74.678 134.431,74.549 C134.303,74.42 134.132,74.303 133.915,74.195 C133.733,74.104 133.522,74.035 133.28,73.99 C133.037,73.943 132.818,73.916 132.623,73.906 L132.623,73.336 L138.903,73.336 L138.903,73.906 C138.353,73.928 137.884,73.967 137.498,74.027 C137.11,74.084 136.917,74.185 136.917,74.324 C136.917,74.377 136.927,74.447 136.949,74.535 C136.971,74.625 136.989,74.695 137.003,74.748 C137.17,75.219 137.464,75.998 137.888,77.084 C138.311,78.172 138.938,79.797 139.77,81.965 L143.615,73.496 L144.678,73.496 L148.558,82.145 C149.081,80.816 149.532,79.654 149.909,78.658 C150.286,77.664 150.599,76.816 150.846,76.107 C151.02,75.607 151.129,75.268 151.172,75.08 C151.216,74.896 151.237,74.74 151.237,74.611 C151.237,74.432 151.069,74.279 150.732,74.156 C150.396,74.031 149.851,73.949 149.099,73.906 L149.099,73.336 L154.687,73.336 L154.687,73.906" id="Fill-19" fill="#1A1919"></path>
        <g id="Group-29" transform="translate(155.000000, 73.000000)">
            <mask id="mask-4" fill="white">
                <use xlink:href="#path-3"></use>
            </mask>
            <g id="Clip-21"></g>
            <path d="M13.38,8.371 L13.086,11.727 L0.295,11.727 L0.295,11.156 C0.513,11.145 0.801,11.123 1.164,11.088 C1.525,11.055 1.761,11.018 1.87,10.98 C2.101,10.898 2.263,10.795 2.352,10.666 C2.444,10.537 2.488,10.375 2.488,10.176 L2.488,1.988 C2.488,1.814 2.449,1.656 2.369,1.519 C2.289,1.385 2.123,1.273 1.87,1.187 C1.673,1.117 1.412,1.057 1.083,1.002 C0.754,0.949 0.49,0.916 0.295,0.906 L0.295,0.336 L12.219,0.336 L12.219,3.082 L11.404,3.082 C11.259,2.676 10.945,2.242 10.464,1.783 C9.982,1.326 9.525,1.078 9.091,1.035 C8.865,1.014 8.598,0.996 8.286,0.984 C7.976,0.975 7.621,0.969 7.223,0.969 L4.802,0.969 L4.802,5.498 L6.539,5.498 C7.097,5.498 7.503,5.457 7.76,5.383 C8.017,5.303 8.244,5.174 8.439,4.992 C8.598,4.836 8.734,4.631 8.847,4.371 C8.958,4.111 9.033,3.865 9.069,3.635 L9.883,3.635 L9.883,8.098 L9.069,8.098 C9.041,7.842 8.962,7.57 8.835,7.283 C8.708,6.998 8.577,6.787 8.439,6.66 C8.216,6.453 7.958,6.318 7.673,6.252 C7.388,6.189 7.009,6.154 6.539,6.154 L4.802,6.154 L4.802,9.57 C4.802,9.91 4.833,10.182 4.898,10.379 C4.964,10.576 5.091,10.727 5.279,10.828 C5.467,10.932 5.724,10.996 6.05,11.025 C6.376,11.055 6.84,11.07 7.44,11.07 C7.678,11.07 7.994,11.07 8.385,11.07 C8.776,11.07 9.105,11.057 9.374,11.035 C9.648,11.014 9.932,10.975 10.225,10.92 C10.519,10.863 10.727,10.785 10.85,10.693 C11.183,10.434 11.532,10.045 11.897,9.523 C12.263,9.002 12.497,8.617 12.599,8.371 L13.38,8.371" id="Fill-20" fill="#1A1919" mask="url(#mask-4)"></path>
            <path d="M24.544,6.5 C24.868,6.768 25.109,7.061 25.265,7.381 C25.422,7.697 25.497,8.07 25.497,8.492 C25.497,9.498 24.994,10.328 23.988,10.98 C22.982,11.633 21.735,11.961 20.241,11.961 C19.555,11.961 18.866,11.879 18.18,11.721 C17.49,11.564 16.897,11.373 16.399,11.148 L15.932,11.734 L15.063,11.734 L14.911,7.834 L15.79,7.834 C15.971,8.316 16.183,8.752 16.427,9.139 C16.667,9.525 16.988,9.889 17.386,10.225 C17.764,10.539 18.203,10.791 18.706,10.98 C19.209,11.166 19.794,11.262 20.459,11.262 C20.96,11.262 21.395,11.213 21.77,11.117 C22.142,11.02 22.442,10.883 22.676,10.705 C22.906,10.529 23.079,10.322 23.191,10.084 C23.302,9.846 23.359,9.57 23.359,9.26 C23.359,8.803 23.187,8.379 22.838,7.986 C22.489,7.592 21.974,7.291 21.284,7.09 C20.815,6.951 20.275,6.797 19.668,6.629 C19.06,6.461 18.533,6.305 18.093,6.154 C17.223,5.863 16.55,5.486 16.067,5.018 C15.585,4.551 15.345,3.939 15.345,3.184 C15.345,2.752 15.465,2.348 15.703,1.973 C15.941,1.598 16.282,1.264 16.725,0.969 C17.145,0.693 17.641,0.475 18.211,0.314 C18.785,0.156 19.383,0.078 20.003,0.078 C20.713,0.078 21.348,0.16 21.91,0.32 C22.472,0.478 22.982,0.668 23.446,0.881 L23.892,0.336 L24.762,0.336 L24.848,4.117 L23.967,4.117 C23.808,3.684 23.629,3.268 23.43,2.871 C23.231,2.475 22.972,2.117 22.654,1.797 C22.343,1.486 21.963,1.24 21.513,1.053 C21.064,0.871 20.515,0.777 19.862,0.777 C19.176,0.777 18.588,0.941 18.104,1.266 C17.619,1.594 17.375,1.992 17.375,2.463 C17.375,2.955 17.532,3.363 17.842,3.688 C18.153,4.012 18.607,4.275 19.202,4.486 C19.729,4.674 20.247,4.834 20.758,4.971 C21.269,5.109 21.764,5.254 22.24,5.408 C22.676,5.549 23.092,5.707 23.495,5.883 C23.897,6.06 24.245,6.266 24.544,6.5" id="Fill-22" fill="#1A1919" mask="url(#mask-4)"></path>
            <path d="M39.962,3.428 L39.213,3.428 C39.147,3.232 39.029,3.006 38.859,2.74 C38.689,2.475 38.497,2.225 38.287,1.988 C38.071,1.742 37.832,1.527 37.575,1.344 C37.315,1.158 37.069,1.053 36.829,1.027 C36.604,1.004 36.321,0.988 35.98,0.977 C35.64,0.967 35.321,0.961 35.034,0.961 L34.402,0.961 L34.402,10.074 C34.402,10.25 34.452,10.412 34.555,10.559 C34.656,10.705 34.832,10.82 35.087,10.898 C35.218,10.935 35.49,10.988 35.906,11.051 C36.323,11.117 36.646,11.15 36.878,11.156 L36.878,11.727 L29.603,11.727 L29.603,11.156 C29.805,11.145 30.113,11.125 30.53,11.092 C30.947,11.059 31.235,11.02 31.395,10.973 C31.634,10.902 31.809,10.803 31.922,10.672 C32.034,10.539 32.089,10.365 32.089,10.144 L32.089,0.961 L31.46,0.961 C31.235,0.961 30.957,0.967 30.625,0.975 C30.289,0.982 29.973,0.998 29.668,1.027 C29.43,1.049 29.181,1.152 28.924,1.344 C28.668,1.533 28.429,1.748 28.211,1.988 C27.997,2.229 27.803,2.486 27.638,2.758 C27.47,3.025 27.355,3.25 27.29,3.428 L26.529,3.428 L26.529,0.336 L39.962,0.336 L39.962,3.428" id="Fill-23" fill="#1A1919" mask="url(#mask-4)"></path>
            <path d="M61.461,7.184 C61.289,7.199 61.056,7.223 60.762,7.26 C60.469,7.293 60.23,7.344 60.05,7.406 C59.832,7.488 59.681,7.6 59.588,7.75 C59.497,7.896 59.452,8.07 59.452,8.266 L59.452,9.148 C59.452,9.791 59.457,10.225 59.467,10.451 C59.48,10.674 59.491,10.859 59.507,11.004 C58.543,11.326 57.584,11.572 56.63,11.744 C55.674,11.912 54.736,12 53.815,12 C52.831,12 51.886,11.863 50.971,11.59 C50.06,11.316 49.263,10.928 48.584,10.426 C47.896,9.916 47.348,9.299 46.944,8.57 C46.539,7.842 46.336,7.027 46.336,6.129 C46.336,5.262 46.53,4.455 46.916,3.713 C47.304,2.971 47.852,2.33 48.562,1.781 C49.249,1.248 50.069,0.83 51.021,0.531 C51.973,0.236 52.991,0.086 54.078,0.086 C54.946,0.086 55.703,0.164 56.348,0.32 C56.991,0.475 57.56,0.662 58.053,0.881 L58.499,0.336 L59.366,0.336 L59.463,4.318 L58.574,4.318 C58.42,3.879 58.233,3.445 58.009,3.021 C57.783,2.596 57.492,2.215 57.139,1.877 C56.781,1.541 56.35,1.271 55.84,1.07 C55.328,0.871 54.717,0.771 54.007,0.771 C53.232,0.771 52.541,0.887 51.931,1.119 C51.321,1.352 50.793,1.699 50.346,2.158 C49.902,2.604 49.562,3.156 49.323,3.822 C49.082,4.486 48.965,5.227 48.965,6.047 C48.965,6.769 49.082,7.451 49.315,8.09 C49.551,8.732 49.895,9.285 50.346,9.752 C50.793,10.229 51.356,10.604 52.029,10.877 C52.703,11.148 53.469,11.283 54.325,11.283 C54.961,11.283 55.543,11.213 56.069,11.07 C56.594,10.922 56.965,10.772 57.183,10.611 C57.241,10.334 57.272,10.051 57.275,9.768 C57.279,9.484 57.279,9.244 57.279,9.045 L57.279,8.418 C57.279,8.195 57.238,7.996 57.156,7.82 C57.073,7.648 56.9,7.519 56.641,7.441 C56.402,7.359 56.077,7.299 55.669,7.26 C55.26,7.219 54.939,7.195 54.707,7.184 L54.707,6.598 L61.461,6.598 L61.461,7.184" id="Fill-24" fill="#1A1919" mask="url(#mask-4)"></path>
            <path d="M75.633,8.371 L75.34,11.727 L62.549,11.727 L62.549,11.156 C62.764,11.145 63.054,11.123 63.416,11.088 C63.777,11.055 64.014,11.018 64.124,10.98 C64.354,10.898 64.514,10.795 64.605,10.666 C64.694,10.537 64.741,10.375 64.741,10.176 L64.741,1.988 C64.741,1.814 64.702,1.656 64.62,1.519 C64.543,1.385 64.374,1.273 64.124,1.187 C63.927,1.117 63.665,1.057 63.334,1.002 C63.005,0.949 62.743,0.916 62.549,0.906 L62.549,0.336 L74.47,0.336 L74.47,3.082 L73.654,3.082 C73.511,2.676 73.199,2.242 72.717,1.783 C72.235,1.326 71.775,1.078 71.344,1.035 C71.118,1.014 70.852,0.996 70.54,0.984 C70.228,0.975 69.874,0.969 69.476,0.969 L67.056,0.969 L67.056,5.498 L68.792,5.498 C69.348,5.498 69.756,5.457 70.013,5.383 C70.27,5.303 70.495,5.174 70.691,4.992 C70.852,4.836 70.987,4.631 71.098,4.371 C71.211,4.111 71.283,3.865 71.32,3.635 L72.135,3.635 L72.135,8.098 L71.32,8.098 C71.292,7.842 71.215,7.57 71.088,7.283 C70.961,6.998 70.828,6.787 70.691,6.66 C70.467,6.453 70.213,6.318 69.927,6.252 C69.641,6.189 69.261,6.154 68.792,6.154 L67.056,6.154 L67.056,9.57 C67.056,9.91 67.086,10.182 67.152,10.379 C67.217,10.576 67.344,10.727 67.531,10.828 C67.721,10.932 67.978,10.996 68.302,11.025 C68.627,11.055 69.09,11.07 69.693,11.07 C69.933,11.07 70.245,11.07 70.637,11.07 C71.027,11.07 71.356,11.057 71.624,11.035 C71.898,11.014 72.185,10.975 72.479,10.92 C72.772,10.863 72.979,10.785 73.102,10.693 C73.435,10.434 73.783,10.045 74.15,9.523 C74.514,9.002 74.749,8.617 74.85,8.371 L75.633,8.371" id="Fill-25" fill="#1A1919" mask="url(#mask-4)"></path>
            <path d="M88.033,9.76 C88.439,9.272 88.733,8.721 88.919,8.105 C89.103,7.49 89.193,6.805 89.193,6.045 C89.193,5.262 89.092,4.545 88.885,3.891 C88.677,3.238 88.376,2.684 87.978,2.221 C87.58,1.77 87.082,1.412 86.48,1.158 C85.879,0.904 85.19,0.777 84.417,0.777 C83.548,0.777 82.809,0.926 82.201,1.219 C81.593,1.512 81.098,1.906 80.713,2.4 C80.352,2.869 80.082,3.422 79.906,4.053 C79.728,4.686 79.639,5.348 79.639,6.045 C79.639,6.814 79.733,7.51 79.921,8.131 C80.11,8.752 80.406,9.301 80.813,9.783 C81.203,10.256 81.695,10.621 82.288,10.889 C82.883,11.152 83.592,11.283 84.417,11.283 C85.19,11.283 85.891,11.15 86.514,10.883 C87.135,10.617 87.643,10.242 88.033,9.76 Z M89.649,1.686 C90.33,2.209 90.862,2.842 91.248,3.582 C91.631,4.324 91.822,5.143 91.822,6.045 C91.822,6.949 91.628,7.768 91.237,8.508 C90.845,9.246 90.302,9.875 89.608,10.393 C88.935,10.906 88.15,11.303 87.264,11.582 C86.372,11.861 85.423,12 84.417,12 C83.346,12 82.356,11.85 81.446,11.555 C80.537,11.258 79.76,10.844 79.106,10.316 C78.455,9.793 77.943,9.164 77.571,8.424 C77.197,7.682 77.011,6.889 77.011,6.045 C77.011,5.117 77.207,4.291 77.598,3.566 C77.987,2.842 78.527,2.215 79.217,1.686 C79.895,1.16 80.687,0.758 81.588,0.478 C82.489,0.203 83.433,0.064 84.417,0.064 C85.437,0.064 86.4,0.205 87.305,0.488 C88.211,0.773 88.991,1.172 89.649,1.686 Z" id="Fill-26" fill="#1A1919" mask="url(#mask-4)"></path>
            <path d="M103.051,3.238 C103.051,2.549 102.784,2.002 102.246,1.598 C101.712,1.195 100.955,0.994 99.978,0.994 L98.131,0.994 L98.131,5.875 L99.553,5.875 C100.554,5.875 101.385,5.639 102.05,5.164 C102.718,4.693 103.051,4.051 103.051,3.238 Z M108.762,11.727 L104.612,11.727 C103.695,10.66 102.864,9.742 102.123,8.965 C101.381,8.191 100.577,7.389 99.71,6.566 L98.131,6.566 L98.131,10.176 C98.131,10.365 98.169,10.529 98.251,10.672 C98.33,10.813 98.5,10.92 98.762,10.996 C98.891,11.033 99.118,11.07 99.445,11.1 C99.771,11.133 100.046,11.15 100.271,11.156 L100.271,11.727 L93.755,11.727 L93.755,11.156 C93.928,11.145 94.179,11.127 94.51,11.1 C94.84,11.074 95.07,11.037 95.199,10.996 C95.417,10.926 95.572,10.826 95.673,10.693 C95.77,10.557 95.82,10.387 95.82,10.176 L95.82,1.941 C95.82,1.754 95.782,1.588 95.709,1.443 C95.637,1.299 95.466,1.189 95.199,1.113 C95.018,1.066 94.782,1.022 94.494,0.982 C94.203,0.941 93.957,0.916 93.755,0.906 L93.755,0.336 L100.868,0.336 C101.518,0.336 102.131,0.385 102.702,0.484 C103.273,0.584 103.792,0.742 104.256,0.961 C104.703,1.176 105.063,1.455 105.33,1.801 C105.597,2.147 105.731,2.563 105.731,3.049 C105.731,3.486 105.642,3.875 105.461,4.213 C105.28,4.551 105.01,4.842 104.657,5.088 C104.332,5.318 103.941,5.518 103.485,5.685 C103.026,5.855 102.524,5.998 101.974,6.115 C102.736,6.859 103.367,7.484 103.871,7.994 C104.373,8.502 104.989,9.121 105.72,9.848 C106.04,10.168 106.328,10.406 106.585,10.559 C106.842,10.711 107.097,10.836 107.351,10.932 C107.538,11.002 107.774,11.055 108.055,11.092 C108.338,11.131 108.573,11.15 108.762,11.156 L108.762,11.727 Z" id="Fill-27" fill="#1A1919" mask="url(#mask-4)"></path>
            <path d="M124.267,7.184 C124.095,7.199 123.861,7.223 123.567,7.26 C123.274,7.293 123.036,7.344 122.855,7.406 C122.64,7.488 122.485,7.6 122.394,7.75 C122.305,7.896 122.258,8.07 122.258,8.266 L122.258,9.148 C122.258,9.791 122.266,10.225 122.276,10.451 C122.286,10.674 122.299,10.859 122.313,11.004 C121.351,11.326 120.392,11.572 119.436,11.744 C118.48,11.912 117.542,12 116.621,12 C115.64,12 114.691,11.863 113.78,11.59 C112.865,11.316 112.068,10.928 111.39,10.426 C110.701,9.916 110.155,9.299 109.75,8.57 C109.345,7.842 109.142,7.027 109.142,6.129 C109.142,5.262 109.336,4.455 109.724,3.713 C110.108,2.971 110.659,2.33 111.369,1.781 C112.055,1.248 112.875,0.83 113.826,0.531 C114.78,0.236 115.797,0.086 116.884,0.086 C117.754,0.086 118.508,0.164 119.153,0.32 C119.797,0.475 120.365,0.662 120.858,0.881 L121.304,0.336 L122.171,0.336 L122.271,4.318 L121.38,4.318 C121.228,3.879 121.039,3.445 120.814,3.021 C120.589,2.596 120.301,2.215 119.943,1.877 C119.591,1.541 119.155,1.271 118.645,1.07 C118.134,0.871 117.523,0.771 116.813,0.771 C116.038,0.771 115.347,0.887 114.738,1.119 C114.127,1.352 113.599,1.699 113.151,2.158 C112.708,2.604 112.367,3.156 112.129,3.822 C111.888,4.486 111.77,5.227 111.77,6.047 C111.77,6.769 111.888,7.451 112.123,8.09 C112.359,8.732 112.699,9.285 113.151,9.752 C113.599,10.229 114.161,10.604 114.835,10.877 C115.508,11.148 116.273,11.283 117.131,11.283 C117.767,11.283 118.349,11.213 118.875,11.07 C119.399,10.922 119.771,10.772 119.988,10.611 C120.046,10.334 120.078,10.051 120.083,9.768 C120.085,9.484 120.089,9.244 120.089,9.045 L120.089,8.418 C120.089,8.195 120.046,7.996 119.962,7.82 C119.879,7.648 119.708,7.519 119.446,7.441 C119.208,7.359 118.883,7.299 118.474,7.26 C118.066,7.219 117.746,7.195 117.513,7.184 L117.513,6.598 L124.267,6.598 L124.267,7.184" id="Fill-28" fill="#1A1919" mask="url(#mask-4)"></path>
        </g>
        <path d="M287.216,84.727 L280.278,84.727 L280.278,84.156 C280.472,84.145 280.755,84.131 281.125,84.109 C281.494,84.088 281.754,84.055 281.905,84.012 C282.146,83.943 282.319,83.846 282.427,83.727 C282.536,83.605 282.591,83.441 282.591,83.225 L282.591,74.973 C282.591,74.787 282.55,74.631 282.472,74.504 C282.393,74.379 282.204,74.273 281.905,74.187 C281.69,74.121 281.415,74.063 281.087,74.006 C280.758,73.949 280.488,73.916 280.278,73.906 L280.278,73.336 L287.216,73.336 L287.216,73.906 C286.99,73.912 286.724,73.93 286.411,73.967 C286.103,74.002 285.83,74.045 285.6,74.098 C285.324,74.162 285.138,74.266 285.044,74.412 C284.95,74.557 284.903,74.717 284.903,74.893 L284.903,83.137 C284.903,83.316 284.954,83.469 285.06,83.605 C285.164,83.742 285.345,83.852 285.6,83.932 C285.752,83.975 285.998,84.021 286.343,84.072 C286.687,84.123 286.978,84.15 287.216,84.156 L287.216,84.727" id="Fill-30" fill="#1A1919"></path>
        <path d="M297.315,80.072 L294.981,75.652 L292.682,80.072 L297.315,80.072 Z M303.515,84.727 L297.109,84.727 L297.109,84.156 C297.674,84.131 298.144,84.078 298.517,83.996 C298.888,83.914 299.077,83.818 299.077,83.701 C299.077,83.65 299.069,83.592 299.053,83.521 C299.039,83.453 299.017,83.391 298.986,83.338 L297.712,80.783 L292.305,80.783 C292.1,81.158 291.938,81.486 291.809,81.764 C291.684,82.041 291.567,82.299 291.466,82.533 C291.371,82.766 291.306,82.953 291.272,83.098 C291.234,83.242 291.216,83.359 291.216,83.451 C291.216,83.662 291.444,83.832 291.899,83.949 C292.356,84.066 292.869,84.135 293.443,84.156 L293.443,84.727 L287.64,84.727 L287.64,84.156 C287.829,84.145 288.063,84.113 288.345,84.064 C288.628,84.014 288.859,83.947 289.039,83.859 C289.331,83.715 289.553,83.564 289.712,83.406 C289.873,83.25 290.026,83.029 290.182,82.752 C290.954,81.324 291.809,79.717 292.744,77.937 C293.676,76.154 294.51,74.568 295.24,73.176 L296.107,73.176 L301.246,83.002 C301.354,83.211 301.477,83.379 301.615,83.506 C301.751,83.635 301.942,83.76 302.189,83.883 C302.357,83.959 302.573,84.021 302.841,84.072 C303.109,84.123 303.333,84.15 303.515,84.156 L303.515,84.727 Z" id="Fill-31" fill="#1A1919"></path>
        <path d="M26.906,42.019 L33.118,48.053 C32.511,48.662 31.892,49.289 31.286,49.912 L26.644,45.198 L26.906,42.019" id="Fill-32" fill="#4F8835"></path>
        <path d="M25.567,42.019 L19.357,48.053 C19.966,48.662 20.583,49.289 21.189,49.912 L25.83,45.198 L25.567,42.019" id="Fill-33" fill="#4F8835"></path>
        <path d="M26.221,51.863 L25.824,46.767 L21.998,50.747 C24.319,53.158 26.259,55.261 26.259,55.261 L30.564,50.738 L26.566,46.782 L26.221,51.863" id="Fill-34" fill="#4F8835"></path>
        <path d="M27.115,36.888 L35.788,45.27 C35.514,45.723 34.523,46.741 33.929,47.247 L26.915,39.987 L27.115,36.888" id="Fill-35" fill="#4F8835"></path>
        <path d="M25.198,36.888 L16.526,45.27 C16.799,45.723 17.791,46.741 18.384,47.247 L25.399,39.987 L25.198,36.888" id="Fill-36" fill="#4F8835"></path>
        <path d="M27.54,31.174 L35.123,38.433 C35.123,38.433 37.42,41.283 36.413,44.171 L27.3,34.863 L27.54,31.174" id="Fill-37" fill="#4F8835"></path>
        <path d="M24.974,31.054 L17.391,38.312 C17.391,38.312 15.095,41.161 16.102,44.051 L25.214,34.743 L24.974,31.054" id="Fill-38" fill="#4F8835"></path>
        <path d="M52.474,29.002 L43.965,20.389 C43.965,20.389 40.189,17.077 36.57,19.749 C32.949,22.423 28.386,27.723 28.386,27.723 L47.561,28.867 L28.389,30.271 L35.646,37.855 C35.646,37.855 40.007,41.375 43.409,37.8 C46.811,34.225 52.474,29.002 52.474,29.002" id="Fill-39" fill="#4F8835"></path>
        <g id="Group-43" transform="translate(0.000000, 2.000000)">
            <mask id="mask-6" fill="white">
                <use xlink:href="#path-5"></use>
            </mask>
            <g id="Clip-41"></g>
            <path d="M26.216,0.581 L17.604,9.09 C17.604,9.09 14.291,12.866 16.964,16.486 C19.638,20.106 24.938,24.669 24.938,24.669 L26.252,5.528 L27.486,24.667 L35.069,17.409 C35.069,17.409 38.589,13.047 35.014,9.646 C31.44,6.244 26.216,0.581 26.216,0.581" id="Fill-40" fill="#4F8835" mask="url(#mask-6)"></path>
            <path d="M0,26.94 L8.509,35.555 C8.509,35.555 12.286,38.867 15.905,36.194 C19.525,33.521 24.089,28.221 24.089,28.221 L4.913,26.871 L24.087,25.671 L16.828,18.089 C16.828,18.089 12.467,14.568 9.066,18.143 C5.663,21.718 0,26.94 0,26.94" id="Fill-42" fill="#4F8835" mask="url(#mask-6)"></path>
        </g>
        <path d="M35.133,52.164 C35.564,52.164 35.95,52.133 35.95,51.615 C35.95,51.199 35.572,51.122 35.217,51.122 L34.523,51.122 L34.523,52.164 L35.133,52.164 Z M34.523,54.054 L34.014,54.054 L34.014,50.689 L35.294,50.689 C36.09,50.689 36.483,50.983 36.483,51.646 C36.483,52.248 36.105,52.511 35.61,52.572 L36.568,54.054 L35.997,54.054 L35.109,52.595 L34.523,52.595 L34.523,54.054 Z M35.14,54.803 C36.459,54.803 37.502,53.769 37.502,52.363 C37.502,50.983 36.459,49.94 35.14,49.94 C33.806,49.94 32.764,50.983 32.764,52.363 C32.764,53.769 33.806,54.803 35.14,54.803 Z M32.177,52.363 C32.177,50.689 33.536,49.456 35.14,49.456 C36.731,49.456 38.089,50.689 38.089,52.363 C38.089,54.054 36.731,55.288 35.14,55.288 C33.536,55.288 32.177,54.054 32.177,52.363 Z" id="Fill-44" fill="#4F8835"></path>
    </g>
</svg>