<?xml version="1.0" encoding="UTF-8"?>
<svg width="242px" height="51px" viewBox="0 0 242 51" version="1.1" xmlns="http://www.w3.org/2000/svg" xmlns:xlink="http://www.w3.org/1999/xlink">
    <!-- Generator: Sketch 51.3 (57544) - http://www.bohemiancoding.com/sketch -->
    <title>Farm Credit-MAFC-Black Green-370-small</title>
    <desc>Created with Sketch.</desc>
    <defs>
        <polygon id="path-1" points="0.06 0.771 34.9142948 0.771 34.9142948 35.7219437 0.06 35.7219437"></polygon>
    </defs>
    <g id="Farm-Credit-MAFC-Black-Green-370-small" stroke="none" stroke-width="1" fill="none" fill-rule="evenodd">
        <path d="M60.172,28.501 C60.172,31.269 60.172,33.433 60.315,34.643 C60.401,35.481 60.576,36.116 61.441,36.23 C61.844,36.289 62.479,36.346 62.882,36.346 C63.257,36.346 63.373,36.434 63.373,36.577 C63.373,36.778 63.172,36.865 62.739,36.865 C60.921,36.865 59.105,36.778 58.354,36.778 C57.604,36.778 55.787,36.865 54.692,36.865 C54.288,36.865 54.086,36.808 54.086,36.577 C54.086,36.434 54.202,36.346 54.517,36.346 C54.951,36.346 55.297,36.289 55.557,36.23 C56.133,36.116 56.277,35.481 56.393,34.643 C56.538,33.433 56.538,31.269 56.538,28.501 L56.538,23.423 C56.538,19.038 56.538,18.232 56.48,17.31 C56.421,16.328 56.192,15.867 55.24,15.664 C55.008,15.608 54.517,15.579 54.114,15.579 C53.827,15.579 53.625,15.52 53.625,15.35 C53.625,15.117 53.853,15.059 54.288,15.059 C55.038,15.059 55.873,15.088 56.623,15.088 C57.374,15.117 58.038,15.146 58.441,15.146 C59.537,15.146 65.393,15.146 66.055,15.117 C66.603,15.088 66.949,15.088 67.239,15.003 C67.411,14.944 67.555,14.829 67.7,14.829 C67.815,14.829 67.902,14.944 67.902,15.088 C67.902,15.291 67.757,15.636 67.671,16.387 C67.642,16.674 67.585,18.377 67.526,18.724 C67.498,18.953 67.44,19.127 67.239,19.127 C67.037,19.127 66.979,18.982 66.949,18.665 C66.949,18.433 66.949,17.974 66.778,17.568 C66.577,17.166 65.969,16.731 64.873,16.703 L60.432,16.617 C60.257,16.617 60.172,16.703 60.172,17.021 L60.172,24.231 C60.172,24.404 60.199,24.491 60.374,24.491 L64.065,24.463 C64.555,24.463 64.96,24.463 65.364,24.434 C65.911,24.404 66.317,24.29 66.603,23.915 C66.747,23.741 66.804,23.626 66.979,23.626 C67.093,23.626 67.151,23.712 67.151,23.885 C67.151,24.058 67.007,24.78 66.92,25.675 C66.862,26.251 66.804,27.578 66.804,27.778 C66.804,28.04 66.804,28.328 66.518,28.328 C66.343,28.328 66.285,28.126 66.285,27.924 C66.285,27.723 66.228,27.376 66.113,27.029 C65.969,26.626 65.536,26.103 64.642,25.994 C63.92,25.903 60.863,25.903 60.374,25.903 C60.231,25.903 60.172,25.962 60.172,26.162 L60.172,28.501" id="Fill-1" fill="#1A1919"></path>
        <path d="M76.959,29.336 C77.074,29.336 77.103,29.278 77.074,29.194 L74.68,22.962 C74.652,22.876 74.623,22.732 74.564,22.732 C74.478,22.732 74.45,22.876 74.419,22.962 L71.969,29.165 C71.911,29.278 71.969,29.336 72.056,29.336 L76.959,29.336 Z M71.536,30.692 C71.392,30.692 71.363,30.722 71.306,30.867 L69.95,34.154 C69.69,34.76 69.574,35.366 69.574,35.654 C69.574,36.087 69.805,36.346 70.584,36.346 L70.96,36.346 C71.276,36.346 71.335,36.46 71.335,36.605 C71.335,36.808 71.19,36.865 70.931,36.865 C70.093,36.865 68.912,36.778 68.104,36.778 C67.844,36.778 66.487,36.865 65.163,36.865 C64.844,36.865 64.701,36.808 64.701,36.605 C64.701,36.46 64.787,36.346 64.989,36.346 C65.219,36.346 65.509,36.317 65.738,36.317 C66.891,36.143 67.325,35.393 67.844,34.154 L74.478,18.724 C74.767,18.03 74.968,17.742 75.228,17.742 C75.603,17.742 75.718,17.974 75.979,18.52 C76.585,19.876 80.824,29.915 82.438,33.636 C83.42,35.854 84.141,36.175 84.602,36.26 C84.976,36.317 85.266,36.346 85.554,36.346 C85.784,36.346 85.9,36.434 85.9,36.605 C85.9,36.808 85.757,36.865 84.805,36.865 C83.91,36.865 82.065,36.865 79.93,36.808 C79.469,36.778 79.179,36.778 79.179,36.605 C79.179,36.46 79.237,36.375 79.496,36.346 C79.671,36.317 79.842,36.087 79.729,35.797 L77.766,30.867 C77.709,30.722 77.623,30.692 77.506,30.692 L71.536,30.692 Z" id="Fill-2" fill="#1A1919"></path>
        <path d="M91.323,27.317 C91.323,27.578 91.38,27.664 91.554,27.75 C92.103,27.924 92.852,27.981 93.487,27.981 C94.497,27.981 94.842,27.894 95.276,27.578 C96.053,27.029 96.919,25.962 96.919,23.943 C96.919,20.482 94.554,19.59 93.053,19.59 C92.421,19.59 91.813,19.615 91.554,19.674 C91.38,19.731 91.323,19.817 91.323,20.02 L91.323,27.317 Z M88.092,25.415 C88.092,21.694 88.092,21.001 88.065,20.223 C88.006,19.389 87.776,19.127 86.967,18.896 C86.766,18.838 86.335,18.809 85.96,18.809 C85.7,18.809 85.526,18.724 85.526,18.55 C85.526,18.377 85.727,18.318 86.102,18.318 C87.429,18.318 89.044,18.377 89.564,18.377 C90.43,18.377 92.737,18.318 93.514,18.318 C95.13,18.318 96.977,18.465 98.334,19.355 C99.053,19.849 100.121,21.088 100.121,22.732 C100.121,24.549 99.081,26.162 96.602,28.154 C98.852,30.923 100.639,33.144 102.168,34.673 C103.583,36.087 104.475,36.201 104.88,36.289 C105.139,36.346 105.284,36.346 105.485,36.346 C105.687,36.346 105.802,36.489 105.802,36.605 C105.802,36.808 105.63,36.865 105.313,36.865 L102.889,36.865 C101.477,36.865 100.784,36.722 100.121,36.375 C99.026,35.825 98.075,34.673 96.66,32.768 C95.65,31.441 94.582,29.799 94.266,29.424 C94.122,29.278 93.977,29.249 93.805,29.249 L91.525,29.194 C91.411,29.194 91.323,29.249 91.323,29.394 L91.323,29.74 C91.323,32.019 91.353,33.924 91.469,34.961 C91.554,35.683 91.67,36.143 92.448,36.26 C92.825,36.317 93.372,36.346 93.689,36.346 C93.89,36.346 94.007,36.489 94.007,36.605 C94.007,36.778 93.805,36.865 93.487,36.865 C92.015,36.865 89.911,36.778 89.536,36.778 C89.044,36.778 87.429,36.865 86.419,36.865 C86.102,36.865 85.929,36.778 85.929,36.605 C85.929,36.489 86.017,36.346 86.335,36.346 C86.707,36.346 86.998,36.317 87.227,36.26 C87.747,36.143 87.891,35.683 87.977,34.961 C88.092,33.924 88.092,31.99 88.092,29.74 L88.092,25.415 Z" id="Fill-3" fill="#1A1919"></path>
        <path d="M108.832,18.406 C108.89,18.001 109.12,17.771 109.322,17.771 C109.583,17.771 109.754,17.886 110.101,18.55 L116.908,32.223 L123.715,18.377 C123.918,17.974 124.147,17.771 124.379,17.771 C124.581,17.771 124.868,18.03 124.956,18.55 L127.262,33.691 C127.494,35.22 127.724,35.884 128.502,36.116 C129.225,36.317 129.628,36.346 129.946,36.346 C130.175,36.346 130.35,36.434 130.35,36.577 C130.35,36.778 130.061,36.865 129.686,36.865 C129.051,36.865 125.446,36.749 124.437,36.692 C123.831,36.663 123.686,36.548 123.686,36.404 C123.686,36.289 123.803,36.201 123.974,36.143 C124.12,36.087 124.178,35.797 124.091,35.105 L122.676,24.491 L122.591,24.491 L117.139,35.452 C116.564,36.605 116.417,36.836 116.129,36.836 C115.813,36.836 115.524,36.346 115.12,35.596 C114.514,34.471 112.495,30.722 112.208,30.029 C112.005,29.568 110.504,26.48 109.668,24.78 L109.583,24.78 L108.372,34.355 C108.313,34.788 108.284,35.105 108.284,35.511 C108.284,35.972 108.63,36.143 109.063,36.23 C109.496,36.317 109.727,36.346 109.958,36.346 C110.188,36.346 110.361,36.46 110.361,36.577 C110.361,36.808 110.129,36.865 109.754,36.865 C108.688,36.865 107.535,36.778 107.073,36.778 C106.583,36.778 105.371,36.865 104.564,36.865 C104.304,36.865 104.101,36.808 104.101,36.577 C104.101,36.46 104.247,36.346 104.505,36.346 C104.708,36.346 104.881,36.346 105.284,36.289 C105.977,36.201 106.207,35.22 106.322,34.414 L108.832,18.406" id="Fill-4" fill="#1A1919"></path>
        <path d="M144.167,34.125 C141.342,31.644 140.591,28.413 140.591,25.618 C140.591,23.655 141.196,20.25 143.964,17.714 C146.042,15.81 148.782,14.656 153.081,14.656 C154.868,14.656 155.936,14.77 157.261,14.944 C158.358,15.088 159.281,15.35 160.147,15.435 C160.463,15.464 160.58,15.608 160.58,15.781 C160.58,16.012 160.493,16.357 160.434,17.366 C160.376,18.318 160.405,19.905 160.348,20.482 C160.319,20.914 160.26,21.146 160.002,21.146 C159.772,21.146 159.713,20.914 159.713,20.511 C159.684,19.615 159.31,18.607 158.588,17.859 C157.636,16.849 155.387,16.068 152.734,16.068 C150.224,16.068 148.58,16.703 147.311,17.859 C145.205,19.79 144.658,22.529 144.658,25.327 C144.658,32.191 149.877,35.596 153.745,35.596 C156.311,35.596 157.868,35.308 159.02,33.979 C159.511,33.433 159.887,32.599 160.002,32.078 C160.09,31.616 160.147,31.499 160.376,31.499 C160.58,31.499 160.637,31.702 160.637,31.933 C160.637,32.28 160.292,34.788 160.002,35.77 C159.858,36.26 159.743,36.404 159.251,36.605 C158.098,37.068 155.907,37.269 154.059,37.269 C150.11,37.269 146.792,36.404 144.167,34.125" id="Fill-5" fill="#1A1919"></path>
        <path d="M167.731,27.317 C167.731,27.578 167.79,27.664 167.963,27.75 C168.512,27.924 169.262,27.981 169.897,27.981 C170.905,27.981 171.25,27.894 171.684,27.578 C172.463,27.029 173.329,25.962 173.329,23.943 C173.329,20.482 170.963,19.59 169.465,19.59 C168.831,19.59 168.222,19.615 167.963,19.674 C167.79,19.731 167.731,19.817 167.731,20.02 L167.731,27.317 Z M164.501,25.415 C164.501,21.694 164.501,21.001 164.475,20.223 C164.417,19.389 164.184,19.127 163.378,18.896 C163.177,18.838 162.744,18.809 162.368,18.809 C162.109,18.809 161.934,18.724 161.934,18.55 C161.934,18.377 162.137,18.318 162.512,18.318 C163.84,18.318 165.454,18.377 165.973,18.377 C166.839,18.377 169.147,18.318 169.925,18.318 C171.542,18.318 173.385,18.465 174.742,19.355 C175.463,19.849 176.53,21.088 176.53,22.732 C176.53,24.549 175.492,26.162 173.01,28.154 C175.26,30.923 177.049,33.144 178.579,34.673 C179.993,36.087 180.884,36.201 181.289,36.289 C181.548,36.346 181.692,36.346 181.894,36.346 C182.096,36.346 182.211,36.489 182.211,36.605 C182.211,36.808 182.041,36.865 181.723,36.865 L179.297,36.865 C177.887,36.865 177.192,36.722 176.53,36.375 C175.434,35.825 174.482,34.673 173.069,32.768 C172.06,31.441 170.993,29.799 170.676,29.424 C170.531,29.278 170.387,29.249 170.211,29.249 L167.935,29.194 C167.819,29.194 167.731,29.249 167.731,29.394 L167.731,29.74 C167.731,32.019 167.763,33.924 167.877,34.961 C167.963,35.683 168.079,36.143 168.857,36.26 C169.233,36.317 169.781,36.346 170.097,36.346 C170.301,36.346 170.415,36.489 170.415,36.605 C170.415,36.778 170.211,36.865 169.897,36.865 C168.424,36.865 166.321,36.778 165.944,36.778 C165.454,36.778 163.84,36.865 162.829,36.865 C162.512,36.865 162.338,36.778 162.338,36.605 C162.338,36.489 162.426,36.346 162.744,36.346 C163.119,36.346 163.405,36.317 163.637,36.26 C164.157,36.143 164.3,35.683 164.387,34.961 C164.501,33.924 164.501,31.99 164.501,29.74 L164.501,25.415 Z" id="Fill-6" fill="#1A1919"></path>
        <path d="M182.561,25.415 C182.561,21.694 182.561,21.001 182.532,20.223 C182.473,19.389 182.242,19.127 181.435,18.896 C181.233,18.838 180.8,18.809 180.424,18.809 C180.166,18.809 179.993,18.724 179.993,18.55 C179.993,18.377 180.195,18.318 180.57,18.318 C181.897,18.318 183.51,18.377 184.233,18.377 C185.042,18.377 190.665,18.406 191.156,18.377 C191.616,18.348 192.021,18.261 192.222,18.232 C192.367,18.203 192.509,18.118 192.626,18.118 C192.77,18.118 192.799,18.232 192.799,18.348 C192.799,18.52 192.656,18.809 192.597,19.935 C192.568,20.193 192.509,21.261 192.452,21.551 C192.424,21.664 192.367,21.953 192.165,21.953 C191.992,21.953 191.963,21.837 191.963,21.636 C191.963,21.463 191.933,21.03 191.79,20.742 C191.587,20.308 191.385,19.964 190.117,19.849 C189.684,19.79 186.656,19.731 186.136,19.731 C186.02,19.731 185.963,19.817 185.963,19.964 L185.963,26.02 C185.963,26.162 185.992,26.279 186.136,26.279 C186.713,26.279 190.002,26.279 190.579,26.221 C191.184,26.162 191.559,26.103 191.79,25.845 C191.992,25.675 192.079,25.53 192.192,25.53 C192.309,25.53 192.396,25.643 192.396,25.789 C192.396,25.935 192.338,26.338 192.192,27.578 C192.135,28.067 192.079,29.048 192.079,29.22 C192.079,29.424 192.049,29.769 191.819,29.769 C191.646,29.769 191.587,29.683 191.587,29.568 C191.559,29.308 191.559,28.99 191.5,28.673 C191.357,28.183 191.04,27.809 190.087,27.723 C189.625,27.664 186.743,27.607 186.108,27.607 C185.992,27.607 185.963,27.723 185.963,27.866 L185.963,29.827 C185.963,30.664 185.934,32.742 185.963,33.462 C186.02,35.135 186.801,35.511 189.395,35.511 C190.061,35.511 191.126,35.481 191.79,35.191 C192.424,34.903 192.711,34.385 192.885,33.374 C192.944,33.115 193.001,33.001 193.173,33.001 C193.375,33.001 193.405,33.316 193.405,33.577 C193.405,34.125 193.204,35.797 193.059,36.289 C192.885,36.923 192.656,36.923 191.704,36.923 C189.8,36.923 188.271,36.894 187.03,36.836 C185.791,36.808 184.838,36.778 184.087,36.778 C183.799,36.778 183.251,36.808 182.646,36.808 C182.041,36.836 181.406,36.865 180.885,36.865 C180.57,36.865 180.397,36.778 180.397,36.605 C180.397,36.489 180.483,36.346 180.8,36.346 C181.175,36.346 181.464,36.317 181.694,36.26 C182.213,36.143 182.358,35.683 182.444,34.961 C182.561,33.924 182.561,31.99 182.561,29.74 L182.561,25.415" id="Fill-7" fill="#1A1919"></path>
        <path d="M200.142,28.126 C200.142,30.722 200.17,32.599 200.2,33.086 C200.228,33.691 200.286,34.559 200.488,34.817 C200.805,35.278 201.813,35.797 203.805,35.797 C206.112,35.797 207.815,35.393 209.342,34.125 C210.986,32.768 211.506,30.577 211.506,28.04 C211.506,24.925 210.266,22.905 209.14,21.924 C206.803,19.849 204.034,19.59 202.044,19.59 C201.527,19.59 200.689,19.647 200.488,19.761 C200.258,19.849 200.17,19.964 200.17,20.25 C200.142,21.088 200.142,23.108 200.142,25.039 L200.142,28.126 Z M196.738,25.415 C196.738,21.694 196.738,21.001 196.708,20.223 C196.653,19.389 196.42,19.127 195.612,18.896 C195.413,18.838 194.979,18.809 194.603,18.809 C194.342,18.809 194.172,18.724 194.172,18.55 C194.172,18.377 194.372,18.318 194.749,18.318 C196.074,18.318 197.69,18.377 198.411,18.377 C199.189,18.377 201.006,18.318 202.536,18.318 C205.708,18.318 209.977,18.318 212.747,21.117 C214.016,22.386 215.141,24.434 215.141,27.348 C215.141,30.433 213.813,32.768 212.372,34.184 C211.217,35.337 208.536,37.068 203.863,37.068 C202.939,37.068 201.842,36.98 200.833,36.923 C199.824,36.836 198.901,36.778 198.266,36.778 C197.978,36.778 197.428,36.808 196.823,36.808 C196.219,36.836 195.585,36.865 195.065,36.865 C194.749,36.865 194.575,36.778 194.575,36.605 C194.575,36.489 194.661,36.346 194.979,36.346 C195.354,36.346 195.641,36.317 195.873,36.26 C196.391,36.143 196.538,35.683 196.624,34.961 C196.738,33.924 196.738,31.99 196.738,29.74 L196.738,25.415 Z" id="Fill-8" fill="#1A1919"></path>
        <path d="M217.534,25.415 C217.534,21.694 217.534,21.001 217.506,20.223 C217.448,19.389 217.19,19.097 216.64,18.925 C216.352,18.838 216.036,18.809 215.717,18.809 C215.458,18.809 215.312,18.751 215.312,18.52 C215.312,18.377 215.516,18.318 215.92,18.318 C216.872,18.318 218.602,18.377 219.323,18.377 C219.959,18.377 221.601,18.318 222.583,18.318 C222.9,18.318 223.102,18.377 223.102,18.52 C223.102,18.751 222.958,18.809 222.698,18.809 C222.438,18.809 222.237,18.838 221.949,18.896 C221.255,19.012 221.054,19.355 220.997,20.223 C220.94,21.001 220.94,21.694 220.94,25.415 L220.94,29.74 C220.94,32.105 220.94,34.067 221.054,35.105 C221.139,35.77 221.313,36.143 222.063,36.26 C222.409,36.317 222.987,36.346 223.363,36.346 C223.649,36.346 223.764,36.489 223.764,36.605 C223.764,36.778 223.564,36.865 223.274,36.865 C221.601,36.865 219.87,36.778 219.179,36.778 C218.602,36.778 216.872,36.865 215.862,36.865 C215.545,36.865 215.371,36.778 215.371,36.605 C215.371,36.489 215.458,36.346 215.776,36.346 C216.152,36.346 216.44,36.317 216.668,36.26 C217.19,36.143 217.333,35.797 217.418,35.077 C217.534,34.067 217.534,32.105 217.534,29.74 L217.534,25.415" id="Fill-9" fill="#1A1919"></path>
        <path d="M231.497,19.817 L227.718,19.905 C226.247,19.935 225.64,20.107 225.266,20.654 C225.005,21.001 224.889,21.318 224.831,21.492 C224.775,21.694 224.716,21.81 224.545,21.81 C224.371,21.81 224.313,21.664 224.313,21.406 C224.313,21.001 224.804,18.636 224.863,18.433 C224.921,18.118 225.005,17.974 225.15,17.974 C225.351,17.974 225.612,18.174 226.247,18.261 C226.997,18.348 227.946,18.377 228.784,18.377 L239.082,18.377 C239.888,18.377 240.436,18.318 240.811,18.261 C241.215,18.203 241.418,18.144 241.506,18.144 C241.676,18.144 241.706,18.29 241.706,18.665 C241.706,19.185 241.65,21.001 241.65,21.636 C241.618,21.894 241.562,22.04 241.418,22.04 C241.215,22.04 241.159,21.924 241.129,21.551 L241.1,21.289 C241.044,20.654 240.38,19.905 238.1,19.876 L234.899,19.817 L234.899,29.74 C234.899,31.99 234.927,33.924 235.043,34.99 C235.129,35.683 235.273,36.143 236.022,36.26 C236.372,36.317 236.947,36.346 237.321,36.346 C237.611,36.346 237.725,36.489 237.725,36.605 C237.725,36.778 237.524,36.865 237.236,36.865 C235.563,36.865 233.86,36.778 233.139,36.778 C232.563,36.778 230.833,36.865 229.823,36.865 C229.505,36.865 229.333,36.778 229.333,36.605 C229.333,36.489 229.418,36.346 229.736,36.346 C230.111,36.346 230.429,36.317 230.629,36.26 C231.149,36.143 231.293,35.683 231.379,34.961 C231.497,33.924 231.497,31.99 231.497,29.74 L231.497,19.817" id="Fill-10" fill="#1A1919"></path>
        <path d="M61.423,47.815 C61.372,46.837 61.309,45.661 61.319,44.787 L61.288,44.787 C61.049,45.609 60.757,46.483 60.404,47.451 L59.165,50.853 L58.478,50.853 L57.344,47.514 C57.011,46.525 56.73,45.619 56.532,44.787 L56.512,44.787 C56.491,45.661 56.439,46.837 56.376,47.889 L56.189,50.895 L55.325,50.895 L55.815,43.881 L56.97,43.881 L58.166,47.273 C58.458,48.138 58.697,48.908 58.874,49.637 L58.905,49.637 C59.082,48.929 59.332,48.158 59.644,47.273 L60.893,43.881 L62.048,43.881 L62.485,50.895 L61.601,50.895 L61.423,47.815" id="Fill-11" fill="#1A1919"></path>
        <polygon id="Fill-12" fill="#1A1919" points="65.174 50.896 66.079 50.896 66.079 43.881 65.174 43.881"></polygon>
        <path d="M69.865,50.178 C70.094,50.219 70.427,50.229 70.78,50.229 C72.716,50.229 73.767,49.147 73.767,47.254 C73.777,45.599 72.841,44.547 70.926,44.547 C70.458,44.547 70.104,44.59 69.865,44.641 L69.865,50.178 Z M68.96,43.975 C69.511,43.893 70.166,43.83 70.885,43.83 C72.186,43.83 73.111,44.131 73.726,44.703 C74.35,45.275 74.714,46.088 74.714,47.223 C74.714,48.367 74.36,49.303 73.705,49.949 C73.049,50.603 71.967,50.958 70.604,50.958 C69.958,50.958 69.417,50.927 68.96,50.875 L68.96,43.975 Z" id="Fill-13" fill="#1A1919"></path>
        <path d="M80.474,47.981 L79.787,45.963 C79.631,45.505 79.527,45.089 79.423,44.683 L79.402,44.683 C79.298,45.1 79.184,45.525 79.048,45.953 L78.361,47.981 L80.474,47.981 Z M78.174,48.689 L77.446,50.895 L76.509,50.895 L78.892,43.881 L79.985,43.881 L82.378,50.895 L81.411,50.895 L80.661,48.689 L78.174,48.689 Z" id="Fill-14" fill="#1A1919"></path>
        <polyline id="Fill-15" fill="#1A1919" points="85.236 44.651 83.103 44.651 83.103 43.881 88.296 43.881 88.296 44.651 86.152 44.651 86.152 50.895 85.236 50.895 85.236 44.651"></polyline>
        <polyline id="Fill-16" fill="#1A1919" points="90.373 43.881 91.278 43.881 91.278 50.136 94.275 50.136 94.275 50.895 90.373 50.895 90.373 43.881"></polyline>
        <path d="M100.016,47.981 L99.329,45.963 C99.173,45.505 99.068,45.089 98.964,44.683 L98.944,44.683 C98.84,45.1 98.725,45.525 98.59,45.953 L97.903,47.981 L100.016,47.981 Z M97.716,48.689 L96.987,50.895 L96.051,50.895 L98.434,43.881 L99.526,43.881 L101.92,50.895 L100.952,50.895 L100.203,48.689 L97.716,48.689 Z" id="Fill-17" fill="#1A1919"></path>
        <path d="M104.247,50.895 L104.247,43.881 L105.235,43.881 L107.483,47.43 C108.003,48.252 108.409,48.991 108.742,49.709 L108.763,49.699 C108.68,48.762 108.659,47.908 108.659,46.816 L108.659,43.881 L109.512,43.881 L109.512,50.895 L108.596,50.895 L106.369,47.336 C105.88,46.557 105.412,45.755 105.058,44.995 L105.027,45.006 C105.079,45.891 105.1,46.732 105.1,47.898 L105.1,50.895 L104.247,50.895" id="Fill-18" fill="#1A1919"></path>
        <polyline id="Fill-19" fill="#1A1919" points="113.722 44.651 111.588 44.651 111.588 43.881 116.781 43.881 116.781 44.651 114.638 44.651 114.638 50.895 113.722 50.895 113.722 44.651"></polyline>
        <polygon id="Fill-20" fill="#1A1919" points="118.858 50.896 119.764 50.896 119.764 43.881 118.858 43.881"></polygon>
        <path d="M127.545,50.666 C127.213,50.833 126.547,51 125.694,51 C123.715,51 122.229,49.751 122.229,47.451 C122.229,45.256 123.715,43.768 125.891,43.768 C126.766,43.768 127.317,43.955 127.557,44.079 L127.338,44.818 C126.995,44.651 126.504,44.527 125.922,44.527 C124.278,44.527 123.186,45.578 123.186,47.42 C123.186,49.137 124.174,50.24 125.881,50.24 C126.432,50.24 126.995,50.125 127.358,49.949 L127.545,50.666" id="Fill-21" fill="#1A1919"></path>
        <path d="M31.755,47.926 C32.017,47.926 32.253,47.911 32.253,47.594 C32.253,47.341 32.021,47.292 31.809,47.292 L31.384,47.292 L31.384,47.926 L31.755,47.926 Z M31.384,49.074 L31.075,49.074 L31.075,47.029 L31.856,47.029 C32.336,47.029 32.577,47.211 32.577,47.611 C32.577,47.978 32.346,48.137 32.048,48.175 L32.628,49.074 L32.278,49.074 L31.743,48.188 L31.384,48.188 L31.384,49.074 Z M31.758,49.529 C32.562,49.529 33.194,48.899 33.194,48.049 C33.194,47.211 32.562,46.576 31.758,46.576 C30.948,46.576 30.318,47.211 30.318,48.049 C30.318,48.899 30.948,49.529 31.758,49.529 Z M29.962,48.049 C29.962,47.029 30.789,46.285 31.758,46.285 C32.724,46.285 33.549,47.029 33.549,48.049 C33.549,49.074 32.724,49.822 31.758,49.822 C30.789,49.822 29.962,49.074 29.962,48.049 Z" id="Fill-22" fill="#60863D"></path>
        <path d="M25.652,38.377 L31.573,44.127 C30.998,44.707 30.409,45.308 29.831,45.901 L25.404,41.406 L25.652,38.377" id="Fill-23" fill="#60863D"></path>
        <path d="M24.379,38.377 L18.456,44.127 C19.039,44.707 19.626,45.308 20.205,45.901 L24.628,41.406 L24.379,38.377" id="Fill-24" fill="#60863D"></path>
        <path d="M25.002,47.759 L24.625,42.9 L20.975,46.697 C23.187,48.996 25.034,51 25.034,51 L29.142,46.689 L25.331,42.914 L25.002,47.759" id="Fill-25" fill="#60863D"></path>
        <path d="M25.852,33.482 L34.123,41.475 C33.862,41.905 32.917,42.879 32.35,43.359 L25.663,36.439 L25.852,33.482" id="Fill-26" fill="#60863D"></path>
        <path d="M24.028,33.482 L15.759,41.475 C16.021,41.905 16.965,42.879 17.527,43.359 L24.217,36.439 L24.028,33.482" id="Fill-27" fill="#60863D"></path>
        <path d="M26.261,27.918 L33.488,34.956 C33.488,34.956 35.681,37.672 34.718,40.427 L26.042,31.449 L26.261,27.918" id="Fill-28" fill="#60863D"></path>
        <path d="M23.811,27.919 L16.582,34.839 C16.582,34.839 14.395,37.555 15.354,40.314 L24.04,31.436 L23.811,27.919" id="Fill-29" fill="#60863D"></path>
        <path d="M50.034,25.961 L41.919,17.748 C41.919,17.748 38.321,14.594 34.869,17.141 C31.417,19.691 27.069,24.744 27.069,24.744 L45.351,25.831 L27.071,27.174 L33.989,34.404 C33.989,34.404 38.149,37.762 41.389,34.354 C44.637,30.943 50.034,25.961 50.034,25.961" id="Fill-30" fill="#60863D"></path>
        <g id="Group-34">
            <mask id="mask-2" fill="white">
                <use xlink:href="#path-1"></use>
            </mask>
            <g id="Clip-32"></g>
            <path d="M24.998,0.771 L16.786,8.883 C16.786,8.883 13.626,12.485 16.175,15.935 C18.724,19.389 23.779,23.737 23.779,23.737 L25.029,5.489 L26.209,23.733 L33.437,16.815 C33.437,16.815 36.794,12.657 33.387,9.416 C29.977,6.171 24.998,0.771 24.998,0.771" id="Fill-31" fill="#60863D" mask="url(#mask-2)"></path>
            <path d="M0,25.901 L8.114,34.119 C8.114,34.119 11.713,37.276 15.165,34.729 C18.616,32.177 22.968,27.123 22.968,27.123 L4.684,25.836 L22.968,24.696 L16.046,17.465 C16.046,17.465 11.888,14.107 8.644,17.516 C5.397,20.924 0,25.901 0,25.901" id="Fill-33" fill="#60863D" mask="url(#mask-2)"></path>
        </g>
    </g>
</svg>